<svg xmlns="http://www.w3.org/2000/svg" xmlns:xlink="http://www.w3.org/1999/xlink" width="1000" zoomAndPan="magnify" viewBox="0 0 750 749.999995" height="1000" preserveAspectRatio="xMidYMid meet" version="1.0"><defs><clipPath id="36cc6ce762"><path d="M 4.335938 7.644531 L 739.335938 7.644531 L 739.335938 742.644531 L 4.335938 742.644531 Z M 4.335938 7.644531 " clip-rule="nonzero"/></clipPath><clipPath id="aff608d3b1"><path d="M 4.335938 4.335938 L 745.335938 4.335938 L 745.335938 745.335938 L 4.335938 745.335938 Z M 4.335938 4.335938 " clip-rule="nonzero"/></clipPath><clipPath id="feda1399ef"><path d="M 78 69 L 672 69 L 672 663 L 78 663 Z M 78 69 " clip-rule="nonzero"/></clipPath><clipPath id="f9377bba55"><path d="M 365.214844 69.210938 L 671.8125 356.261719 L 384.765625 662.859375 L 78.164062 375.808594 Z M 365.214844 69.210938 " clip-rule="nonzero"/></clipPath><clipPath id="82ad3fc72c"><path d="M 365.214844 69.210938 L 671.8125 356.261719 L 384.765625 662.859375 L 78.164062 375.808594 Z M 365.214844 69.210938 " clip-rule="nonzero"/></clipPath><clipPath id="845a48ca7f"><path d="M 365.214844 69.210938 L 671.8125 356.261719 L 384.765625 662.859375 L 78.164062 375.808594 Z M 365.214844 69.210938 " clip-rule="nonzero"/></clipPath></defs><g clip-path="url(#36cc6ce762)"><path fill="#f9ed28" d="M 739.335938 375.144531 C 739.335938 381.15625 739.1875 387.167969 738.894531 393.175781 C 738.597656 399.183594 738.15625 405.179688 737.566406 411.164062 C 736.976562 417.148438 736.242188 423.117188 735.359375 429.066406 C 734.476562 435.015625 733.449219 440.941406 732.273438 446.839844 C 731.101562 452.738281 729.785156 458.605469 728.324219 464.4375 C 726.863281 470.273438 725.257812 476.066406 723.511719 481.824219 C 721.765625 487.578125 719.878906 493.289062 717.855469 498.949219 C 715.828125 504.613281 713.664062 510.222656 711.363281 515.78125 C 709.0625 521.335938 706.625 526.832031 704.054688 532.269531 C 701.480469 537.707031 698.777344 543.078125 695.941406 548.382812 C 693.109375 553.6875 690.144531 558.917969 687.050781 564.074219 C 683.960938 569.234375 680.742188 574.316406 677.402344 579.316406 C 674.058594 584.316406 670.597656 589.230469 667.015625 594.0625 C 663.433594 598.894531 659.734375 603.632812 655.917969 608.28125 C 652.101562 612.933594 648.175781 617.484375 644.136719 621.941406 C 640.097656 626.398438 635.953125 630.753906 631.699219 635.003906 C 627.445312 639.257812 623.089844 643.402344 618.632812 647.441406 C 614.179688 651.480469 609.625 655.410156 604.976562 659.226562 C 600.328125 663.039062 595.585938 666.738281 590.757812 670.320312 C 585.925781 673.90625 581.007812 677.367188 576.007812 680.707031 C 571.007812 684.050781 565.929688 687.265625 560.769531 690.359375 C 555.609375 693.449219 550.378906 696.414062 545.074219 699.25 C 539.769531 702.085938 534.398438 704.789062 528.964844 707.359375 C 523.527344 709.929688 518.03125 712.367188 512.472656 714.667969 C 506.917969 716.96875 501.304688 719.132812 495.644531 721.160156 C 489.980469 723.1875 484.273438 725.074219 478.515625 726.820312 C 472.761719 728.566406 466.964844 730.167969 461.132812 731.628906 C 455.296875 733.089844 449.429688 734.410156 443.53125 735.582031 C 437.632812 736.753906 431.710938 737.78125 425.761719 738.664062 C 419.8125 739.546875 413.84375 740.285156 407.859375 740.875 C 401.871094 741.464844 395.875 741.90625 389.871094 742.199219 C 383.863281 742.496094 377.851562 742.644531 371.835938 742.644531 C 365.824219 742.644531 359.8125 742.496094 353.804688 742.199219 C 347.796875 741.90625 341.800781 741.464844 335.816406 740.875 C 329.828125 740.285156 323.863281 739.546875 317.914062 738.664062 C 311.964844 737.78125 306.039062 736.753906 300.140625 735.582031 C 294.242188 734.410156 288.375 733.089844 282.542969 731.628906 C 276.707031 730.167969 270.914062 728.566406 265.15625 726.820312 C 259.402344 725.074219 253.691406 723.1875 248.03125 721.160156 C 242.367188 719.132812 236.757812 716.96875 231.199219 714.667969 C 225.644531 712.367188 220.148438 709.929688 214.710938 707.359375 C 209.273438 704.789062 203.902344 702.085938 198.597656 699.25 C 193.292969 696.414062 188.0625 693.449219 182.902344 690.359375 C 177.746094 687.265625 172.664062 684.050781 167.664062 680.707031 C 162.664062 677.367188 157.75 673.90625 152.917969 670.320312 C 148.085938 666.738281 143.347656 663.039062 138.699219 659.226562 C 134.046875 655.410156 129.496094 651.480469 125.039062 647.441406 C 120.582031 643.402344 116.226562 639.257812 111.976562 635.003906 C 107.722656 630.753906 103.578125 626.398438 99.539062 621.941406 C 95.5 617.484375 91.570312 612.933594 87.753906 608.28125 C 83.941406 603.632812 80.242188 598.894531 76.65625 594.0625 C 73.074219 589.230469 69.613281 584.316406 66.273438 579.316406 C 62.929688 574.316406 59.714844 569.234375 56.621094 564.074219 C 53.53125 558.917969 50.566406 553.6875 47.730469 548.382812 C 44.894531 543.078125 42.191406 537.707031 39.621094 532.269531 C 37.050781 526.832031 34.613281 521.335938 32.3125 515.78125 C 30.007812 510.222656 27.84375 504.613281 25.820312 498.949219 C 23.792969 493.289062 21.90625 487.578125 20.160156 481.824219 C 18.414062 476.066406 16.8125 470.273438 15.351562 464.4375 C 13.890625 458.605469 12.570312 452.738281 11.398438 446.839844 C 10.226562 440.941406 9.195312 435.015625 8.316406 429.066406 C 7.433594 423.117188 6.695312 417.148438 6.105469 411.164062 C 5.515625 405.179688 5.074219 399.183594 4.78125 393.175781 C 4.484375 387.167969 4.335938 381.15625 4.335938 375.144531 C 4.335938 369.128906 4.484375 363.117188 4.78125 357.109375 C 5.074219 351.105469 5.515625 345.109375 6.105469 339.121094 C 6.695312 333.136719 7.433594 327.167969 8.316406 321.21875 C 9.195312 315.269531 10.226562 309.347656 11.398438 303.449219 C 12.570312 297.550781 13.890625 291.683594 15.351562 285.847656 C 16.8125 280.015625 18.414062 274.21875 20.160156 268.464844 C 21.90625 262.707031 23.792969 257 25.820312 251.335938 C 27.84375 245.671875 30.007812 240.0625 32.3125 234.507812 C 34.613281 228.949219 37.050781 223.453125 39.621094 218.015625 C 42.191406 212.578125 44.894531 207.210938 47.730469 201.90625 C 50.566406 196.601562 53.53125 191.371094 56.621094 186.210938 C 59.714844 181.050781 62.929688 175.972656 66.273438 170.972656 C 69.613281 165.96875 73.074219 161.054688 76.65625 156.222656 C 80.242188 151.394531 83.941406 146.652344 87.753906 142.003906 C 91.570312 137.355469 95.5 132.800781 99.539062 128.34375 C 103.578125 123.890625 107.722656 119.535156 111.976562 115.28125 C 116.226562 111.027344 120.582031 106.882812 125.039062 102.84375 C 129.496094 98.804688 134.046875 94.878906 138.699219 91.0625 C 143.347656 87.246094 148.085938 83.546875 152.917969 79.964844 C 157.75 76.382812 162.664062 72.917969 167.664062 69.578125 C 172.664062 66.238281 177.746094 63.019531 182.902344 59.929688 C 188.0625 56.835938 193.292969 53.871094 198.597656 51.039062 C 203.902344 48.203125 209.273438 45.5 214.710938 42.925781 C 220.148438 40.355469 225.644531 37.917969 231.199219 35.617188 C 236.757812 33.316406 242.367188 31.152344 248.03125 29.125 C 253.691406 27.101562 259.402344 25.214844 265.15625 23.46875 C 270.914062 21.722656 276.707031 20.117188 282.542969 18.65625 C 288.375 17.195312 294.242188 15.878906 300.140625 14.703125 C 306.039062 13.53125 311.964844 12.503906 317.914062 11.621094 C 323.863281 10.738281 329.828125 10.003906 335.816406 9.414062 C 341.800781 8.824219 347.796875 8.382812 353.804688 8.085938 C 359.8125 7.789062 365.824219 7.644531 371.835938 7.644531 C 377.851562 7.644531 383.863281 7.789062 389.871094 8.085938 C 395.875 8.382812 401.871094 8.824219 407.859375 9.414062 C 413.84375 10.003906 419.8125 10.738281 425.761719 11.621094 C 431.710938 12.503906 437.632812 13.53125 443.53125 14.703125 C 449.429688 15.878906 455.296875 17.195312 461.132812 18.65625 C 466.964844 20.117188 472.761719 21.722656 478.515625 23.46875 C 484.273438 25.214844 489.980469 27.101562 495.644531 29.125 C 501.304688 31.152344 506.917969 33.316406 512.472656 35.617188 C 518.03125 37.917969 523.527344 40.355469 528.964844 42.925781 C 534.398438 45.5 539.769531 48.203125 545.074219 51.039062 C 550.378906 53.871094 555.609375 56.835938 560.769531 59.929688 C 565.929688 63.019531 571.007812 66.238281 576.007812 69.578125 C 581.007812 72.917969 585.925781 76.382812 590.757812 79.964844 C 595.585938 83.546875 600.328125 87.246094 604.976562 91.0625 C 609.625 94.878906 614.179688 98.804688 618.632812 102.84375 C 623.089844 106.882812 627.445312 111.027344 631.699219 115.28125 C 635.953125 119.535156 640.097656 123.890625 644.136719 128.34375 C 648.175781 132.800781 652.101562 137.355469 655.917969 142.003906 C 659.734375 146.652344 663.433594 151.394531 667.015625 156.222656 C 670.597656 161.054688 674.058594 165.96875 677.402344 170.972656 C 680.742188 175.972656 683.960938 181.050781 687.050781 186.210938 C 690.144531 191.371094 693.109375 196.601562 695.941406 201.90625 C 698.777344 207.210938 701.480469 212.578125 704.054688 218.015625 C 706.625 223.453125 709.0625 228.949219 711.363281 234.507812 C 713.664062 240.0625 715.828125 245.671875 717.855469 251.335938 C 719.878906 257 721.765625 262.707031 723.511719 268.464844 C 725.257812 274.21875 726.863281 280.015625 728.324219 285.847656 C 729.785156 291.683594 731.101562 297.550781 732.277344 303.449219 C 733.449219 309.347656 734.476562 315.269531 735.359375 321.21875 C 736.242188 327.167969 736.976562 333.136719 737.566406 339.121094 C 738.15625 345.109375 738.597656 351.105469 738.894531 357.109375 C 739.1875 363.117188 739.335938 369.128906 739.335938 375.144531 Z M 739.335938 375.144531 " fill-opacity="1" fill-rule="nonzero"/></g><g clip-path="url(#aff608d3b1)"><path fill="#000000" d="M 374.835938 745.335938 C 170.148438 745.335938 4.335938 578.382812 4.335938 374.835938 C 4.335938 171.289062 170.148438 4.335938 374.835938 4.335938 C 579.527344 4.335938 745.335938 170.148438 745.335938 374.835938 C 745.335938 579.527344 578.382812 745.335938 374.835938 745.335938 Z M 374.835938 27.207031 C 182.726562 27.207031 27.207031 182.726562 27.207031 374.835938 C 27.207031 566.949219 182.726562 722.464844 374.835938 722.464844 C 566.949219 722.464844 722.464844 566.949219 722.464844 374.835938 C 722.464844 182.726562 565.804688 27.207031 374.835938 27.207031 Z M 374.835938 27.207031 " fill-opacity="1" fill-rule="nonzero"/></g><g clip-path="url(#feda1399ef)"><g clip-path="url(#f9377bba55)"><g clip-path="url(#82ad3fc72c)"><g clip-path="url(#845a48ca7f)"><path stroke-linecap="butt" transform="matrix(1.267458, 1.186646, -1.186646, 1.267458, 365.215269, 69.210485)" fill="none" stroke-linejoin="miter" d="M -0.000244492 120.899525 L 241.899955 120.900184 " stroke="#000000" stroke-width="26" stroke-opacity="1" stroke-miterlimit="10"/><path stroke-linecap="butt" transform="matrix(1.267458, 1.186646, -1.186646, 1.267458, 365.215269, 69.210485)" fill="none" stroke-linejoin="miter" d="M 120.899167 0.000601771 L 120.90015 241.899263 " stroke="#000000" stroke-width="26" stroke-opacity="1" stroke-miterlimit="10"/></g></g></g></g></svg>