<svg xmlns="http://www.w3.org/2000/svg" xmlns:xlink="http://www.w3.org/1999/xlink" width="15" zoomAndPan="magnify" viewBox="0 0 750 749.999995" height="15" preserveAspectRatio="xMidYMid meet" version="1.0"><defs><clipPath id="2883174d1a"><path d="M 8.046875 14.59375 L 735.546875 14.59375 L 735.546875 742.09375 L 8.046875 742.09375 Z M 8.046875 14.59375 " clip-rule="nonzero"/></clipPath><clipPath id="3308a7a0ae"><path d="M 8.046875 8.046875 L 742.296875 8.046875 L 742.296875 742.296875 L 8.046875 742.296875 Z M 8.046875 8.046875 " clip-rule="nonzero"/></clipPath><clipPath id="64b0b849b1"><path d="M 88.191406 263.167969 L 661.941406 263.167969 L 661.941406 432 L 88.191406 432 Z M 88.191406 263.167969 " clip-rule="nonzero"/></clipPath></defs><g clip-path="url(#2883174d1a)"><path fill="#f9ed28" d="M 735.546875 378.34375 C 735.546875 384.296875 735.398438 390.246094 735.109375 396.191406 C 734.816406 402.136719 734.378906 408.074219 733.792969 413.996094 C 733.210938 419.921875 732.484375 425.828125 731.609375 431.71875 C 730.734375 437.605469 729.71875 443.46875 728.558594 449.308594 C 727.394531 455.144531 726.089844 460.953125 724.644531 466.726562 C 723.199219 472.503906 721.609375 478.238281 719.882812 483.933594 C 718.15625 489.632812 716.289062 495.28125 714.28125 500.886719 C 712.277344 506.492188 710.136719 512.042969 707.855469 517.542969 C 705.578125 523.042969 703.167969 528.484375 700.621094 533.867188 C 698.078125 539.25 695.402344 544.5625 692.59375 549.8125 C 689.789062 555.0625 686.855469 560.242188 683.796875 565.347656 C 680.734375 570.453125 677.550781 575.484375 674.242188 580.433594 C 670.9375 585.382812 667.507812 590.246094 663.964844 595.027344 C 660.417969 599.8125 656.753906 604.503906 652.980469 609.105469 C 649.203125 613.707031 645.316406 618.210938 641.316406 622.625 C 637.320312 627.035156 633.214844 631.34375 629.007812 635.554688 C 624.796875 639.761719 620.488281 643.867188 616.074219 647.863281 C 611.664062 651.863281 607.160156 655.75 602.558594 659.527344 C 597.953125 663.300781 593.261719 666.964844 588.480469 670.511719 C 583.699219 674.054688 578.835938 677.484375 573.886719 680.789062 C 568.933594 684.097656 563.90625 687.28125 558.800781 690.34375 C 553.695312 693.402344 548.515625 696.335938 543.265625 699.140625 C 538.015625 701.949219 532.699219 704.625 527.320312 707.167969 C 521.9375 709.714844 516.496094 712.125 510.996094 714.40625 C 505.496094 716.683594 499.945312 718.824219 494.339844 720.832031 C 488.734375 722.835938 483.082031 724.703125 477.386719 726.429688 C 471.691406 728.160156 465.953125 729.746094 460.179688 731.191406 C 454.40625 732.640625 448.597656 733.941406 442.761719 735.105469 C 436.921875 736.265625 431.058594 737.28125 425.167969 738.15625 C 419.28125 739.03125 413.375 739.757812 407.449219 740.34375 C 401.527344 740.925781 395.589844 741.363281 389.644531 741.65625 C 383.699219 741.949219 377.75 742.09375 371.796875 742.09375 C 365.84375 742.09375 359.894531 741.949219 353.949219 741.65625 C 348.003906 741.363281 342.066406 740.925781 336.140625 740.34375 C 330.21875 739.757812 324.3125 739.03125 318.421875 738.15625 C 312.535156 737.28125 306.671875 736.265625 300.832031 735.105469 C 294.992188 733.941406 289.1875 732.640625 283.414062 731.191406 C 277.636719 729.746094 271.902344 728.160156 266.207031 726.429688 C 260.507812 724.703125 254.859375 722.835938 249.253906 720.832031 C 243.648438 718.824219 238.09375 716.683594 232.59375 714.40625 C 227.09375 712.125 221.65625 709.714844 216.273438 707.167969 C 210.890625 704.625 205.574219 701.949219 200.324219 699.140625 C 195.074219 696.335938 189.898438 693.402344 184.792969 690.34375 C 179.683594 687.28125 174.65625 684.097656 169.707031 680.789062 C 164.757812 677.484375 159.890625 674.054688 155.109375 670.511719 C 150.328125 666.964844 145.636719 663.300781 141.035156 659.527344 C 136.433594 655.75 131.925781 651.863281 127.515625 647.863281 C 123.105469 643.867188 118.796875 639.761719 114.585938 635.554688 C 110.375 631.34375 106.273438 627.035156 102.273438 622.625 C 98.277344 618.210938 94.390625 613.707031 90.613281 609.105469 C 86.835938 604.503906 83.175781 599.8125 79.628906 595.027344 C 76.082031 590.246094 72.65625 585.382812 69.347656 580.433594 C 66.042969 575.484375 62.859375 570.453125 59.796875 565.347656 C 56.738281 560.242188 53.804688 555.0625 50.996094 549.8125 C 48.191406 544.5625 45.515625 539.25 42.96875 533.867188 C 40.425781 528.484375 38.011719 523.042969 35.734375 517.542969 C 33.457031 512.042969 31.316406 506.492188 29.308594 500.886719 C 27.304688 495.28125 25.4375 489.632812 23.710938 483.933594 C 21.980469 478.238281 20.394531 472.503906 18.949219 466.726562 C 17.5 460.953125 16.195312 455.144531 15.035156 449.308594 C 13.875 443.46875 12.855469 437.605469 11.984375 431.714844 C 11.109375 425.828125 10.382812 419.921875 9.796875 413.996094 C 9.214844 408.074219 8.777344 402.136719 8.484375 396.191406 C 8.191406 390.246094 8.046875 384.296875 8.046875 378.34375 C 8.046875 372.390625 8.191406 366.441406 8.484375 360.496094 C 8.777344 354.550781 9.214844 348.613281 9.796875 342.691406 C 10.382812 336.765625 11.109375 330.859375 11.984375 324.96875 C 12.855469 319.082031 13.875 313.21875 15.035156 307.378906 C 16.195312 301.539062 17.5 295.734375 18.949219 289.960938 C 20.394531 284.183594 21.980469 278.449219 23.710938 272.753906 C 25.4375 267.054688 27.304688 261.40625 29.308594 255.800781 C 31.316406 250.195312 33.457031 244.640625 35.734375 239.140625 C 38.011719 233.644531 40.425781 228.203125 42.96875 222.820312 C 45.515625 217.4375 48.191406 212.125 50.996094 206.871094 C 53.804688 201.621094 56.738281 196.445312 59.796875 191.339844 C 62.859375 186.234375 66.042969 181.203125 69.347656 176.253906 C 72.65625 171.304688 76.082031 166.441406 79.628906 161.65625 C 83.175781 156.875 86.835938 152.183594 90.613281 147.582031 C 94.390625 142.980469 98.277344 138.476562 102.273438 134.0625 C 106.273438 129.652344 110.375 125.34375 114.585938 121.132812 C 118.796875 116.925781 123.105469 112.820312 127.515625 108.824219 C 131.925781 104.824219 136.433594 100.9375 141.035156 97.160156 C 145.636719 93.382812 150.328125 89.722656 155.109375 86.175781 C 159.890625 82.628906 164.757812 79.203125 169.707031 75.898438 C 174.65625 72.589844 179.683594 69.40625 184.792969 66.34375 C 189.898438 63.285156 195.074219 60.351562 200.324219 57.542969 C 205.574219 54.738281 210.890625 52.0625 216.273438 49.515625 C 221.65625 46.972656 227.09375 44.5625 232.59375 42.28125 C 238.09375 40.003906 243.648438 37.863281 249.253906 35.855469 C 254.859375 33.851562 260.507812 31.984375 266.207031 30.257812 C 271.902344 28.527344 277.636719 26.941406 283.414062 25.496094 C 289.1875 24.046875 294.992188 22.746094 300.832031 21.582031 C 306.671875 20.421875 312.535156 19.402344 318.421875 18.53125 C 324.3125 17.65625 330.21875 16.929688 336.140625 16.34375 C 342.066406 15.761719 348.003906 15.324219 353.949219 15.03125 C 359.894531 14.738281 365.84375 14.59375 371.796875 14.59375 C 377.75 14.59375 383.699219 14.738281 389.644531 15.03125 C 395.589844 15.324219 401.527344 15.761719 407.449219 16.34375 C 413.375 16.929688 419.28125 17.65625 425.167969 18.53125 C 431.058594 19.402344 436.921875 20.421875 442.761719 21.582031 C 448.597656 22.746094 454.40625 24.046875 460.179688 25.496094 C 465.953125 26.941406 471.691406 28.527344 477.386719 30.257812 C 483.085938 31.984375 488.734375 33.851562 494.339844 35.855469 C 499.945312 37.863281 505.496094 40.003906 510.996094 42.28125 C 516.496094 44.5625 521.9375 46.972656 527.320312 49.515625 C 532.699219 52.0625 538.015625 54.738281 543.265625 57.542969 C 548.515625 60.351562 553.695312 63.285156 558.800781 66.34375 C 563.90625 69.40625 568.933594 72.589844 573.886719 75.898438 C 578.835938 79.203125 583.699219 82.628906 588.480469 86.175781 C 593.261719 89.722656 597.953125 93.382812 602.558594 97.160156 C 607.160156 100.9375 611.664062 104.824219 616.074219 108.824219 C 620.488281 112.820312 624.796875 116.925781 629.007812 121.132812 C 633.214844 125.34375 637.320312 129.652344 641.316406 134.0625 C 645.316406 138.476562 649.203125 142.980469 652.980469 147.582031 C 656.753906 152.183594 660.417969 156.875 663.964844 161.65625 C 667.507812 166.441406 670.9375 171.304688 674.242188 176.253906 C 677.550781 181.203125 680.734375 186.234375 683.796875 191.339844 C 686.855469 196.445312 689.789062 201.621094 692.59375 206.871094 C 695.402344 212.125 698.078125 217.4375 700.621094 222.820312 C 703.167969 228.203125 705.578125 233.640625 707.855469 239.140625 C 710.136719 244.640625 712.277344 250.195312 714.28125 255.800781 C 716.289062 261.40625 718.15625 267.054688 719.882812 272.753906 C 721.613281 278.449219 723.199219 284.183594 724.644531 289.960938 C 726.089844 295.734375 727.394531 301.539062 728.558594 307.378906 C 729.71875 313.21875 730.734375 319.082031 731.609375 324.96875 C 732.484375 330.859375 733.210938 336.765625 733.792969 342.691406 C 734.378906 348.613281 734.816406 354.550781 735.109375 360.496094 C 735.398438 366.441406 735.546875 372.390625 735.546875 378.34375 Z M 735.546875 378.34375 " fill-opacity="1" fill-rule="nonzero"/></g><g clip-path="url(#3308a7a0ae)"><path fill="#000000" d="M 375.171875 742.296875 C 172.347656 742.296875 8.046875 576.863281 8.046875 375.171875 C 8.046875 173.480469 172.347656 8.046875 375.171875 8.046875 C 577.996094 8.046875 742.296875 172.347656 742.296875 375.171875 C 742.296875 577.996094 576.863281 742.296875 375.171875 742.296875 Z M 375.171875 30.707031 C 184.808594 30.707031 30.707031 184.808594 30.707031 375.171875 C 30.707031 565.53125 184.808594 719.632812 375.171875 719.632812 C 565.53125 719.632812 719.632812 565.53125 719.632812 375.171875 C 719.632812 184.808594 564.398438 30.707031 375.171875 30.707031 Z M 375.171875 30.707031 " fill-opacity="1" fill-rule="nonzero"/></g><g clip-path="url(#64b0b849b1)"><path fill="#000000" d="M 655.417969 423.074219 L 655.417969 420.40625 L 659.050781 420.40625 L 643.191406 347.503906 L 658.953125 275.554688 L 655.515625 275.554688 L 655.515625 272.886719 L 659.621094 272.886719 L 661.628906 263.167969 L 88.507812 263.167969 L 90.609375 272.792969 L 94.046875 272.792969 L 94.046875 275.554688 L 91.179688 275.554688 L 106.847656 347.503906 L 90.992188 420.40625 L 94.046875 420.40625 L 94.046875 423.074219 L 90.417969 423.074219 L 88.507812 431.84375 L 661.628906 431.84375 L 659.71875 423.074219 Z M 113.152344 423.074219 L 101.6875 423.074219 L 101.6875 420.40625 L 113.152344 420.40625 Z M 113.152344 275.554688 L 101.6875 275.554688 L 101.6875 272.886719 L 113.152344 272.886719 Z M 132.253906 423.074219 L 120.792969 423.074219 L 120.792969 420.40625 L 132.253906 420.40625 Z M 132.253906 275.554688 L 120.792969 275.554688 L 120.792969 272.886719 L 132.253906 272.886719 Z M 151.261719 423.074219 L 139.800781 423.074219 L 139.800781 420.40625 L 151.261719 420.40625 Z M 151.261719 275.554688 L 139.800781 275.554688 L 139.800781 272.886719 L 151.261719 272.886719 Z M 170.367188 423.074219 L 158.90625 423.074219 L 158.90625 420.40625 L 170.367188 420.40625 Z M 170.367188 275.554688 L 158.90625 275.554688 L 158.90625 272.886719 L 170.367188 272.886719 Z M 189.472656 423.074219 L 178.007812 423.074219 L 178.007812 420.40625 L 189.472656 420.40625 Z M 189.472656 275.554688 L 178.007812 275.554688 L 178.007812 272.886719 L 189.472656 272.886719 Z M 208.574219 423.074219 L 197.113281 423.074219 L 197.113281 420.40625 L 208.574219 420.40625 Z M 208.574219 275.554688 L 197.113281 275.554688 L 197.113281 272.886719 L 208.574219 272.886719 Z M 227.679688 423.074219 L 216.21875 423.074219 L 216.21875 420.40625 L 227.679688 420.40625 Z M 227.679688 275.554688 L 216.21875 275.554688 L 216.21875 272.886719 L 227.679688 272.886719 Z M 246.785156 423.074219 L 235.320312 423.074219 L 235.320312 420.40625 L 246.785156 420.40625 Z M 246.785156 275.554688 L 235.320312 275.554688 L 235.320312 272.886719 L 246.785156 272.886719 Z M 265.886719 423.074219 L 254.425781 423.074219 L 254.425781 420.40625 L 265.886719 420.40625 Z M 265.886719 275.554688 L 254.425781 275.554688 L 254.425781 272.886719 L 265.886719 272.886719 Z M 273.53125 423.074219 L 273.53125 420.40625 L 284.992188 420.40625 L 284.992188 423.074219 Z M 273.53125 275.554688 L 273.53125 272.886719 L 284.992188 272.886719 L 284.992188 275.554688 Z M 304.097656 423.074219 L 292.632812 423.074219 L 292.632812 420.40625 L 304.097656 420.40625 Z M 304.097656 275.554688 L 292.632812 275.554688 L 292.632812 272.886719 L 304.097656 272.886719 Z M 323.199219 423.074219 L 311.738281 423.074219 L 311.738281 420.40625 L 323.199219 420.40625 Z M 323.199219 275.554688 L 311.738281 275.554688 L 311.738281 272.886719 L 323.199219 272.886719 Z M 342.304688 423.074219 L 330.839844 423.074219 L 330.839844 420.40625 L 342.304688 420.40625 Z M 342.304688 275.554688 L 330.839844 275.554688 L 330.839844 272.886719 L 342.304688 272.886719 Z M 361.410156 423.074219 L 349.945312 423.074219 L 349.945312 420.40625 L 361.410156 420.40625 Z M 361.410156 275.554688 L 349.945312 275.554688 L 349.945312 272.886719 L 361.410156 272.886719 Z M 380.511719 423.074219 L 369.050781 423.074219 L 369.050781 420.40625 L 380.511719 420.40625 Z M 380.511719 275.554688 L 369.050781 275.554688 L 369.050781 272.886719 L 380.511719 272.886719 Z M 399.519531 423.074219 L 388.058594 423.074219 L 388.058594 420.40625 L 399.519531 420.40625 Z M 399.519531 275.554688 L 388.058594 275.554688 L 388.058594 272.886719 L 399.519531 272.886719 Z M 418.625 423.074219 L 407.164062 423.074219 L 407.164062 420.40625 L 418.625 420.40625 Z M 418.625 275.554688 L 407.164062 275.554688 L 407.164062 272.886719 L 418.625 272.886719 Z M 437.730469 423.074219 L 426.265625 423.074219 L 426.265625 420.40625 L 437.730469 420.40625 Z M 437.730469 275.554688 L 426.265625 275.554688 L 426.265625 272.886719 L 437.730469 272.886719 Z M 456.832031 423.074219 L 445.371094 423.074219 L 445.371094 420.40625 L 456.832031 420.40625 Z M 456.832031 275.554688 L 445.371094 275.554688 L 445.371094 272.886719 L 456.832031 272.886719 Z M 475.9375 423.074219 L 464.472656 423.074219 L 464.472656 420.40625 L 475.9375 420.40625 Z M 475.9375 275.554688 L 464.472656 275.554688 L 464.472656 272.886719 L 475.9375 272.886719 Z M 495.042969 423.074219 L 483.578125 423.074219 L 483.578125 420.40625 L 495.042969 420.40625 Z M 495.042969 275.554688 L 483.578125 275.554688 L 483.578125 272.886719 L 495.042969 272.886719 Z M 514.144531 423.074219 L 502.683594 423.074219 L 502.683594 420.40625 L 514.144531 420.40625 Z M 514.144531 275.554688 L 502.683594 275.554688 L 502.683594 272.886719 L 514.144531 272.886719 Z M 533.25 423.074219 L 521.785156 423.074219 L 521.785156 420.40625 L 533.25 420.40625 Z M 533.25 275.554688 L 521.785156 275.554688 L 521.785156 272.886719 L 533.25 272.886719 Z M 552.351562 423.074219 L 540.890625 423.074219 L 540.890625 420.40625 L 552.351562 420.40625 Z M 552.351562 275.554688 L 540.890625 275.554688 L 540.890625 272.886719 L 552.351562 272.886719 Z M 571.457031 423.074219 L 559.996094 423.074219 L 559.996094 420.40625 L 571.457031 420.40625 Z M 571.457031 275.554688 L 559.996094 275.554688 L 559.996094 272.886719 L 571.457031 272.886719 Z M 590.5625 423.074219 L 579.097656 423.074219 L 579.097656 420.40625 L 590.5625 420.40625 Z M 590.5625 275.554688 L 579.097656 275.554688 L 579.097656 272.886719 L 590.5625 272.886719 Z M 609.664062 423.074219 L 598.203125 423.074219 L 598.203125 420.40625 L 609.664062 420.40625 Z M 609.664062 275.554688 L 598.203125 275.554688 L 598.203125 272.886719 L 609.664062 272.886719 Z M 636.410156 272.792969 L 647.875 272.792969 L 647.875 275.554688 L 636.410156 275.554688 Z M 628.769531 423.074219 L 617.308594 423.074219 L 617.308594 420.40625 L 628.769531 420.40625 Z M 628.769531 275.554688 L 617.308594 275.554688 L 617.308594 272.886719 L 628.769531 272.886719 Z M 647.875 423.074219 L 636.410156 423.074219 L 636.410156 420.40625 L 647.875 420.40625 Z M 647.875 423.074219 " fill-opacity="1" fill-rule="nonzero"/></g><path fill="#a6a6a6" d="M 292.632812 272.792969 L 304.097656 272.792969 L 304.097656 275.460938 L 292.632812 275.460938 Z M 292.632812 272.792969 " fill-opacity="1" fill-rule="nonzero"/><path fill="#a6a6a6" d="M 273.53125 272.792969 L 284.992188 272.792969 L 284.992188 275.460938 L 273.53125 275.460938 Z M 273.53125 272.792969 " fill-opacity="1" fill-rule="nonzero"/><path fill="#a6a6a6" d="M 235.320312 272.792969 L 246.785156 272.792969 L 246.785156 275.460938 L 235.320312 275.460938 Z M 235.320312 272.792969 " fill-opacity="1" fill-rule="nonzero"/><path fill="#a6a6a6" d="M 273.53125 420.40625 L 284.992188 420.40625 L 284.992188 423.074219 L 273.53125 423.074219 Z M 273.53125 420.40625 " fill-opacity="1" fill-rule="nonzero"/><path fill="#a6a6a6" d="M 254.425781 420.40625 L 265.886719 420.40625 L 265.886719 423.074219 L 254.425781 423.074219 Z M 254.425781 420.40625 " fill-opacity="1" fill-rule="nonzero"/><path fill="#a6a6a6" d="M 254.425781 272.792969 L 265.886719 272.792969 L 265.886719 275.460938 L 254.425781 275.460938 Z M 254.425781 272.792969 " fill-opacity="1" fill-rule="nonzero"/><path fill="#a6a6a6" d="M 292.632812 420.40625 L 304.097656 420.40625 L 304.097656 423.074219 L 292.632812 423.074219 Z M 292.632812 420.40625 " fill-opacity="1" fill-rule="nonzero"/><path fill="#a6a6a6" d="M 349.945312 272.792969 L 361.410156 272.792969 L 361.410156 275.460938 L 349.945312 275.460938 Z M 349.945312 272.792969 " fill-opacity="1" fill-rule="nonzero"/><path fill="#a6a6a6" d="M 369.050781 420.40625 L 380.511719 420.40625 L 380.511719 423.074219 L 369.050781 423.074219 Z M 369.050781 420.40625 " fill-opacity="1" fill-rule="nonzero"/><path fill="#a6a6a6" d="M 311.738281 420.40625 L 323.199219 420.40625 L 323.199219 423.074219 L 311.738281 423.074219 Z M 311.738281 420.40625 " fill-opacity="1" fill-rule="nonzero"/><path fill="#a6a6a6" d="M 349.945312 420.40625 L 361.410156 420.40625 L 361.410156 423.074219 L 349.945312 423.074219 Z M 349.945312 420.40625 " fill-opacity="1" fill-rule="nonzero"/><path fill="#a6a6a6" d="M 330.839844 272.792969 L 342.304688 272.792969 L 342.304688 275.460938 L 330.839844 275.460938 Z M 330.839844 272.792969 " fill-opacity="1" fill-rule="nonzero"/><path fill="#a6a6a6" d="M 311.738281 272.792969 L 323.199219 272.792969 L 323.199219 275.460938 L 311.738281 275.460938 Z M 311.738281 272.792969 " fill-opacity="1" fill-rule="nonzero"/><path fill="#a6a6a6" d="M 330.839844 420.40625 L 342.304688 420.40625 L 342.304688 423.074219 L 330.839844 423.074219 Z M 330.839844 420.40625 " fill-opacity="1" fill-rule="nonzero"/><path fill="#a6a6a6" d="M 235.320312 420.40625 L 246.785156 420.40625 L 246.785156 423.074219 L 235.320312 423.074219 Z M 235.320312 420.40625 " fill-opacity="1" fill-rule="nonzero"/><path fill="#a6a6a6" d="M 158.90625 272.792969 L 170.367188 272.792969 L 170.367188 275.460938 L 158.90625 275.460938 Z M 158.90625 272.792969 " fill-opacity="1" fill-rule="nonzero"/><path fill="#a6a6a6" d="M 158.90625 420.40625 L 170.367188 420.40625 L 170.367188 423.074219 L 158.90625 423.074219 Z M 158.90625 420.40625 " fill-opacity="1" fill-rule="nonzero"/><path fill="#a6a6a6" d="M 139.898438 420.40625 L 151.359375 420.40625 L 151.359375 423.074219 L 139.898438 423.074219 Z M 139.898438 420.40625 " fill-opacity="1" fill-rule="nonzero"/><path fill="#a6a6a6" d="M 139.898438 272.792969 L 151.359375 272.792969 L 151.359375 275.460938 L 139.898438 275.460938 Z M 139.898438 272.792969 " fill-opacity="1" fill-rule="nonzero"/><path fill="#a6a6a6" d="M 120.792969 420.40625 L 132.253906 420.40625 L 132.253906 423.074219 L 120.792969 423.074219 Z M 120.792969 420.40625 " fill-opacity="1" fill-rule="nonzero"/><path fill="#a6a6a6" d="M 120.792969 272.792969 L 132.253906 272.792969 L 132.253906 275.460938 L 120.792969 275.460938 Z M 120.792969 272.792969 " fill-opacity="1" fill-rule="nonzero"/><path fill="#a6a6a6" d="M 178.007812 272.792969 L 189.472656 272.792969 L 189.472656 275.460938 L 178.007812 275.460938 Z M 178.007812 272.792969 " fill-opacity="1" fill-rule="nonzero"/><path fill="#a6a6a6" d="M 216.21875 420.40625 L 227.679688 420.40625 L 227.679688 423.074219 L 216.21875 423.074219 Z M 216.21875 420.40625 " fill-opacity="1" fill-rule="nonzero"/><path fill="#a6a6a6" d="M 178.007812 420.40625 L 189.472656 420.40625 L 189.472656 423.074219 L 178.007812 423.074219 Z M 178.007812 420.40625 " fill-opacity="1" fill-rule="nonzero"/><path fill="#a6a6a6" d="M 197.113281 272.792969 L 208.574219 272.792969 L 208.574219 275.460938 L 197.113281 275.460938 Z M 197.113281 272.792969 " fill-opacity="1" fill-rule="nonzero"/><path fill="#a6a6a6" d="M 216.21875 272.792969 L 227.679688 272.792969 L 227.679688 275.460938 L 216.21875 275.460938 Z M 216.21875 272.792969 " fill-opacity="1" fill-rule="nonzero"/><path fill="#a6a6a6" d="M 197.113281 420.40625 L 208.574219 420.40625 L 208.574219 423.074219 L 197.113281 423.074219 Z M 197.113281 420.40625 " fill-opacity="1" fill-rule="nonzero"/><path fill="#a6a6a6" d="M 369.050781 272.792969 L 380.511719 272.792969 L 380.511719 275.460938 L 369.050781 275.460938 Z M 369.050781 272.792969 " fill-opacity="1" fill-rule="nonzero"/><path fill="#a6a6a6" d="M 579.097656 272.792969 L 590.5625 272.792969 L 590.5625 275.460938 L 579.097656 275.460938 Z M 579.097656 272.792969 " fill-opacity="1" fill-rule="nonzero"/><path fill="#a6a6a6" d="M 540.890625 420.40625 L 552.351562 420.40625 L 552.351562 423.074219 L 540.890625 423.074219 Z M 540.890625 420.40625 " fill-opacity="1" fill-rule="nonzero"/><path fill="#a6a6a6" d="M 540.890625 272.792969 L 552.351562 272.792969 L 552.351562 275.460938 L 540.890625 275.460938 Z M 540.890625 272.792969 " fill-opacity="1" fill-rule="nonzero"/><path fill="#a6a6a6" d="M 521.785156 272.792969 L 533.25 272.792969 L 533.25 275.460938 L 521.785156 275.460938 Z M 521.785156 272.792969 " fill-opacity="1" fill-rule="nonzero"/><path fill="#a6a6a6" d="M 502.683594 272.792969 L 514.144531 272.792969 L 514.144531 275.460938 L 502.683594 275.460938 Z M 502.683594 272.792969 " fill-opacity="1" fill-rule="nonzero"/><path fill="#a6a6a6" d="M 521.785156 420.40625 L 533.25 420.40625 L 533.25 423.074219 L 521.785156 423.074219 Z M 521.785156 420.40625 " fill-opacity="1" fill-rule="nonzero"/><path fill="#a6a6a6" d="M 598.203125 420.40625 L 609.664062 420.40625 L 609.664062 423.074219 L 598.203125 423.074219 Z M 598.203125 420.40625 " fill-opacity="1" fill-rule="nonzero"/><path fill="#a6a6a6" d="M 559.996094 420.40625 L 571.457031 420.40625 L 571.457031 423.074219 L 559.996094 423.074219 Z M 559.996094 420.40625 " fill-opacity="1" fill-rule="nonzero"/><path fill="#a6a6a6" d="M 502.683594 420.40625 L 514.144531 420.40625 L 514.144531 423.074219 L 502.683594 423.074219 Z M 502.683594 420.40625 " fill-opacity="1" fill-rule="nonzero"/><path fill="#a6a6a6" d="M 598.203125 272.792969 L 609.664062 272.792969 L 609.664062 275.460938 L 598.203125 275.460938 Z M 598.203125 272.792969 " fill-opacity="1" fill-rule="nonzero"/><path fill="#a6a6a6" d="M 579.097656 420.40625 L 590.5625 420.40625 L 590.5625 423.074219 L 579.097656 423.074219 Z M 579.097656 420.40625 " fill-opacity="1" fill-rule="nonzero"/><path fill="#a6a6a6" d="M 559.996094 272.792969 L 571.457031 272.792969 L 571.457031 275.460938 L 559.996094 275.460938 Z M 559.996094 272.792969 " fill-opacity="1" fill-rule="nonzero"/><path fill="#a6a6a6" d="M 445.371094 272.792969 L 456.832031 272.792969 L 456.832031 275.460938 L 445.371094 275.460938 Z M 445.371094 272.792969 " fill-opacity="1" fill-rule="nonzero"/><path fill="#a6a6a6" d="M 407.164062 272.792969 L 418.625 272.792969 L 418.625 275.460938 L 407.164062 275.460938 Z M 407.164062 272.792969 " fill-opacity="1" fill-rule="nonzero"/><path fill="#a6a6a6" d="M 426.265625 420.40625 L 437.730469 420.40625 L 437.730469 423.074219 L 426.265625 423.074219 Z M 426.265625 420.40625 " fill-opacity="1" fill-rule="nonzero"/><path fill="#a6a6a6" d="M 388.152344 272.792969 L 399.617188 272.792969 L 399.617188 275.460938 L 388.152344 275.460938 Z M 388.152344 272.792969 " fill-opacity="1" fill-rule="nonzero"/><path fill="#a6a6a6" d="M 407.164062 420.40625 L 418.625 420.40625 L 418.625 423.074219 L 407.164062 423.074219 Z M 407.164062 420.40625 " fill-opacity="1" fill-rule="nonzero"/><path fill="#a6a6a6" d="M 426.265625 272.792969 L 437.730469 272.792969 L 437.730469 275.460938 L 426.265625 275.460938 Z M 426.265625 272.792969 " fill-opacity="1" fill-rule="nonzero"/><path fill="#a6a6a6" d="M 483.578125 272.792969 L 495.042969 272.792969 L 495.042969 275.460938 L 483.578125 275.460938 Z M 483.578125 272.792969 " fill-opacity="1" fill-rule="nonzero"/><path fill="#a6a6a6" d="M 483.578125 420.40625 L 495.042969 420.40625 L 495.042969 423.074219 L 483.578125 423.074219 Z M 483.578125 420.40625 " fill-opacity="1" fill-rule="nonzero"/><path fill="#a6a6a6" d="M 464.472656 272.792969 L 475.9375 272.792969 L 475.9375 275.460938 L 464.472656 275.460938 Z M 464.472656 272.792969 " fill-opacity="1" fill-rule="nonzero"/><path fill="#a6a6a6" d="M 464.472656 420.40625 L 475.9375 420.40625 L 475.9375 423.074219 L 464.472656 423.074219 Z M 464.472656 420.40625 " fill-opacity="1" fill-rule="nonzero"/><path fill="#a6a6a6" d="M 388.152344 420.40625 L 399.617188 420.40625 L 399.617188 423.074219 L 388.152344 423.074219 Z M 388.152344 420.40625 " fill-opacity="1" fill-rule="nonzero"/><path fill="#a6a6a6" d="M 445.371094 420.40625 L 456.832031 420.40625 L 456.832031 423.074219 L 445.371094 423.074219 Z M 445.371094 420.40625 " fill-opacity="1" fill-rule="nonzero"/><path fill="#a6a6a6" d="M 636.410156 272.792969 L 647.875 272.792969 L 647.875 275.460938 L 636.410156 275.460938 Z M 636.410156 272.792969 " fill-opacity="1" fill-rule="nonzero"/><path fill="#a6a6a6" d="M 659.527344 272.792969 L 655.417969 272.792969 L 655.417969 275.554688 L 658.953125 275.554688 Z M 659.527344 272.792969 " fill-opacity="1" fill-rule="nonzero"/><path fill="#a6a6a6" d="M 659.144531 420.40625 L 655.417969 420.40625 L 655.417969 423.074219 L 659.71875 423.074219 Z M 659.144531 420.40625 " fill-opacity="1" fill-rule="nonzero"/><path fill="#a6a6a6" d="M 617.308594 272.792969 L 628.769531 272.792969 L 628.769531 275.460938 L 617.308594 275.460938 Z M 617.308594 272.792969 " fill-opacity="1" fill-rule="nonzero"/><path fill="#a6a6a6" d="M 617.308594 420.40625 L 628.769531 420.40625 L 628.769531 423.074219 L 617.308594 423.074219 Z M 617.308594 420.40625 " fill-opacity="1" fill-rule="nonzero"/><path fill="#a6a6a6" d="M 636.410156 420.40625 L 647.875 420.40625 L 647.875 423.074219 L 636.410156 423.074219 Z M 636.410156 420.40625 " fill-opacity="1" fill-rule="nonzero"/><path fill="#a6a6a6" d="M 90.417969 423.074219 L 94.046875 423.074219 L 94.046875 420.40625 L 90.992188 420.40625 Z M 90.417969 423.074219 " fill-opacity="1" fill-rule="nonzero"/><path fill="#a6a6a6" d="M 91.179688 275.554688 L 94.046875 275.554688 L 94.046875 272.792969 L 90.609375 272.792969 Z M 91.179688 275.554688 " fill-opacity="1" fill-rule="nonzero"/><path fill="#a6a6a6" d="M 101.6875 420.40625 L 113.152344 420.40625 L 113.152344 423.074219 L 101.6875 423.074219 Z M 101.6875 420.40625 " fill-opacity="1" fill-rule="nonzero"/><path fill="#a6a6a6" d="M 101.6875 272.792969 L 113.152344 272.792969 L 113.152344 275.460938 L 101.6875 275.460938 Z M 101.6875 272.792969 " fill-opacity="1" fill-rule="nonzero"/></svg>