<svg xmlns="http://www.w3.org/2000/svg" xmlns:xlink="http://www.w3.org/1999/xlink" width="1000" zoomAndPan="magnify" viewBox="0 0 750 749.999995" height="1000" preserveAspectRatio="xMidYMid meet" version="1.0"><defs><clipPath id="fd97179fb1"><path d="M 19.613281 25.4375 L 730.613281 25.4375 L 730.613281 736.4375 L 19.613281 736.4375 Z M 19.613281 25.4375 " clip-rule="nonzero"/></clipPath><clipPath id="e03d1f608e"><path d="M 16.414062 13.792969 L 733.414062 13.792969 L 733.414062 730.792969 L 16.414062 730.792969 Z M 16.414062 13.792969 " clip-rule="nonzero"/></clipPath><clipPath id="7a1d68eb9c"><path d="M 353 560 L 434 560 L 434 643.355469 L 353 643.355469 Z M 353 560 " clip-rule="nonzero"/></clipPath></defs><g clip-path="url(#fd97179fb1)"><path fill="#f9ed28" d="M 730.613281 380.9375 C 730.613281 386.753906 730.472656 392.570312 730.183594 398.378906 C 729.898438 404.191406 729.472656 409.992188 728.902344 415.78125 C 728.332031 421.570312 727.621094 427.34375 726.765625 433.097656 C 725.914062 438.855469 724.917969 444.585938 723.78125 450.289062 C 722.648438 455.996094 721.375 461.671875 719.960938 467.316406 C 718.546875 472.960938 716.996094 478.566406 715.304688 484.132812 C 713.617188 489.699219 711.792969 495.222656 709.832031 500.699219 C 707.871094 506.179688 705.777344 511.605469 703.550781 516.980469 C 701.328125 522.355469 698.96875 527.671875 696.480469 532.933594 C 693.996094 538.191406 691.378906 543.386719 688.636719 548.519531 C 685.894531 553.648438 683.027344 558.710938 680.035156 563.699219 C 677.046875 568.691406 673.933594 573.605469 670.699219 578.441406 C 667.46875 583.277344 664.121094 588.035156 660.652344 592.707031 C 657.1875 597.378906 653.609375 601.964844 649.917969 606.464844 C 646.226562 610.960938 642.429688 615.363281 638.523438 619.675781 C 634.613281 623.984375 630.605469 628.199219 626.488281 632.3125 C 622.375 636.425781 618.164062 640.4375 613.851562 644.34375 C 609.542969 648.25 605.136719 652.050781 600.640625 655.742188 C 596.144531 659.433594 591.558594 663.011719 586.882812 666.476562 C 582.210938 669.941406 577.457031 673.292969 572.617188 676.523438 C 567.78125 679.757812 562.867188 682.867188 557.878906 685.859375 C 552.886719 688.851562 547.828125 691.714844 542.695312 694.460938 C 537.5625 697.203125 532.367188 699.816406 527.109375 702.304688 C 521.851562 704.792969 516.53125 707.148438 511.15625 709.375 C 505.78125 711.601562 500.355469 713.695312 494.878906 715.65625 C 489.398438 717.613281 483.878906 719.441406 478.308594 721.128906 C 472.742188 722.816406 467.136719 724.367188 461.492188 725.78125 C 455.847656 727.195312 450.175781 728.46875 444.46875 729.605469 C 438.761719 730.742188 433.03125 731.734375 427.277344 732.589844 C 421.519531 733.441406 415.75 734.152344 409.957031 734.722656 C 404.167969 735.292969 398.367188 735.722656 392.558594 736.007812 C 386.746094 736.292969 380.933594 736.4375 375.113281 736.4375 C 369.296875 736.4375 363.480469 736.292969 357.671875 736.007812 C 351.859375 735.722656 346.058594 735.292969 340.269531 734.722656 C 334.480469 734.152344 328.707031 733.441406 322.949219 732.589844 C 317.195312 731.734375 311.464844 730.742188 305.757812 729.605469 C 300.054688 728.46875 294.378906 727.195312 288.734375 725.78125 C 283.089844 724.367188 277.484375 722.816406 271.917969 721.128906 C 266.351562 719.441406 260.828125 717.613281 255.347656 715.65625 C 249.871094 713.695312 244.445312 711.601562 239.070312 709.375 C 233.695312 707.148438 228.378906 704.792969 223.117188 702.304688 C 217.859375 699.816406 212.664062 697.203125 207.53125 694.460938 C 202.402344 691.714844 197.339844 688.851562 192.351562 685.859375 C 187.359375 682.867188 182.445312 679.757812 177.609375 676.523438 C 172.769531 673.292969 168.015625 669.941406 163.34375 666.476562 C 158.667969 663.011719 154.085938 659.433594 149.585938 655.742188 C 145.089844 652.050781 140.683594 648.25 136.375 644.34375 C 132.0625 640.4375 127.851562 636.425781 123.738281 632.3125 C 119.625 628.199219 115.613281 623.984375 111.707031 619.675781 C 107.796875 615.363281 104 610.960938 100.308594 606.464844 C 96.617188 601.964844 93.039062 597.378906 89.574219 592.707031 C 86.109375 588.035156 82.757812 583.277344 79.527344 578.441406 C 76.292969 573.605469 73.183594 568.691406 70.191406 563.699219 C 67.199219 558.710938 64.332031 553.648438 61.589844 548.519531 C 58.847656 543.386719 56.234375 538.191406 53.746094 532.933594 C 51.257812 527.671875 48.902344 522.355469 46.675781 516.980469 C 44.449219 511.605469 42.355469 506.179688 40.394531 500.699219 C 38.433594 495.222656 36.609375 489.699219 34.921875 484.132812 C 33.234375 478.566406 31.679688 472.960938 30.265625 467.316406 C 28.855469 461.671875 27.578125 455.996094 26.445312 450.289062 C 25.308594 444.585938 24.316406 438.855469 23.460938 433.097656 C 22.609375 427.34375 21.894531 421.570312 21.324219 415.78125 C 20.753906 409.992188 20.328125 404.191406 20.042969 398.378906 C 19.757812 392.570312 19.613281 386.753906 19.613281 380.9375 C 19.613281 375.117188 19.757812 369.304688 20.042969 363.492188 C 20.328125 357.683594 20.753906 351.882812 21.324219 346.089844 C 21.894531 340.300781 22.609375 334.527344 23.460938 328.773438 C 24.316406 323.019531 25.308594 317.289062 26.445312 311.582031 C 27.578125 305.875 28.855469 300.199219 30.269531 294.558594 C 31.679688 288.914062 33.234375 283.308594 34.921875 277.738281 C 36.609375 272.171875 38.433594 266.648438 40.394531 261.171875 C 42.355469 255.695312 44.449219 250.265625 46.675781 244.890625 C 48.902344 239.515625 51.257812 234.199219 53.746094 228.941406 C 56.234375 223.679688 58.847656 218.484375 61.589844 213.355469 C 64.332031 208.222656 67.199219 203.164062 70.191406 198.171875 C 73.183594 193.183594 76.292969 188.269531 79.527344 183.429688 C 82.757812 178.59375 86.109375 173.839844 89.574219 169.164062 C 93.039062 164.492188 96.617188 159.90625 100.308594 155.410156 C 104 150.910156 107.796875 146.507812 111.707031 142.195312 C 115.613281 137.886719 119.625 133.671875 123.738281 129.558594 C 127.851562 125.445312 132.0625 121.433594 136.375 117.527344 C 140.683594 113.621094 145.089844 109.820312 149.585938 106.132812 C 154.085938 102.441406 158.667969 98.863281 163.34375 95.394531 C 168.015625 91.929688 172.769531 88.582031 177.609375 85.347656 C 182.445312 82.117188 187.359375 79.003906 192.351562 76.015625 C 197.339844 73.023438 202.402344 70.15625 207.53125 67.414062 C 212.664062 64.671875 217.859375 62.054688 223.117188 59.566406 C 228.378906 57.082031 233.695312 54.722656 239.070312 52.496094 C 244.445312 50.269531 249.871094 48.175781 255.347656 46.21875 C 260.828125 44.257812 266.351562 42.433594 271.917969 40.742188 C 277.484375 39.054688 283.089844 37.503906 288.734375 36.089844 C 294.378906 34.675781 300.054688 33.402344 305.757812 32.265625 C 311.464844 31.132812 317.195312 30.136719 322.949219 29.285156 C 328.707031 28.429688 334.480469 27.71875 340.269531 27.148438 C 346.058594 26.578125 351.859375 26.148438 357.671875 25.863281 C 363.480469 25.578125 369.296875 25.4375 375.113281 25.4375 C 380.933594 25.4375 386.746094 25.578125 392.558594 25.863281 C 398.367188 26.148438 404.167969 26.578125 409.957031 27.148438 C 415.75 27.71875 421.519531 28.429688 427.277344 29.285156 C 433.03125 30.136719 438.761719 31.132812 444.46875 32.265625 C 450.175781 33.402344 455.847656 34.675781 461.492188 36.089844 C 467.136719 37.503906 472.742188 39.054688 478.308594 40.742188 C 483.878906 42.433594 489.398438 44.257812 494.878906 46.21875 C 500.355469 48.175781 505.78125 50.269531 511.15625 52.496094 C 516.53125 54.722656 521.851562 57.082031 527.109375 59.566406 C 532.367188 62.054688 537.5625 64.671875 542.695312 67.414062 C 547.828125 70.15625 552.886719 73.023438 557.878906 76.015625 C 562.867188 79.003906 567.78125 82.117188 572.617188 85.347656 C 577.457031 88.582031 582.210938 91.929688 586.882812 95.394531 C 591.558594 98.863281 596.144531 102.441406 600.640625 106.132812 C 605.136719 109.820312 609.542969 113.621094 613.851562 117.527344 C 618.164062 121.433594 622.375 125.445312 626.488281 129.558594 C 630.605469 133.671875 634.613281 137.886719 638.523438 142.195312 C 642.429688 146.507812 646.226562 150.910156 649.917969 155.410156 C 653.609375 159.90625 657.1875 164.492188 660.652344 169.164062 C 664.121094 173.839844 667.46875 178.59375 670.699219 183.429688 C 673.933594 188.269531 677.046875 193.183594 680.035156 198.171875 C 683.027344 203.164062 685.894531 208.222656 688.636719 213.355469 C 691.378906 218.484375 693.996094 223.679688 696.480469 228.941406 C 698.96875 234.199219 701.328125 239.515625 703.550781 244.890625 C 705.777344 250.265625 707.871094 255.695312 709.832031 261.171875 C 711.792969 266.648438 713.617188 272.171875 715.304688 277.738281 C 716.996094 283.308594 718.546875 288.914062 719.960938 294.558594 C 721.375 300.199219 722.648438 305.875 723.78125 311.582031 C 724.917969 317.289062 725.914062 323.019531 726.765625 328.773438 C 727.621094 334.527344 728.332031 340.300781 728.902344 346.089844 C 729.472656 351.882812 729.898438 357.683594 730.183594 363.492188 C 730.472656 369.304688 730.613281 375.117188 730.613281 380.9375 Z M 730.613281 380.9375 " fill-opacity="1" fill-rule="nonzero"/></g><g clip-path="url(#e03d1f608e)"><path fill="#000000" d="M 374.914062 730.792969 C 176.855469 730.792969 16.414062 569.246094 16.414062 372.292969 C 16.414062 175.335938 176.855469 13.792969 374.914062 13.792969 C 572.976562 13.792969 733.414062 174.230469 733.414062 372.292969 C 733.414062 570.351562 571.867188 730.792969 374.914062 730.792969 Z M 374.914062 35.921875 C 189.027344 35.921875 38.542969 186.402344 38.542969 372.292969 C 38.542969 558.179688 189.027344 708.660156 374.914062 708.660156 C 560.804688 708.660156 711.285156 558.179688 711.285156 372.292969 C 711.285156 186.402344 559.695312 35.921875 374.914062 35.921875 Z M 374.914062 35.921875 " fill-opacity="1" fill-rule="nonzero"/></g><path fill="#000000" d="M 485.851562 152.429688 C 450.148438 128.582031 402.617188 125.863281 362.429688 140.925781 C 322.246094 155.96875 289.339844 187.296875 267.582031 224.332031 C 259.273438 238.46875 252.328125 253.914062 251.214844 270.28125 C 250.097656 286.652344 255.652344 304.160156 268.550781 314.292969 C 281.449219 324.425781 302.109375 324.804688 313.304688 312.839844 C 323.507812 301.90625 323.507812 285.367188 326.472656 270.722656 C 332.976562 238.617188 357.488281 210.808594 388.5 200.359375 C 415.496094 191.257812 451.15625 198.757812 462.015625 225.132812 C 470.683594 246.179688 460.289062 270.746094 444.699219 287.304688 C 429.128906 303.886719 408.824219 315.175781 391.699219 330.136719 C 353.027344 363.96875 332.40625 417.417969 338.339844 468.507812 C 340.84375 489.996094 349.472656 513.046875 368.765625 522.757812 C 398.726562 537.820312 429.71875 512.097656 429.277344 480.917969 C 429.128906 469.710938 423.804688 459.40625 423.40625 448.15625 C 422.753906 429.765625 430.371094 410.761719 439.691406 395.320312 C 453.683594 372.125 473.523438 353.183594 491.597656 333.042969 C 509.691406 312.902344 526.628906 290.421875 532.792969 264.046875 C 542.597656 222.207031 521.535156 176.257812 485.851562 152.429688 Z M 289.339844 309.574219 C 287.78125 309.910156 286.183594 309.339844 284.730469 308.710938 C 272.96875 303.527344 264.761719 291.835938 262.050781 279.257812 C 260.34375 271.355469 260.640625 263.140625 262.300781 255.28125 C 263.3125 250.5625 266.910156 238.257812 271.601562 235.730469 C 274 234.425781 277.238281 234.886719 279.175781 236.828125 C 282.394531 240.050781 281.363281 245.402344 280.1875 249.804688 C 277.683594 259.285156 273.808594 269.101562 274.925781 278.855469 C 276.039062 288.609375 280.773438 298.367188 289.167969 303.421875 C 290.328125 304.117188 291.652344 304.855469 291.945312 306.160156 C 292.285156 307.699219 290.894531 309.238281 289.339844 309.574219 Z M 362.15625 454.773438 C 362.535156 464.167969 363.882812 473.964844 366.933594 482.875 C 369.921875 491.597656 379.894531 506.09375 375.601562 510.621094 C 370.28125 516.269531 358.601562 498.761719 354.183594 489.535156 C 349.765625 480.304688 348.734375 469.816406 348.671875 459.597656 C 348.503906 435.601562 353.195312 411.605469 362.410156 389.460938 C 364.179688 385.226562 367.292969 380.339844 371.835938 380.867188 C 375.519531 381.289062 377.8125 385.417969 377.664062 389.105469 C 377.515625 392.8125 375.644531 396.183594 373.960938 399.492188 C 365.378906 416.472656 361.378906 435.726562 362.15625 454.773438 Z M 362.15625 454.773438 " fill-opacity="1" fill-rule="nonzero"/><g clip-path="url(#7a1d68eb9c)"><path fill="#000000" d="M 388.605469 561.289062 C 363.253906 566.726562 342.78125 609.074219 358.625 630.710938 C 365.039062 639.453125 376.464844 643.351562 387.300781 643.285156 C 403.945312 643.203125 420.585938 634.183594 428.582031 619.605469 C 443.351562 592.703125 421.15625 554.296875 388.605469 561.289062 Z M 374.886719 633.320312 C 374.488281 634.164062 373.332031 634.25 372.425781 634.058594 C 370.804688 633.742188 369.289062 632.964844 368.070312 631.890625 C 366.976562 630.917969 365.460938 629.402344 365.039062 627.96875 C 364.832031 627.234375 364.933594 626.371094 365.480469 625.84375 C 366.175781 625.167969 367.332031 625.273438 368.15625 625.757812 C 368.976562 626.242188 369.5625 627.042969 370.195312 627.78125 C 371.078125 628.8125 372.089844 629.71875 373.203125 630.476562 C 373.6875 630.816406 374.214844 631.152344 374.59375 631.613281 C 374.949219 632.101562 375.140625 632.773438 374.886719 633.320312 Z M 389.972656 581.558594 C 385.261719 585.941406 379.851562 589.523438 375.351562 594.136719 C 370.867188 598.726562 367.230469 604.710938 367.398438 611.160156 C 367.4375 612.886719 367.523438 615.035156 365.988281 615.8125 C 364.789062 616.402344 363.273438 615.644531 362.621094 614.464844 C 361.96875 613.308594 361.96875 611.894531 362.03125 610.546875 C 362.578125 601.089844 366.472656 591.921875 372.613281 584.761719 C 375.265625 581.664062 388.417969 566.789062 392.730469 574.058594 C 394.203125 576.542969 392.097656 579.597656 389.972656 581.558594 Z M 389.972656 581.558594 " fill-opacity="1" fill-rule="nonzero"/></g></svg>