<svg xmlns="http://www.w3.org/2000/svg" xmlns:xlink="http://www.w3.org/1999/xlink" width="1000" zoomAndPan="magnify" viewBox="0 0 750 749.999995" height="1000" preserveAspectRatio="xMidYMid meet" version="1.0"><defs><clipPath id="e71498da53"><path d="M 17.59375 0 L 727.09375 0 L 727.09375 709.5 L 17.59375 709.5 Z M 17.59375 0 " clip-rule="nonzero"/></clipPath><clipPath id="10595f9d7f"><path d="M 19.882812 17.808594 L 735.382812 17.808594 L 735.382812 733.308594 L 19.882812 733.308594 Z M 19.882812 17.808594 " clip-rule="nonzero"/></clipPath><clipPath id="e221fb445e"><path d="M 328.109375 100.199219 L 427.109375 100.199219 L 427.109375 650.699219 L 328.109375 650.699219 Z M 328.109375 100.199219 " clip-rule="nonzero"/></clipPath></defs><g clip-path="url(#e71498da53)"><path fill="#f9ed28" d="M 727.09375 354.75 C 727.09375 360.554688 726.949219 366.359375 726.664062 372.15625 C 726.382812 377.957031 725.953125 383.742188 725.386719 389.523438 C 724.816406 395.300781 724.105469 401.058594 723.253906 406.800781 C 722.402344 412.546875 721.410156 418.265625 720.277344 423.957031 C 719.144531 429.652344 717.871094 435.316406 716.460938 440.945312 C 715.050781 446.578125 713.503906 452.171875 711.816406 457.726562 C 710.132812 463.285156 708.3125 468.796875 706.355469 474.261719 C 704.398438 479.726562 702.3125 485.144531 700.089844 490.507812 C 697.867188 495.871094 695.515625 501.175781 693.035156 506.425781 C 690.550781 511.671875 687.941406 516.859375 685.203125 521.976562 C 682.46875 527.097656 679.605469 532.148438 676.621094 537.128906 C 673.636719 542.109375 670.53125 547.011719 667.308594 551.839844 C 664.082031 556.664062 660.738281 561.410156 657.28125 566.074219 C 653.824219 570.738281 650.25 575.3125 646.570312 579.800781 C 642.886719 584.289062 639.09375 588.683594 635.195312 592.984375 C 631.296875 597.289062 627.292969 601.492188 623.191406 605.597656 C 619.085938 609.703125 614.878906 613.703125 610.578125 617.601562 C 606.277344 621.5 601.882812 625.292969 597.394531 628.976562 C 592.90625 632.660156 588.332031 636.230469 583.667969 639.6875 C 579.003906 643.144531 574.257812 646.488281 569.433594 649.714844 C 564.605469 652.9375 559.699219 656.042969 554.722656 659.027344 C 549.742188 662.015625 544.691406 664.875 539.570312 667.613281 C 534.449219 670.347656 529.265625 672.957031 524.019531 675.441406 C 518.769531 677.921875 513.464844 680.273438 508.101562 682.496094 C 502.734375 684.71875 497.320312 686.808594 491.855469 688.761719 C 486.386719 690.71875 480.878906 692.539062 475.320312 694.222656 C 469.765625 695.910156 464.171875 697.457031 458.539062 698.867188 C 452.910156 700.277344 447.246094 701.550781 441.550781 702.683594 C 435.855469 703.816406 430.140625 704.808594 424.394531 705.660156 C 418.652344 706.511719 412.894531 707.222656 407.113281 707.792969 C 401.335938 708.359375 395.550781 708.789062 389.75 709.074219 C 383.953125 709.359375 378.148438 709.5 372.34375 709.5 C 366.539062 709.5 360.734375 709.359375 354.9375 709.074219 C 349.136719 708.789062 343.347656 708.359375 337.570312 707.792969 C 331.792969 707.222656 326.035156 706.511719 320.289062 705.660156 C 314.546875 704.808594 308.828125 703.816406 303.136719 702.683594 C 297.441406 701.550781 291.777344 700.277344 286.144531 698.867188 C 280.515625 697.457031 274.921875 695.910156 269.363281 694.222656 C 263.808594 692.539062 258.296875 690.71875 252.832031 688.761719 C 247.367188 686.808594 241.949219 684.71875 236.585938 682.496094 C 231.222656 680.273438 225.917969 677.921875 220.667969 675.441406 C 215.417969 672.957031 210.234375 670.347656 205.117188 667.613281 C 199.996094 664.875 194.945312 662.015625 189.964844 659.027344 C 184.984375 656.042969 180.082031 652.9375 175.253906 649.714844 C 170.425781 646.488281 165.683594 643.144531 161.019531 639.6875 C 156.355469 636.230469 151.78125 632.660156 147.292969 628.976562 C 142.804688 625.292969 138.410156 621.5 134.109375 617.601562 C 129.804688 613.703125 125.601562 609.703125 121.496094 605.597656 C 117.390625 601.492188 113.390625 597.289062 109.492188 592.984375 C 105.59375 588.683594 101.800781 584.289062 98.117188 579.800781 C 94.433594 575.3125 90.863281 570.738281 87.40625 566.074219 C 83.945312 561.410156 80.605469 556.664062 77.378906 551.839844 C 74.152344 547.011719 71.050781 542.109375 68.0625 537.128906 C 65.078125 532.148438 62.21875 527.097656 59.480469 521.976562 C 56.746094 516.859375 54.136719 511.671875 51.652344 506.425781 C 49.171875 501.175781 46.820312 495.871094 44.597656 490.507812 C 42.375 485.144531 40.285156 479.726562 38.332031 474.261719 C 36.375 468.796875 34.554688 463.285156 32.867188 457.726562 C 31.183594 452.171875 29.636719 446.578125 28.226562 440.945312 C 26.8125 435.316406 25.542969 429.652344 24.410156 423.957031 C 23.277344 418.265625 22.285156 412.546875 21.433594 406.800781 C 20.582031 401.058594 19.871094 395.300781 19.300781 389.523438 C 18.734375 383.742188 18.304688 377.957031 18.019531 372.15625 C 17.734375 366.359375 17.59375 360.554688 17.59375 354.75 C 17.59375 348.945312 17.734375 343.140625 18.019531 337.34375 C 18.304688 331.542969 18.734375 325.757812 19.300781 319.976562 C 19.871094 314.199219 20.582031 308.441406 21.433594 302.699219 C 22.285156 296.953125 23.277344 291.234375 24.410156 285.542969 C 25.542969 279.847656 26.8125 274.183594 28.226562 268.554688 C 29.636719 262.921875 31.183594 257.328125 32.867188 251.773438 C 34.554688 246.214844 36.375 240.703125 38.332031 235.238281 C 40.285156 229.773438 42.375 224.355469 44.597656 218.992188 C 46.820312 213.628906 49.171875 208.324219 51.652344 203.074219 C 54.136719 197.828125 56.746094 192.640625 59.480469 187.523438 C 62.21875 182.402344 65.078125 177.351562 68.0625 172.371094 C 71.050781 167.390625 74.152344 162.488281 77.378906 157.660156 C 80.605469 152.835938 83.945312 148.089844 87.40625 143.425781 C 90.863281 138.761719 94.433594 134.1875 98.117188 129.699219 C 101.800781 125.210938 105.59375 120.816406 109.492188 116.515625 C 113.390625 112.210938 117.390625 108.007812 121.496094 103.902344 C 125.601562 99.796875 129.804688 95.796875 134.109375 91.898438 C 138.410156 88 142.804688 84.207031 147.292969 80.523438 C 151.78125 76.839844 156.355469 73.269531 161.019531 69.8125 C 165.683594 66.355469 170.425781 63.011719 175.253906 59.785156 C 180.082031 56.5625 184.984375 53.457031 189.964844 50.472656 C 194.945312 47.484375 199.996094 44.625 205.117188 41.886719 C 210.234375 39.152344 215.417969 36.542969 220.667969 34.058594 C 225.917969 31.578125 231.222656 29.226562 236.585938 27.003906 C 241.949219 24.78125 247.367188 22.691406 252.832031 20.738281 C 258.296875 18.78125 263.808594 16.960938 269.363281 15.277344 C 274.921875 13.589844 280.515625 12.042969 286.144531 10.632812 C 291.777344 9.222656 297.441406 7.949219 303.136719 6.816406 C 308.828125 5.683594 314.546875 4.691406 320.289062 3.839844 C 326.035156 2.988281 331.792969 2.277344 337.570312 1.707031 C 343.347656 1.140625 349.136719 0.710938 354.9375 0.425781 C 360.734375 0.140625 366.539062 0 372.34375 0 C 378.148438 0 383.953125 0.140625 389.75 0.425781 C 395.550781 0.710938 401.335938 1.140625 407.113281 1.707031 C 412.894531 2.277344 418.652344 2.988281 424.394531 3.839844 C 430.140625 4.691406 435.855469 5.683594 441.550781 6.816406 C 447.246094 7.949219 452.910156 9.222656 458.539062 10.632812 C 464.171875 12.042969 469.765625 13.589844 475.320312 15.277344 C 480.878906 16.960938 486.386719 18.78125 491.855469 20.738281 C 497.320312 22.691406 502.738281 24.78125 508.101562 27.003906 C 513.464844 29.226562 518.769531 31.578125 524.019531 34.058594 C 529.265625 36.542969 534.453125 39.152344 539.570312 41.886719 C 544.691406 44.625 549.742188 47.484375 554.722656 50.472656 C 559.699219 53.457031 564.605469 56.5625 569.433594 59.785156 C 574.257812 63.011719 579.003906 66.355469 583.667969 69.8125 C 588.332031 73.269531 592.90625 76.839844 597.394531 80.523438 C 601.882812 84.207031 606.277344 88 610.578125 91.898438 C 614.878906 95.796875 619.085938 99.796875 623.191406 103.902344 C 627.292969 108.007812 631.296875 112.210938 635.195312 116.515625 C 639.09375 120.816406 642.886719 125.210938 646.570312 129.699219 C 650.25 134.1875 653.824219 138.761719 657.28125 143.425781 C 660.738281 148.089844 664.082031 152.835938 667.308594 157.660156 C 670.53125 162.488281 673.636719 167.390625 676.621094 172.371094 C 679.605469 177.351562 682.46875 182.402344 685.203125 187.523438 C 687.941406 192.640625 690.550781 197.828125 693.035156 203.074219 C 695.515625 208.324219 697.867188 213.628906 700.089844 218.992188 C 702.3125 224.355469 704.398438 229.773438 706.355469 235.238281 C 708.3125 240.703125 710.132812 246.214844 711.816406 251.773438 C 713.503906 257.328125 715.050781 262.921875 716.460938 268.554688 C 717.871094 274.183594 719.144531 279.847656 720.277344 285.542969 C 721.410156 291.234375 722.402344 296.953125 723.253906 302.699219 C 724.105469 308.441406 724.816406 314.199219 725.386719 319.976562 C 725.953125 325.757812 726.382812 331.542969 726.664062 337.34375 C 726.949219 343.140625 727.09375 348.945312 727.09375 354.75 Z M 727.09375 354.75 " fill-opacity="1" fill-rule="nonzero"/></g><g clip-path="url(#10595f9d7f)"><path fill="#000000" d="M 377.632812 733.308594 C 179.984375 733.308594 19.882812 572.101562 19.882812 375.558594 C 19.882812 179.015625 179.984375 17.808594 377.632812 17.808594 C 575.277344 17.808594 735.382812 177.914062 735.382812 375.558594 C 735.382812 573.203125 574.171875 733.308594 377.632812 733.308594 Z M 377.632812 39.890625 C 192.132812 39.890625 41.964844 190.058594 41.964844 375.558594 C 41.964844 561.058594 192.132812 711.226562 377.632812 711.226562 C 563.132812 711.226562 713.296875 561.058594 713.296875 375.558594 C 713.296875 190.058594 562.027344 39.890625 377.632812 39.890625 Z M 377.632812 39.890625 " fill-opacity="1" fill-rule="nonzero"/></g><path stroke-linecap="butt" transform="matrix(3.613139, 0, 0, 3.616193, 16.296506, 15.097373)" fill-opacity="1" fill="#000000" fill-rule="evenodd" stroke-linejoin="miter" d="M 88.250074 153.300336 L 111.760192 153.300336 L 111.760192 174.000413 L 88.250074 174.000413 Z M 88.250074 153.300336 " stroke="#000000" stroke-width="1" stroke-opacity="1" stroke-miterlimit="22.926001"/><path fill="#000000" d="M 354.484375 511.058594 L 331.757812 227.113281 L 331.757812 108.359375 L 423.460938 108.359375 L 423.460938 227.113281 L 402.433594 511.058594 Z M 354.484375 511.058594 " fill-opacity="1" fill-rule="evenodd"/><g clip-path="url(#e221fb445e)"><path stroke-linecap="butt" transform="matrix(3.613139, 0, 0, 3.616193, 16.296506, 15.097373)" fill="none" stroke-linejoin="miter" d="M 93.599474 137.150106 L 87.309496 58.629593 L 87.309496 25.790108 L 112.689958 25.790108 L 112.689958 58.629593 L 106.870269 137.150106 Z M 93.599474 137.150106 " stroke="#000000" stroke-width="2" stroke-opacity="1" stroke-miterlimit="22.926001"/></g></svg>