<svg xmlns="http://www.w3.org/2000/svg" xmlns:xlink="http://www.w3.org/1999/xlink" width="1000" zoomAndPan="magnify" viewBox="0 0 750 749.999995" height="1000" preserveAspectRatio="xMidYMid meet" version="1.0"><defs><clipPath id="27dfe51402"><path d="M 12.804688 0 L 744.054688 0 L 744.054688 731.25 L 12.804688 731.25 Z M 12.804688 0 " clip-rule="nonzero"/></clipPath><clipPath id="ec1ce9b1ec"><path d="M 6.226562 5.398438 L 743.476562 5.398438 L 743.476562 742.644531 L 6.226562 742.644531 Z M 6.226562 5.398438 " clip-rule="nonzero"/></clipPath><clipPath id="af8f0bdd11"><path d="M 95 79 L 687 79 L 687 672 L 95 672 Z M 95 79 " clip-rule="nonzero"/></clipPath><clipPath id="986fdb6550"><path d="M 381.167969 79.808594 L 686.671875 365.835938 L 400.648438 671.335938 L 95.144531 385.3125 Z M 381.167969 79.808594 " clip-rule="nonzero"/></clipPath><clipPath id="6240aa56ca"><path d="M 381.167969 79.808594 L 686.671875 365.835938 L 400.648438 671.335938 L 95.144531 385.3125 Z M 381.167969 79.808594 " clip-rule="nonzero"/></clipPath><clipPath id="45661ed42c"><path d="M 381.167969 79.808594 L 686.671875 365.835938 L 400.648438 671.335938 L 95.144531 385.3125 Z M 381.167969 79.808594 " clip-rule="nonzero"/></clipPath></defs><g clip-path="url(#27dfe51402)"><path fill="#a61c4a" d="M 744.054688 365.625 C 744.054688 371.609375 743.90625 377.589844 743.613281 383.566406 C 743.320312 389.542969 742.878906 395.507812 742.292969 401.460938 C 741.707031 407.417969 740.976562 413.355469 740.097656 419.273438 C 739.21875 425.191406 738.195312 431.085938 737.03125 436.953125 C 735.863281 442.824219 734.550781 448.660156 733.097656 454.464844 C 731.644531 460.269531 730.046875 466.035156 728.3125 471.761719 C 726.574219 477.488281 724.699219 483.167969 722.683594 488.800781 C 720.664062 494.433594 718.511719 500.015625 716.222656 505.542969 C 713.933594 511.070312 711.507812 516.539062 708.949219 521.949219 C 706.390625 527.359375 703.703125 532.703125 700.882812 537.980469 C 698.0625 543.257812 695.113281 548.460938 692.035156 553.59375 C 688.960938 558.726562 685.761719 563.78125 682.4375 568.753906 C 679.113281 573.730469 675.667969 578.621094 672.101562 583.425781 C 668.539062 588.234375 664.859375 592.949219 661.0625 597.574219 C 657.265625 602.199219 653.359375 606.730469 649.339844 611.164062 C 645.320312 615.597656 641.195312 619.929688 636.964844 624.160156 C 632.734375 628.390625 628.402344 632.515625 623.96875 636.535156 C 619.535156 640.554688 615.003906 644.460938 610.378906 648.257812 C 605.753906 652.054688 601.039062 655.734375 596.230469 659.296875 C 591.425781 662.863281 586.535156 666.304688 581.558594 669.632812 C 576.585938 672.957031 571.53125 676.15625 566.398438 679.230469 C 561.265625 682.308594 556.0625 685.257812 550.785156 688.078125 C 545.507812 690.898438 540.164062 693.585938 534.753906 696.144531 C 529.34375 698.703125 523.875 701.128906 518.347656 703.417969 C 512.820312 705.707031 507.238281 707.859375 501.605469 709.875 C 495.972656 711.894531 490.292969 713.769531 484.566406 715.507812 C 478.839844 717.242188 473.074219 718.839844 467.269531 720.292969 C 461.464844 721.746094 455.628906 723.058594 449.757812 724.222656 C 443.890625 725.390625 437.996094 726.414062 432.078125 727.292969 C 426.160156 728.171875 420.222656 728.902344 414.265625 729.488281 C 408.3125 730.074219 402.347656 730.515625 396.371094 730.808594 C 390.394531 731.101562 384.414062 731.25 378.429688 731.25 C 372.445312 731.25 366.464844 731.101562 360.488281 730.808594 C 354.511719 730.515625 348.546875 730.074219 342.59375 729.488281 C 336.636719 728.902344 330.699219 728.171875 324.78125 727.292969 C 318.863281 726.414062 312.96875 725.390625 307.101562 724.222656 C 301.230469 723.058594 295.394531 721.746094 289.589844 720.292969 C 283.785156 718.839844 278.019531 717.242188 272.292969 715.507812 C 266.570312 713.769531 260.886719 711.894531 255.253906 709.875 C 249.621094 707.859375 244.039062 705.707031 238.511719 703.417969 C 232.984375 701.128906 227.515625 698.703125 222.105469 696.144531 C 216.695312 693.585938 211.351562 690.898438 206.074219 688.078125 C 200.796875 685.257812 195.59375 682.308594 190.460938 679.230469 C 185.328125 676.15625 180.273438 672.957031 175.300781 669.632812 C 170.324219 666.304688 165.433594 662.863281 160.628906 659.296875 C 155.820312 655.734375 151.105469 652.054688 146.480469 648.257812 C 141.855469 644.460938 137.324219 640.554688 132.890625 636.535156 C 128.457031 632.515625 124.125 628.390625 119.894531 624.160156 C 115.664062 619.929688 111.539062 615.597656 107.519531 611.164062 C 103.5 606.730469 99.59375 602.199219 95.796875 597.574219 C 92 592.949219 88.320312 588.234375 84.757812 583.425781 C 81.191406 578.621094 77.75 573.730469 74.421875 568.753906 C 71.097656 563.78125 67.898438 558.726562 64.824219 553.59375 C 61.746094 548.460938 58.796875 543.257812 55.976562 537.980469 C 53.15625 532.703125 50.46875 527.359375 47.910156 521.949219 C 45.351562 516.539062 42.925781 511.070312 40.636719 505.542969 C 38.347656 500.015625 36.195312 494.433594 34.179688 488.800781 C 32.160156 483.167969 30.285156 477.484375 28.546875 471.761719 C 26.8125 466.035156 25.214844 460.269531 23.761719 454.464844 C 22.308594 448.660156 20.996094 442.824219 19.832031 436.953125 C 18.664062 431.085938 17.640625 425.191406 16.761719 419.273438 C 15.882812 413.355469 15.152344 407.417969 14.566406 401.460938 C 13.980469 395.507812 13.539062 389.542969 13.246094 383.566406 C 12.953125 377.589844 12.804688 371.609375 12.804688 365.625 C 12.804688 359.640625 12.953125 353.660156 13.246094 347.683594 C 13.539062 341.707031 13.980469 335.742188 14.566406 329.789062 C 15.152344 323.832031 15.882812 317.894531 16.761719 311.976562 C 17.640625 306.058594 18.664062 300.164062 19.832031 294.296875 C 20.996094 288.425781 22.308594 282.589844 23.761719 276.785156 C 25.214844 270.980469 26.8125 265.214844 28.546875 259.488281 C 30.285156 253.761719 32.160156 248.082031 34.179688 242.449219 C 36.195312 236.816406 38.347656 231.234375 40.636719 225.707031 C 42.925781 220.179688 45.351562 214.710938 47.910156 209.300781 C 50.46875 203.890625 53.15625 198.546875 55.976562 193.269531 C 58.796875 187.992188 61.746094 182.789062 64.824219 177.65625 C 67.898438 172.523438 71.097656 167.46875 74.421875 162.496094 C 77.75 157.519531 81.191406 152.628906 84.757812 147.824219 C 88.320312 143.015625 92 138.300781 95.796875 133.675781 C 99.59375 129.050781 103.5 124.519531 107.519531 120.085938 C 111.539062 115.652344 115.664062 111.320312 119.894531 107.089844 C 124.125 102.859375 128.457031 98.734375 132.890625 94.714844 C 137.324219 90.695312 141.855469 86.789062 146.480469 82.992188 C 151.105469 79.195312 155.820312 75.515625 160.628906 71.953125 C 165.433594 68.386719 170.324219 64.941406 175.300781 61.617188 C 180.273438 58.292969 185.328125 55.09375 190.460938 52.019531 C 195.59375 48.941406 200.796875 45.992188 206.074219 43.171875 C 211.351562 40.351562 216.695312 37.664062 222.105469 35.105469 C 227.515625 32.546875 232.984375 30.121094 238.511719 27.832031 C 244.039062 25.542969 249.621094 23.390625 255.253906 21.371094 C 260.886719 19.355469 266.570312 17.480469 272.292969 15.742188 C 278.019531 14.007812 283.785156 12.410156 289.589844 10.957031 C 295.394531 9.503906 301.230469 8.191406 307.101562 7.027344 C 312.96875 5.859375 318.863281 4.835938 324.78125 3.957031 C 330.699219 3.078125 336.636719 2.347656 342.59375 1.761719 C 348.546875 1.175781 354.511719 0.734375 360.488281 0.441406 C 366.464844 0.148438 372.445312 0 378.429688 0 C 384.414062 0 390.394531 0.148438 396.371094 0.441406 C 402.347656 0.734375 408.3125 1.175781 414.265625 1.761719 C 420.222656 2.347656 426.160156 3.078125 432.078125 3.957031 C 437.996094 4.835938 443.890625 5.859375 449.757812 7.027344 C 455.628906 8.191406 461.464844 9.503906 467.269531 10.957031 C 473.074219 12.410156 478.839844 14.007812 484.566406 15.742188 C 490.292969 17.480469 495.972656 19.355469 501.605469 21.371094 C 507.238281 23.390625 512.820312 25.542969 518.347656 27.832031 C 523.875 30.121094 529.34375 32.546875 534.753906 35.105469 C 540.164062 37.664062 545.507812 40.351562 550.785156 43.171875 C 556.0625 45.992188 561.265625 48.941406 566.398438 52.019531 C 571.53125 55.09375 576.585938 58.292969 581.558594 61.617188 C 586.535156 64.941406 591.425781 68.386719 596.230469 71.953125 C 601.039062 75.515625 605.753906 79.195312 610.378906 82.992188 C 615.003906 86.789062 619.535156 90.695312 623.96875 94.714844 C 628.402344 98.734375 632.734375 102.859375 636.964844 107.089844 C 641.195312 111.320312 645.320312 115.652344 649.339844 120.085938 C 653.359375 124.519531 657.265625 129.050781 661.0625 133.675781 C 664.859375 138.300781 668.539062 143.015625 672.101562 147.824219 C 675.667969 152.628906 679.113281 157.519531 682.4375 162.496094 C 685.761719 167.46875 688.960938 172.523438 692.035156 177.65625 C 695.113281 182.789062 698.0625 187.992188 700.882812 193.269531 C 703.703125 198.546875 706.390625 203.890625 708.949219 209.300781 C 711.507812 214.710938 713.933594 220.179688 716.222656 225.707031 C 718.511719 231.234375 720.664062 236.816406 722.683594 242.449219 C 724.699219 248.082031 726.574219 253.761719 728.3125 259.488281 C 730.046875 265.214844 731.644531 270.980469 733.097656 276.785156 C 734.550781 282.589844 735.863281 288.425781 737.03125 294.296875 C 738.195312 300.164062 739.21875 306.058594 740.097656 311.976562 C 740.976562 317.894531 741.707031 323.832031 742.292969 329.789062 C 742.878906 335.742188 743.320312 341.707031 743.613281 347.683594 C 743.90625 353.660156 744.054688 359.640625 744.054688 365.625 Z M 744.054688 365.625 " fill-opacity="1" fill-rule="nonzero"/></g><g clip-path="url(#ec1ce9b1ec)"><path fill="#000000" d="M 374.851562 742.648438 C 171.195312 742.648438 6.226562 576.539062 6.226562 374.023438 C 6.226562 171.503906 171.195312 5.398438 374.851562 5.398438 C 578.503906 5.398438 743.476562 170.367188 743.476562 374.023438 C 743.476562 577.675781 577.367188 742.648438 374.851562 742.648438 Z M 374.851562 28.152344 C 183.710938 28.152344 28.980469 182.882812 28.980469 374.023438 C 28.980469 565.160156 183.710938 719.890625 374.851562 719.890625 C 565.988281 719.890625 720.71875 565.160156 720.71875 374.023438 C 720.71875 182.882812 564.851562 28.152344 374.851562 28.152344 Z M 374.851562 28.152344 " fill-opacity="1" fill-rule="nonzero"/></g><g clip-path="url(#af8f0bdd11)"><g clip-path="url(#986fdb6550)"><g clip-path="url(#6240aa56ca)"><g clip-path="url(#45661ed42c)"><path stroke-linecap="butt" transform="matrix(1.262932, 1.182408, -1.182408, 1.262932, 381.168968, 79.809861)" fill="none" stroke-linejoin="miter" d="M 0.000248997 120.9011 L 241.90012 120.900367 " stroke="#000000" stroke-width="26" stroke-opacity="1" stroke-miterlimit="10"/><path stroke-linecap="butt" transform="matrix(1.262932, 1.182408, -1.182408, 1.262932, 381.168968, 79.809861)" fill="none" stroke-linejoin="miter" d="M 120.900318 -0.00131115 L 120.899403 241.900103 " stroke="#000000" stroke-width="26" stroke-opacity="1" stroke-miterlimit="10"/></g></g></g></g></svg>