<svg xmlns="http://www.w3.org/2000/svg" xmlns:xlink="http://www.w3.org/1999/xlink" width="15" zoomAndPan="magnify" viewBox="0 0 750 749.999995" height="15" preserveAspectRatio="xMidYMid meet" version="1.0"><defs><clipPath id="810f81d443"><path d="M 4.675781 11.28125 L 738.925781 11.28125 L 738.925781 745.53125 L 4.675781 745.53125 Z M 4.675781 11.28125 " clip-rule="nonzero"/></clipPath><clipPath id="4621bed197"><path d="M 4.675781 4.675781 L 745.675781 4.675781 L 745.675781 745.675781 L 4.675781 745.675781 Z M 4.675781 4.675781 " clip-rule="nonzero"/></clipPath><clipPath id="5ccdac8c9f"><path d="M 326.582031 75.949219 L 429.332031 75.949219 L 429.332031 645.949219 L 326.582031 645.949219 Z M 326.582031 75.949219 " clip-rule="nonzero"/></clipPath></defs><g clip-path="url(#810f81d443)"><path fill="#a61c4a" d="M 738.925781 378.40625 C 738.925781 384.414062 738.777344 390.417969 738.480469 396.421875 C 738.1875 402.421875 737.746094 408.410156 737.15625 414.390625 C 736.566406 420.371094 735.832031 426.332031 734.949219 432.273438 C 734.070312 438.21875 733.042969 444.136719 731.871094 450.027344 C 730.699219 455.921875 729.382812 461.78125 727.921875 467.609375 C 726.460938 473.4375 724.859375 479.226562 723.117188 484.976562 C 721.371094 490.726562 719.488281 496.429688 717.464844 502.085938 C 715.4375 507.742188 713.277344 513.347656 710.976562 518.898438 C 708.679688 524.449219 706.246094 529.941406 703.675781 535.371094 C 701.105469 540.804688 698.40625 546.167969 695.574219 551.46875 C 692.742188 556.765625 689.78125 561.992188 686.691406 567.144531 C 683.605469 572.300781 680.390625 577.375 677.050781 582.371094 C 673.714844 587.367188 670.253906 592.277344 666.675781 597.101562 C 663.097656 601.929688 659.402344 606.664062 655.589844 611.308594 C 651.777344 615.953125 647.855469 620.5 643.820312 624.953125 C 639.785156 629.40625 635.644531 633.753906 631.394531 638.003906 C 627.148438 642.25 622.796875 646.394531 618.34375 650.429688 C 613.894531 654.464844 609.34375 658.386719 604.699219 662.199219 C 600.054688 666.007812 595.320312 669.703125 590.496094 673.285156 C 585.667969 676.863281 580.757812 680.320312 575.761719 683.660156 C 570.765625 686.996094 565.691406 690.210938 560.539062 693.300781 C 555.386719 696.390625 550.160156 699.347656 544.859375 702.183594 C 539.5625 705.015625 534.195312 707.714844 528.765625 710.285156 C 523.332031 712.851562 517.84375 715.285156 512.292969 717.585938 C 506.742188 719.886719 501.136719 722.046875 495.480469 724.070312 C 489.824219 726.09375 484.121094 727.980469 478.371094 729.722656 C 472.621094 731.46875 466.832031 733.070312 461.003906 734.527344 C 455.175781 735.988281 449.3125 737.304688 443.421875 738.476562 C 437.527344 739.648438 431.609375 740.675781 425.667969 741.558594 C 419.722656 742.4375 413.761719 743.175781 407.785156 743.761719 C 401.804688 744.351562 395.8125 744.792969 389.8125 745.089844 C 383.8125 745.382812 377.808594 745.53125 371.800781 745.53125 C 365.789062 745.53125 359.785156 745.382812 353.785156 745.089844 C 347.785156 744.792969 341.792969 744.351562 335.816406 743.761719 C 329.835938 743.175781 323.875 742.4375 317.929688 741.558594 C 311.988281 740.675781 306.070312 739.648438 300.175781 738.476562 C 294.285156 737.304688 288.421875 735.988281 282.59375 734.527344 C 276.765625 733.070312 270.976562 731.46875 265.226562 729.722656 C 259.480469 727.980469 253.773438 726.09375 248.117188 724.070312 C 242.460938 722.046875 236.855469 719.886719 231.304688 717.585938 C 225.753906 715.285156 220.265625 712.851562 214.832031 710.285156 C 209.402344 707.714844 204.035156 705.015625 198.738281 702.183594 C 193.4375 699.347656 188.210938 696.390625 183.058594 693.300781 C 177.90625 690.210938 172.832031 686.996094 167.835938 683.660156 C 162.839844 680.320312 157.929688 676.863281 153.101562 673.285156 C 148.277344 669.703125 143.542969 666.007812 138.898438 662.199219 C 134.253906 658.386719 129.703125 654.464844 125.253906 650.429688 C 120.800781 646.394531 116.449219 642.25 112.203125 638.003906 C 107.953125 633.753906 103.8125 629.40625 99.777344 624.953125 C 95.742188 620.5 91.820312 615.953125 88.007812 611.308594 C 84.195312 606.664062 80.5 601.929688 76.921875 597.101562 C 73.34375 592.277344 69.882812 587.367188 66.546875 582.371094 C 63.207031 577.375 59.996094 572.300781 56.90625 567.144531 C 53.816406 561.992188 50.855469 556.765625 48.023438 551.46875 C 45.191406 546.167969 42.492188 540.804688 39.921875 535.371094 C 37.351562 529.941406 34.917969 524.449219 32.621094 518.898438 C 30.320312 513.347656 28.160156 507.742188 26.132812 502.085938 C 24.109375 496.429688 22.226562 490.726562 20.480469 484.976562 C 18.738281 479.226562 17.136719 473.4375 15.675781 467.609375 C 14.214844 461.78125 12.902344 455.921875 11.726562 450.027344 C 10.554688 444.136719 9.527344 438.21875 8.648438 432.273438 C 7.765625 426.332031 7.03125 420.371094 6.441406 414.390625 C 5.851562 408.410156 5.410156 402.421875 5.117188 396.421875 C 4.820312 390.417969 4.675781 384.414062 4.675781 378.40625 C 4.675781 372.398438 4.820312 366.394531 5.117188 360.390625 C 5.410156 354.390625 5.851562 348.402344 6.441406 342.421875 C 7.03125 336.441406 7.765625 330.480469 8.648438 324.539062 C 9.527344 318.59375 10.554688 312.675781 11.726562 306.785156 C 12.902344 300.890625 14.214844 295.03125 15.675781 289.203125 C 17.136719 283.375 18.738281 277.585938 20.480469 271.835938 C 22.226562 266.085938 24.109375 260.382812 26.132812 254.726562 C 28.160156 249.070312 30.320312 243.464844 32.621094 237.914062 C 34.917969 232.363281 37.351562 226.871094 39.921875 221.441406 C 42.492188 216.007812 45.191406 210.644531 48.023438 205.34375 C 50.855469 200.046875 53.816406 194.820312 56.90625 189.667969 C 59.996094 184.511719 63.207031 179.4375 66.546875 174.441406 C 69.882812 169.445312 73.34375 164.535156 76.921875 159.710938 C 80.5 154.882812 84.195312 150.148438 88.007812 145.503906 C 91.820312 140.859375 95.742188 136.3125 99.777344 131.859375 C 103.8125 127.410156 107.953125 123.058594 112.203125 118.808594 C 116.449219 114.5625 120.800781 110.417969 125.253906 106.382812 C 129.703125 102.351562 134.253906 98.425781 138.898438 94.613281 C 143.542969 90.804688 148.277344 87.109375 153.101562 83.527344 C 157.929688 79.949219 162.839844 76.492188 167.835938 73.152344 C 172.832031 69.816406 177.90625 66.601562 183.058594 63.511719 C 188.210938 60.425781 193.4375 57.464844 198.738281 54.632812 C 204.035156 51.796875 209.402344 49.097656 214.832031 46.53125 C 220.265625 43.960938 225.753906 41.527344 231.304688 39.226562 C 236.855469 36.929688 242.460938 34.765625 248.117188 32.742188 C 253.773438 30.71875 259.480469 28.832031 265.226562 27.089844 C 270.976562 25.34375 276.765625 23.742188 282.59375 22.285156 C 288.421875 20.824219 294.285156 19.507812 300.175781 18.335938 C 306.070312 17.164062 311.988281 16.136719 317.929688 15.253906 C 323.875 14.375 329.835938 13.636719 335.816406 13.050781 C 341.792969 12.460938 347.785156 12.019531 353.785156 11.722656 C 359.785156 11.429688 365.789062 11.28125 371.800781 11.28125 C 377.808594 11.28125 383.8125 11.429688 389.8125 11.722656 C 395.8125 12.019531 401.804688 12.460938 407.785156 13.050781 C 413.761719 13.636719 419.722656 14.375 425.667969 15.253906 C 431.609375 16.136719 437.527344 17.164062 443.421875 18.335938 C 449.3125 19.507812 455.175781 20.824219 461.003906 22.285156 C 466.832031 23.742188 472.621094 25.34375 478.371094 27.089844 C 484.121094 28.832031 489.824219 30.71875 495.480469 32.742188 C 501.136719 34.765625 506.742188 36.929688 512.292969 39.226562 C 517.84375 41.527344 523.332031 43.960938 528.765625 46.53125 C 534.195312 49.097656 539.5625 51.796875 544.859375 54.632812 C 550.160156 57.464844 555.386719 60.425781 560.539062 63.511719 C 565.691406 66.601562 570.765625 69.816406 575.761719 73.152344 C 580.757812 76.492188 585.667969 79.949219 590.496094 83.527344 C 595.320312 87.109375 600.054688 90.804688 604.699219 94.613281 C 609.34375 98.425781 613.894531 102.351562 618.34375 106.382812 C 622.796875 110.417969 627.148438 114.5625 631.394531 118.808594 C 635.644531 123.058594 639.785156 127.410156 643.820312 131.859375 C 647.855469 136.3125 651.777344 140.859375 655.589844 145.503906 C 659.402344 150.148438 663.097656 154.882812 666.675781 159.710938 C 670.253906 164.535156 673.714844 169.445312 677.050781 174.441406 C 680.390625 179.4375 683.605469 184.511719 686.691406 189.667969 C 689.78125 194.820312 692.742188 200.046875 695.574219 205.34375 C 698.40625 210.644531 701.105469 216.007812 703.675781 221.441406 C 706.246094 226.871094 708.679688 232.363281 710.976562 237.914062 C 713.277344 243.464844 715.4375 249.070312 717.464844 254.726562 C 719.488281 260.382812 721.371094 266.085938 723.117188 271.835938 C 724.859375 277.585938 726.460938 283.375 727.921875 289.203125 C 729.382812 295.03125 730.699219 300.890625 731.871094 306.785156 C 733.042969 312.675781 734.070312 318.59375 734.949219 324.539062 C 735.832031 330.480469 736.566406 336.441406 737.15625 342.421875 C 737.746094 348.402344 738.1875 354.390625 738.480469 360.390625 C 738.777344 366.394531 738.925781 372.398438 738.925781 378.40625 Z M 738.925781 378.40625 " fill-opacity="1" fill-rule="nonzero"/></g><g clip-path="url(#4621bed197)"><path fill="#000000" d="M 375.175781 745.675781 C 170.484375 745.675781 4.675781 578.71875 4.675781 375.175781 C 4.675781 171.628906 170.484375 4.675781 375.175781 4.675781 C 579.863281 4.675781 745.675781 170.484375 745.675781 375.175781 C 745.675781 579.863281 578.71875 745.675781 375.175781 745.675781 Z M 375.175781 27.542969 C 183.0625 27.542969 27.542969 183.0625 27.542969 375.175781 C 27.542969 567.285156 183.0625 722.804688 375.175781 722.804688 C 567.285156 722.804688 722.804688 567.285156 722.804688 375.175781 C 722.804688 183.0625 566.140625 27.542969 375.175781 27.542969 Z M 375.175781 27.542969 " fill-opacity="1" fill-rule="nonzero"/></g><path stroke-linecap="butt" transform="matrix(3.75, 0, 0, 3.744252, 2.956379, -12.166862)" fill-opacity="1" fill="#000000" fill-rule="evenodd" stroke-linejoin="miter" d="M 88.250167 153.300322 L 111.759541 153.300322 L 111.759541 173.99976 L 88.250167 173.99976 Z M 88.250167 153.300322 " stroke="#000000" stroke-width="1" stroke-opacity="1" stroke-miterlimit="22.926001"/><path fill="#000000" d="M 353.957031 501.355469 L 330.367188 207.359375 L 330.367188 84.398438 L 425.542969 84.398438 L 425.542969 207.359375 L 403.71875 501.355469 Z M 353.957031 501.355469 " fill-opacity="1" fill-rule="evenodd"/><g clip-path="url(#5ccdac8c9f)"><path stroke-linecap="butt" transform="matrix(3.75, 0, 0, 3.744252, 2.956379, -12.166862)" fill="none" stroke-linejoin="miter" d="M 93.600167 137.149523 L 87.309542 58.630203 L 87.309542 25.79028 L 112.689749 25.79028 L 112.689749 58.630203 L 106.869958 137.149523 Z M 93.600167 137.149523 " stroke="#000000" stroke-width="2" stroke-opacity="1" stroke-miterlimit="22.926001"/></g></svg>