<svg xmlns="http://www.w3.org/2000/svg" xmlns:xlink="http://www.w3.org/1999/xlink" width="15" zoomAndPan="magnify" viewBox="0 0 750 749.999995" height="15" preserveAspectRatio="xMidYMid meet" version="1.0"><defs><clipPath id="a9e4d8f76f"><path d="M 6.117188 6.679688 L 735.867188 6.679688 L 735.867188 736.429688 L 6.117188 736.429688 Z M 6.117188 6.679688 " clip-rule="nonzero"/></clipPath><clipPath id="f5b11878c2"><path d="M 13.355469 6.679688 L 749.855469 6.679688 L 749.855469 743.179688 L 13.355469 743.179688 Z M 13.355469 6.679688 " clip-rule="nonzero"/></clipPath></defs><g clip-path="url(#a9e4d8f76f)"><path fill="#a61c4a" d="M 735.867188 371.554688 C 735.867188 377.523438 735.71875 383.492188 735.425781 389.457031 C 735.132812 395.421875 734.695312 401.375 734.109375 407.316406 C 733.523438 413.261719 732.792969 419.183594 731.917969 425.089844 C 731.039062 431 730.019531 436.878906 728.855469 442.738281 C 727.691406 448.59375 726.382812 454.417969 724.929688 460.210938 C 723.480469 466.003906 721.886719 471.757812 720.15625 477.46875 C 718.421875 483.183594 716.546875 488.851562 714.535156 494.476562 C 712.523438 500.097656 710.375 505.667969 708.089844 511.183594 C 705.804688 516.703125 703.386719 522.160156 700.832031 527.558594 C 698.28125 532.957031 695.597656 538.289062 692.78125 543.554688 C 689.96875 548.820312 687.023438 554.015625 683.953125 559.136719 C 680.882812 564.257812 677.691406 569.300781 674.375 574.265625 C 671.054688 579.230469 667.617188 584.113281 664.0625 588.910156 C 660.503906 593.707031 656.832031 598.410156 653.042969 603.027344 C 649.253906 607.644531 645.355469 612.164062 641.34375 616.589844 C 637.335938 621.011719 633.21875 625.335938 628.996094 629.558594 C 624.773438 633.78125 620.449219 637.898438 616.027344 641.90625 C 611.601562 645.917969 607.082031 649.816406 602.464844 653.605469 C 597.847656 657.394531 593.144531 661.066406 588.347656 664.625 C 583.550781 668.179688 578.667969 671.617188 573.703125 674.933594 C 568.738281 678.253906 563.695312 681.445312 558.574219 684.515625 C 553.453125 687.585938 548.257812 690.527344 542.992188 693.34375 C 537.726562 696.160156 532.394531 698.84375 526.996094 701.394531 C 521.597656 703.949219 516.140625 706.367188 510.621094 708.652344 C 505.105469 710.9375 499.535156 713.085938 493.914062 715.097656 C 488.292969 717.109375 482.621094 718.984375 476.910156 720.714844 C 471.195312 722.449219 465.441406 724.042969 459.648438 725.492188 C 453.855469 726.945312 448.03125 728.25 442.175781 729.417969 C 436.316406 730.582031 430.4375 731.601562 424.527344 732.480469 C 418.621094 733.355469 412.699219 734.085938 406.753906 734.671875 C 400.8125 735.257812 394.859375 735.695312 388.894531 735.988281 C 382.929688 736.28125 376.960938 736.429688 370.992188 736.429688 C 365.019531 736.429688 359.050781 736.28125 353.085938 735.988281 C 347.125 735.695312 341.167969 735.257812 335.226562 734.671875 C 329.285156 734.085938 323.359375 733.355469 317.453125 732.480469 C 311.546875 731.601562 305.664062 730.582031 299.808594 729.417969 C 293.949219 728.25 288.125 726.945312 282.332031 725.492188 C 276.539062 724.042969 270.789062 722.449219 265.074219 720.714844 C 259.359375 718.984375 253.691406 717.109375 248.066406 715.097656 C 242.445312 713.085938 236.875 710.9375 231.359375 708.652344 C 225.84375 706.367188 220.386719 703.949219 214.988281 701.394531 C 209.589844 698.84375 204.257812 696.160156 198.988281 693.34375 C 193.722656 690.527344 188.53125 687.585938 183.40625 684.515625 C 178.285156 681.445312 173.242188 678.253906 168.277344 674.933594 C 163.3125 671.617188 158.429688 668.179688 153.636719 664.625 C 148.839844 661.066406 144.132812 657.394531 139.515625 653.605469 C 134.902344 649.816406 130.378906 645.917969 125.957031 641.90625 C 121.53125 637.898438 117.207031 633.78125 112.984375 629.558594 C 108.761719 625.335938 104.648438 621.011719 100.636719 616.589844 C 96.625 612.164062 92.726562 607.644531 88.9375 603.027344 C 85.152344 598.410156 81.476562 593.703125 77.921875 588.910156 C 74.363281 584.113281 70.925781 579.230469 67.609375 574.265625 C 64.289062 569.300781 61.097656 564.257812 58.027344 559.136719 C 54.957031 554.015625 52.015625 548.820312 49.199219 543.554688 C 46.386719 538.289062 43.699219 532.957031 41.148438 527.558594 C 38.59375 522.160156 36.175781 516.703125 33.890625 511.183594 C 31.605469 505.667969 29.457031 500.097656 27.445312 494.476562 C 25.433594 488.851562 23.5625 483.183594 21.828125 477.46875 C 20.09375 471.757812 18.5 466.003906 17.050781 460.210938 C 15.601562 454.417969 14.292969 448.59375 13.125 442.738281 C 11.960938 436.878906 10.941406 431 10.066406 425.089844 C 9.1875 419.183594 8.457031 413.257812 7.871094 407.316406 C 7.289062 401.375 6.847656 395.421875 6.554688 389.457031 C 6.261719 383.492188 6.117188 377.523438 6.117188 371.554688 C 6.117188 365.582031 6.261719 359.613281 6.554688 353.648438 C 6.847656 347.683594 7.289062 341.730469 7.871094 335.789062 C 8.457031 329.847656 9.1875 323.921875 10.066406 318.015625 C 10.941406 312.109375 11.960938 306.226562 13.125 300.371094 C 14.292969 294.511719 15.601562 288.6875 17.050781 282.894531 C 18.5 277.101562 20.09375 271.351562 21.828125 265.636719 C 23.5625 259.921875 25.433594 254.253906 27.445312 248.628906 C 29.457031 243.007812 31.605469 237.4375 33.890625 231.921875 C 36.175781 226.40625 38.59375 220.945312 41.148438 215.550781 C 43.699219 210.152344 46.386719 204.820312 49.199219 199.550781 C 52.015625 194.285156 54.957031 189.089844 58.027344 183.96875 C 61.097656 178.847656 64.289062 173.804688 67.609375 168.839844 C 70.925781 163.875 74.363281 158.992188 77.921875 154.199219 C 81.476562 149.402344 85.152344 144.695312 88.9375 140.078125 C 92.726562 135.460938 96.625 130.941406 100.636719 126.519531 C 104.648438 122.09375 108.761719 117.769531 112.984375 113.546875 C 117.207031 109.324219 121.53125 105.207031 125.957031 101.199219 C 130.378906 97.1875 134.902344 93.289062 139.515625 89.5 C 144.132812 85.710938 148.839844 82.039062 153.636719 78.484375 C 158.429688 74.925781 163.3125 71.488281 168.277344 68.171875 C 173.242188 64.851562 178.285156 61.660156 183.40625 58.589844 C 188.53125 55.519531 193.722656 52.578125 198.988281 49.761719 C 204.257812 46.945312 209.589844 44.261719 214.988281 41.710938 C 220.386719 39.15625 225.84375 36.738281 231.359375 34.453125 C 236.875 32.167969 242.445312 30.019531 248.066406 28.007812 C 253.691406 25.996094 259.359375 24.121094 265.074219 22.390625 C 270.789062 20.65625 276.539062 19.0625 282.332031 17.613281 C 288.125 16.160156 293.949219 14.855469 299.808594 13.6875 C 305.664062 12.523438 311.546875 11.503906 317.453125 10.628906 C 323.359375 9.75 329.285156 9.019531 335.226562 8.433594 C 341.167969 7.851562 347.125 7.410156 353.085938 7.117188 C 359.050781 6.824219 365.019531 6.679688 370.992188 6.679688 C 376.960938 6.679688 382.929688 6.824219 388.894531 7.117188 C 394.859375 7.410156 400.8125 7.851562 406.753906 8.433594 C 412.699219 9.019531 418.621094 9.75 424.527344 10.628906 C 430.4375 11.503906 436.316406 12.523438 442.175781 13.6875 C 448.03125 14.855469 453.855469 16.160156 459.648438 17.613281 C 465.441406 19.0625 471.195312 20.65625 476.910156 22.390625 C 482.621094 24.121094 488.292969 25.996094 493.914062 28.007812 C 499.535156 30.019531 505.105469 32.167969 510.621094 34.453125 C 516.140625 36.738281 521.597656 39.15625 526.996094 41.710938 C 532.394531 44.261719 537.726562 46.945312 542.992188 49.761719 C 548.257812 52.578125 553.453125 55.519531 558.574219 58.589844 C 563.695312 61.660156 568.738281 64.851562 573.703125 68.171875 C 578.667969 71.488281 583.550781 74.925781 588.347656 78.484375 C 593.144531 82.039062 597.847656 85.710938 602.464844 89.5 C 607.082031 93.289062 611.601562 97.1875 616.027344 101.199219 C 620.449219 105.207031 624.773438 109.324219 628.996094 113.546875 C 633.21875 117.769531 637.335938 122.09375 641.34375 126.519531 C 645.355469 130.941406 649.253906 135.460938 653.042969 140.078125 C 656.832031 144.695312 660.503906 149.402344 664.0625 154.199219 C 667.617188 158.992188 671.054688 163.875 674.375 168.839844 C 677.691406 173.804688 680.882812 178.847656 683.953125 183.96875 C 687.023438 189.089844 689.96875 194.285156 692.78125 199.550781 C 695.597656 204.820312 698.28125 210.152344 700.832031 215.550781 C 703.386719 220.945312 705.804688 226.40625 708.089844 231.921875 C 710.375 237.4375 712.523438 243.007812 714.535156 248.628906 C 716.546875 254.253906 718.421875 259.921875 720.15625 265.636719 C 721.886719 271.351562 723.480469 277.101562 724.929688 282.894531 C 726.382812 288.6875 727.691406 294.511719 728.855469 300.371094 C 730.019531 306.226562 731.039062 312.109375 731.917969 318.015625 C 732.792969 323.921875 733.523438 329.847656 734.109375 335.789062 C 734.695312 341.730469 735.132812 347.683594 735.425781 353.648438 C 735.71875 359.613281 735.867188 365.582031 735.867188 371.554688 Z M 735.867188 371.554688 " fill-opacity="1" fill-rule="nonzero"/></g><g clip-path="url(#f5b11878c2)"><path fill="#000000" d="M 381.605469 743.179688 C 178.160156 743.179688 13.355469 577.238281 13.355469 374.929688 C 13.355469 172.617188 178.160156 6.679688 381.605469 6.679688 C 585.054688 6.679688 749.855469 171.480469 749.855469 374.929688 C 749.855469 578.375 583.917969 743.179688 381.605469 743.179688 Z M 381.605469 29.410156 C 190.660156 29.410156 36.085938 183.984375 36.085938 374.929688 C 36.085938 565.871094 190.660156 720.445312 381.605469 720.445312 C 572.550781 720.445312 727.125 565.871094 727.125 374.929688 C 727.125 183.984375 571.414062 29.410156 381.605469 29.410156 Z M 381.605469 29.410156 " fill-opacity="1" fill-rule="nonzero"/></g></svg>