<svg xmlns="http://www.w3.org/2000/svg" xmlns:xlink="http://www.w3.org/1999/xlink" width="1000" zoomAndPan="magnify" viewBox="0 0 750 749.999995" height="1000" preserveAspectRatio="xMidYMid meet" version="1.0"><defs><clipPath id="9174f3fcf2"><path d="M 15.257812 8.722656 L 741.257812 8.722656 L 741.257812 734.722656 L 15.257812 734.722656 Z M 15.257812 8.722656 " clip-rule="nonzero"/></clipPath><clipPath id="f22e7b00c7"><path d="M 8.722656 8.722656 L 741.472656 8.722656 L 741.472656 741.472656 L 8.722656 741.472656 Z M 8.722656 8.722656 " clip-rule="nonzero"/></clipPath><clipPath id="ffa83e41fa"><path d="M 85.453125 270.773438 L 657.703125 270.773438 L 657.703125 440 L 85.453125 440 Z M 85.453125 270.773438 " clip-rule="nonzero"/></clipPath></defs><g clip-path="url(#9174f3fcf2)"><path fill="#a61c4a" d="M 741.257812 371.722656 C 741.257812 377.660156 741.109375 383.597656 740.820312 389.53125 C 740.527344 395.464844 740.089844 401.390625 739.507812 407.300781 C 738.925781 413.214844 738.199219 419.109375 737.328125 424.984375 C 736.457031 430.859375 735.441406 436.710938 734.28125 442.539062 C 733.121094 448.363281 731.820312 454.160156 730.378906 459.921875 C 728.933594 465.683594 727.351562 471.410156 725.625 477.09375 C 723.902344 482.777344 722.039062 488.417969 720.035156 494.011719 C 718.035156 499.605469 715.898438 505.144531 713.625 510.636719 C 711.351562 516.125 708.945312 521.554688 706.402344 526.921875 C 703.863281 532.292969 701.195312 537.597656 698.394531 542.835938 C 695.59375 548.078125 692.664062 553.246094 689.613281 558.339844 C 686.558594 563.4375 683.378906 568.453125 680.078125 573.394531 C 676.777344 578.332031 673.359375 583.1875 669.820312 587.960938 C 666.28125 592.730469 662.628906 597.414062 658.859375 602.003906 C 655.089844 606.597656 651.210938 611.09375 647.222656 615.496094 C 643.230469 619.898438 639.136719 624.199219 634.9375 628.402344 C 630.734375 632.601562 626.433594 636.695312 622.03125 640.6875 C 617.628906 644.675781 613.132812 648.554688 608.539062 652.324219 C 603.949219 656.09375 599.265625 659.746094 594.496094 663.285156 C 589.722656 666.824219 584.867188 670.242188 579.929688 673.542969 C 574.988281 676.84375 569.972656 680.023438 564.875 683.078125 C 559.78125 686.128906 554.613281 689.058594 549.371094 691.859375 C 544.132812 694.660156 538.828125 697.328125 533.457031 699.867188 C 528.089844 702.410156 522.660156 704.816406 517.171875 707.089844 C 511.679688 709.363281 506.140625 711.5 500.546875 713.5 C 494.953125 715.503906 489.3125 717.367188 483.628906 719.089844 C 477.945312 720.816406 472.21875 722.398438 466.457031 723.84375 C 460.695312 725.285156 454.898438 726.585938 449.074219 727.746094 C 443.246094 728.90625 437.394531 729.921875 431.519531 730.792969 C 425.644531 731.664062 419.75 732.390625 413.835938 732.972656 C 407.925781 733.554688 402 733.992188 396.066406 734.285156 C 390.132812 734.574219 384.195312 734.722656 378.257812 734.722656 C 372.316406 734.722656 366.378906 734.574219 360.445312 734.285156 C 354.511719 733.992188 348.589844 733.554688 342.675781 732.972656 C 336.761719 732.390625 330.871094 731.664062 324.992188 730.792969 C 319.117188 729.921875 313.265625 728.90625 307.4375 727.746094 C 301.613281 726.585938 295.816406 725.285156 290.054688 723.84375 C 284.292969 722.398438 278.566406 720.816406 272.882812 719.089844 C 267.199219 717.367188 261.558594 715.503906 255.964844 713.5 C 250.371094 711.5 244.832031 709.363281 239.34375 707.089844 C 233.851562 704.816406 228.421875 702.410156 223.054688 699.867188 C 217.683594 697.328125 212.378906 694.660156 207.140625 691.859375 C 201.898438 689.058594 196.730469 686.128906 191.636719 683.078125 C 186.542969 680.023438 181.523438 676.84375 176.582031 673.542969 C 171.644531 670.242188 166.789062 666.824219 162.015625 663.285156 C 157.246094 659.746094 152.5625 656.09375 147.972656 652.324219 C 143.378906 648.554688 138.882812 644.675781 134.480469 640.6875 C 130.078125 636.695312 125.777344 632.601562 121.578125 628.402344 C 117.375 624.199219 113.28125 619.898438 109.289062 615.496094 C 105.300781 611.09375 101.421875 606.597656 97.652344 602.003906 C 93.882812 597.414062 90.230469 592.730469 86.691406 587.960938 C 83.152344 583.1875 79.734375 578.332031 76.433594 573.394531 C 73.132812 568.453125 69.953125 563.4375 66.902344 558.339844 C 63.847656 553.246094 60.917969 548.078125 58.117188 542.835938 C 55.316406 537.597656 52.648438 532.292969 50.109375 526.921875 C 47.566406 521.554688 45.160156 516.125 42.886719 510.636719 C 40.613281 505.144531 38.476562 499.605469 36.476562 494.011719 C 34.472656 488.417969 32.609375 482.777344 30.886719 477.09375 C 29.164062 471.410156 27.578125 465.683594 26.132812 459.921875 C 24.691406 454.160156 23.390625 448.363281 22.230469 442.539062 C 21.070312 436.710938 20.054688 430.859375 19.183594 424.984375 C 18.3125 419.109375 17.585938 413.214844 17.003906 407.300781 C 16.421875 401.390625 15.984375 395.464844 15.691406 389.53125 C 15.402344 383.597656 15.257812 377.660156 15.257812 371.722656 C 15.257812 365.78125 15.402344 359.84375 15.691406 353.910156 C 15.984375 347.976562 16.421875 342.054688 17.003906 336.140625 C 17.585938 330.226562 18.3125 324.335938 19.183594 318.457031 C 20.054688 312.582031 21.070312 306.730469 22.230469 300.902344 C 23.390625 295.078125 24.691406 289.28125 26.132812 283.519531 C 27.578125 277.757812 29.164062 272.03125 30.886719 266.347656 C 32.609375 260.664062 34.472656 255.023438 36.476562 249.429688 C 38.476562 243.835938 40.613281 238.296875 42.886719 232.808594 C 45.160156 227.316406 47.566406 221.890625 50.109375 216.519531 C 52.648438 211.148438 55.316406 205.84375 58.117188 200.605469 C 60.917969 195.363281 63.847656 190.195312 66.902344 185.101562 C 69.953125 180.007812 73.132812 174.988281 76.433594 170.050781 C 79.734375 165.109375 83.152344 160.253906 86.691406 155.480469 C 90.230469 150.710938 93.882812 146.027344 97.652344 141.4375 C 101.421875 136.84375 105.300781 132.347656 109.289062 127.945312 C 113.28125 123.542969 117.375 119.242188 121.578125 115.042969 C 125.777344 110.839844 130.078125 106.746094 134.480469 102.753906 C 138.882812 98.765625 143.378906 94.886719 147.972656 91.117188 C 152.5625 87.347656 157.246094 83.695312 162.015625 80.15625 C 166.789062 76.617188 171.644531 73.199219 176.582031 69.898438 C 181.523438 66.597656 186.542969 63.417969 191.636719 60.367188 C 196.730469 57.3125 201.898438 54.382812 207.140625 51.582031 C 212.378906 48.78125 217.683594 46.113281 223.054688 43.574219 C 228.421875 41.03125 233.851562 38.625 239.34375 36.351562 C 244.832031 34.078125 250.371094 31.941406 255.964844 29.941406 C 261.558594 27.9375 267.199219 26.074219 272.882812 24.351562 C 278.566406 22.628906 284.292969 21.042969 290.054688 19.597656 C 295.816406 18.15625 301.613281 16.855469 307.4375 15.695312 C 313.265625 14.535156 319.117188 13.523438 324.992188 12.648438 C 330.871094 11.777344 336.761719 11.050781 342.675781 10.46875 C 348.589844 9.886719 354.511719 9.449219 360.445312 9.15625 C 366.378906 8.867188 372.316406 8.722656 378.257812 8.722656 C 384.195312 8.722656 390.132812 8.867188 396.066406 9.15625 C 402 9.449219 407.925781 9.886719 413.835938 10.46875 C 419.75 11.050781 425.644531 11.777344 431.519531 12.648438 C 437.394531 13.523438 443.246094 14.535156 449.074219 15.695312 C 454.898438 16.855469 460.695312 18.15625 466.457031 19.597656 C 472.21875 21.042969 477.945312 22.628906 483.628906 24.351562 C 489.3125 26.074219 494.953125 27.9375 500.546875 29.941406 C 506.140625 31.941406 511.679688 34.078125 517.171875 36.351562 C 522.660156 38.625 528.089844 41.03125 533.457031 43.574219 C 538.828125 46.113281 544.132812 48.78125 549.375 51.582031 C 554.613281 54.382812 559.78125 57.3125 564.875 60.367188 C 569.972656 63.417969 574.988281 66.597656 579.929688 69.898438 C 584.867188 73.199219 589.722656 76.617188 594.496094 80.15625 C 599.265625 83.695312 603.949219 87.347656 608.539062 91.117188 C 613.132812 94.886719 617.628906 98.765625 622.03125 102.753906 C 626.433594 106.746094 630.734375 110.839844 634.9375 115.042969 C 639.136719 119.242188 643.230469 123.542969 647.222656 127.945312 C 651.210938 132.347656 655.089844 136.84375 658.859375 141.4375 C 662.628906 146.027344 666.28125 150.710938 669.820312 155.480469 C 673.359375 160.253906 676.777344 165.109375 680.078125 170.050781 C 683.378906 174.988281 686.558594 180.007812 689.613281 185.101562 C 692.664062 190.195312 695.59375 195.363281 698.394531 200.605469 C 701.195312 205.84375 703.863281 211.148438 706.402344 216.519531 C 708.945312 221.890625 711.351562 227.316406 713.625 232.808594 C 715.898438 238.296875 718.035156 243.835938 720.035156 249.429688 C 722.039062 255.023438 723.902344 260.664062 725.625 266.347656 C 727.351562 272.03125 728.933594 277.757812 730.378906 283.519531 C 731.820312 289.28125 733.121094 295.078125 734.28125 300.902344 C 735.441406 306.730469 736.457031 312.582031 737.328125 318.457031 C 738.199219 324.335938 738.925781 330.226562 739.507812 336.140625 C 740.089844 342.054688 740.527344 347.976562 740.820312 353.910156 C 741.109375 359.84375 741.257812 365.78125 741.257812 371.722656 Z M 741.257812 371.722656 " fill-opacity="1" fill-rule="nonzero"/></g><g clip-path="url(#f22e7b00c7)"><path fill="#000000" d="M 375.097656 741.472656 C 172.683594 741.472656 8.722656 576.375 8.722656 375.097656 C 8.722656 173.816406 172.683594 8.722656 375.097656 8.722656 C 577.507812 8.722656 741.472656 172.683594 741.472656 375.097656 C 741.472656 577.507812 576.375 741.472656 375.097656 741.472656 Z M 375.097656 31.335938 C 185.125 31.335938 31.335938 185.125 31.335938 375.097656 C 31.335938 565.066406 185.125 718.855469 375.097656 718.855469 C 565.066406 718.855469 718.855469 565.066406 718.855469 375.097656 C 718.855469 185.125 563.9375 31.335938 375.097656 31.335938 Z M 375.097656 31.335938 " fill-opacity="1" fill-rule="nonzero"/></g><g clip-path="url(#ffa83e41fa)"><path fill="#000000" d="M 651.183594 430.679688 L 651.183594 428.011719 L 654.800781 428.011719 L 638.988281 355.109375 L 654.707031 283.160156 L 651.277344 283.160156 L 651.277344 280.492188 L 655.375 280.492188 L 657.375 270.773438 L 85.78125 270.773438 L 87.875 280.398438 L 91.304688 280.398438 L 91.304688 283.160156 L 88.449219 283.160156 L 104.070312 355.109375 L 88.257812 428.011719 L 91.304688 428.011719 L 91.304688 430.679688 L 87.6875 430.679688 L 85.78125 439.449219 L 657.375 439.449219 L 655.46875 430.679688 Z M 110.359375 430.679688 L 98.925781 430.679688 L 98.925781 428.011719 L 110.359375 428.011719 Z M 110.359375 283.160156 L 98.925781 283.160156 L 98.925781 280.492188 L 110.359375 280.492188 Z M 129.410156 430.679688 L 117.980469 430.679688 L 117.980469 428.011719 L 129.410156 428.011719 Z M 129.410156 283.160156 L 117.980469 283.160156 L 117.980469 280.492188 L 129.410156 280.492188 Z M 148.371094 430.679688 L 136.9375 430.679688 L 136.9375 428.011719 L 148.371094 428.011719 Z M 148.371094 283.160156 L 136.9375 283.160156 L 136.9375 280.492188 L 148.371094 280.492188 Z M 167.421875 430.679688 L 155.992188 430.679688 L 155.992188 428.011719 L 167.421875 428.011719 Z M 167.421875 283.160156 L 155.992188 283.160156 L 155.992188 280.492188 L 167.421875 280.492188 Z M 186.476562 430.679688 L 175.042969 430.679688 L 175.042969 428.011719 L 186.476562 428.011719 Z M 186.476562 283.160156 L 175.042969 283.160156 L 175.042969 280.492188 L 186.476562 280.492188 Z M 205.527344 430.679688 L 194.097656 430.679688 L 194.097656 428.011719 L 205.527344 428.011719 Z M 205.527344 283.160156 L 194.097656 283.160156 L 194.097656 280.492188 L 205.527344 280.492188 Z M 224.582031 430.679688 L 213.152344 430.679688 L 213.152344 428.011719 L 224.582031 428.011719 Z M 224.582031 283.160156 L 213.152344 283.160156 L 213.152344 280.492188 L 224.582031 280.492188 Z M 243.636719 430.679688 L 232.203125 430.679688 L 232.203125 428.011719 L 243.636719 428.011719 Z M 243.636719 283.160156 L 232.203125 283.160156 L 232.203125 280.492188 L 243.636719 280.492188 Z M 262.6875 430.679688 L 251.257812 430.679688 L 251.257812 428.011719 L 262.6875 428.011719 Z M 262.6875 283.160156 L 251.257812 283.160156 L 251.257812 280.492188 L 262.6875 280.492188 Z M 270.308594 430.679688 L 270.308594 428.011719 L 281.742188 428.011719 L 281.742188 430.679688 Z M 270.308594 283.160156 L 270.308594 280.492188 L 281.742188 280.492188 L 281.742188 283.160156 Z M 300.792969 430.679688 L 289.363281 430.679688 L 289.363281 428.011719 L 300.792969 428.011719 Z M 300.792969 283.160156 L 289.363281 283.160156 L 289.363281 280.492188 L 300.792969 280.492188 Z M 319.847656 430.679688 L 308.417969 430.679688 L 308.417969 428.011719 L 319.847656 428.011719 Z M 319.847656 283.160156 L 308.417969 283.160156 L 308.417969 280.492188 L 319.847656 280.492188 Z M 338.902344 430.679688 L 327.46875 430.679688 L 327.46875 428.011719 L 338.902344 428.011719 Z M 338.902344 283.160156 L 327.46875 283.160156 L 327.46875 280.492188 L 338.902344 280.492188 Z M 357.953125 430.679688 L 346.523438 430.679688 L 346.523438 428.011719 L 357.953125 428.011719 Z M 357.953125 283.160156 L 346.523438 283.160156 L 346.523438 280.492188 L 357.953125 280.492188 Z M 377.007812 430.679688 L 365.574219 430.679688 L 365.574219 428.011719 L 377.007812 428.011719 Z M 377.007812 283.160156 L 365.574219 283.160156 L 365.574219 280.492188 L 377.007812 280.492188 Z M 395.964844 430.679688 L 384.535156 430.679688 L 384.535156 428.011719 L 395.964844 428.011719 Z M 395.964844 283.160156 L 384.535156 283.160156 L 384.535156 280.492188 L 395.964844 280.492188 Z M 415.019531 430.679688 L 403.585938 430.679688 L 403.585938 428.011719 L 415.019531 428.011719 Z M 415.019531 283.160156 L 403.585938 283.160156 L 403.585938 280.492188 L 415.019531 280.492188 Z M 434.070312 430.679688 L 422.640625 430.679688 L 422.640625 428.011719 L 434.070312 428.011719 Z M 434.070312 283.160156 L 422.640625 283.160156 L 422.640625 280.492188 L 434.070312 280.492188 Z M 453.125 430.679688 L 441.691406 430.679688 L 441.691406 428.011719 L 453.125 428.011719 Z M 453.125 283.160156 L 441.691406 283.160156 L 441.691406 280.492188 L 453.125 280.492188 Z M 472.175781 430.679688 L 460.746094 430.679688 L 460.746094 428.011719 L 472.175781 428.011719 Z M 472.175781 283.160156 L 460.746094 283.160156 L 460.746094 280.492188 L 472.175781 280.492188 Z M 491.230469 430.679688 L 479.800781 430.679688 L 479.800781 428.011719 L 491.230469 428.011719 Z M 491.230469 283.160156 L 479.800781 283.160156 L 479.800781 280.492188 L 491.230469 280.492188 Z M 510.285156 430.679688 L 498.851562 430.679688 L 498.851562 428.011719 L 510.285156 428.011719 Z M 510.285156 283.160156 L 498.851562 283.160156 L 498.851562 280.492188 L 510.285156 280.492188 Z M 529.335938 430.679688 L 517.90625 430.679688 L 517.90625 428.011719 L 529.335938 428.011719 Z M 529.335938 283.160156 L 517.90625 283.160156 L 517.90625 280.492188 L 529.335938 280.492188 Z M 548.390625 430.679688 L 536.957031 430.679688 L 536.957031 428.011719 L 548.390625 428.011719 Z M 548.390625 283.160156 L 536.957031 283.160156 L 536.957031 280.492188 L 548.390625 280.492188 Z M 567.441406 430.679688 L 556.011719 430.679688 L 556.011719 428.011719 L 567.441406 428.011719 Z M 567.441406 283.160156 L 556.011719 283.160156 L 556.011719 280.492188 L 567.441406 280.492188 Z M 586.496094 430.679688 L 575.066406 430.679688 L 575.066406 428.011719 L 586.496094 428.011719 Z M 586.496094 283.160156 L 575.066406 283.160156 L 575.066406 280.492188 L 586.496094 280.492188 Z M 605.550781 430.679688 L 594.117188 430.679688 L 594.117188 428.011719 L 605.550781 428.011719 Z M 605.550781 283.160156 L 594.117188 283.160156 L 594.117188 280.492188 L 605.550781 280.492188 Z M 632.222656 280.398438 L 643.65625 280.398438 L 643.65625 283.160156 L 632.222656 283.160156 Z M 624.601562 430.679688 L 613.171875 430.679688 L 613.171875 428.011719 L 624.601562 428.011719 Z M 624.601562 283.160156 L 613.171875 283.160156 L 613.171875 280.492188 L 624.601562 280.492188 Z M 643.65625 430.679688 L 632.222656 430.679688 L 632.222656 428.011719 L 643.65625 428.011719 Z M 643.65625 430.679688 " fill-opacity="1" fill-rule="nonzero"/></g><path fill="#a6a6a6" d="M 289.363281 280.398438 L 300.792969 280.398438 L 300.792969 283.066406 L 289.363281 283.066406 Z M 289.363281 280.398438 " fill-opacity="1" fill-rule="nonzero"/><path fill="#a6a6a6" d="M 270.308594 280.398438 L 281.742188 280.398438 L 281.742188 283.066406 L 270.308594 283.066406 Z M 270.308594 280.398438 " fill-opacity="1" fill-rule="nonzero"/><path fill="#a6a6a6" d="M 232.203125 280.398438 L 243.636719 280.398438 L 243.636719 283.066406 L 232.203125 283.066406 Z M 232.203125 280.398438 " fill-opacity="1" fill-rule="nonzero"/><path fill="#a6a6a6" d="M 270.308594 428.011719 L 281.742188 428.011719 L 281.742188 430.679688 L 270.308594 430.679688 Z M 270.308594 428.011719 " fill-opacity="1" fill-rule="nonzero"/><path fill="#a6a6a6" d="M 251.257812 428.011719 L 262.6875 428.011719 L 262.6875 430.679688 L 251.257812 430.679688 Z M 251.257812 428.011719 " fill-opacity="1" fill-rule="nonzero"/><path fill="#a6a6a6" d="M 251.257812 280.398438 L 262.6875 280.398438 L 262.6875 283.066406 L 251.257812 283.066406 Z M 251.257812 280.398438 " fill-opacity="1" fill-rule="nonzero"/><path fill="#a6a6a6" d="M 289.363281 428.011719 L 300.792969 428.011719 L 300.792969 430.679688 L 289.363281 430.679688 Z M 289.363281 428.011719 " fill-opacity="1" fill-rule="nonzero"/><path fill="#a6a6a6" d="M 346.523438 280.398438 L 357.953125 280.398438 L 357.953125 283.066406 L 346.523438 283.066406 Z M 346.523438 280.398438 " fill-opacity="1" fill-rule="nonzero"/><path fill="#a6a6a6" d="M 365.574219 428.011719 L 377.007812 428.011719 L 377.007812 430.679688 L 365.574219 430.679688 Z M 365.574219 428.011719 " fill-opacity="1" fill-rule="nonzero"/><path fill="#a6a6a6" d="M 308.417969 428.011719 L 319.847656 428.011719 L 319.847656 430.679688 L 308.417969 430.679688 Z M 308.417969 428.011719 " fill-opacity="1" fill-rule="nonzero"/><path fill="#a6a6a6" d="M 346.523438 428.011719 L 357.953125 428.011719 L 357.953125 430.679688 L 346.523438 430.679688 Z M 346.523438 428.011719 " fill-opacity="1" fill-rule="nonzero"/><path fill="#a6a6a6" d="M 327.46875 280.398438 L 338.902344 280.398438 L 338.902344 283.066406 L 327.46875 283.066406 Z M 327.46875 280.398438 " fill-opacity="1" fill-rule="nonzero"/><path fill="#a6a6a6" d="M 308.417969 280.398438 L 319.847656 280.398438 L 319.847656 283.066406 L 308.417969 283.066406 Z M 308.417969 280.398438 " fill-opacity="1" fill-rule="nonzero"/><path fill="#a6a6a6" d="M 327.46875 428.011719 L 338.902344 428.011719 L 338.902344 430.679688 L 327.46875 430.679688 Z M 327.46875 428.011719 " fill-opacity="1" fill-rule="nonzero"/><path fill="#a6a6a6" d="M 232.203125 428.011719 L 243.636719 428.011719 L 243.636719 430.679688 L 232.203125 430.679688 Z M 232.203125 428.011719 " fill-opacity="1" fill-rule="nonzero"/><path fill="#a6a6a6" d="M 155.992188 280.398438 L 167.421875 280.398438 L 167.421875 283.066406 L 155.992188 283.066406 Z M 155.992188 280.398438 " fill-opacity="1" fill-rule="nonzero"/><path fill="#a6a6a6" d="M 155.992188 428.011719 L 167.421875 428.011719 L 167.421875 430.679688 L 155.992188 430.679688 Z M 155.992188 428.011719 " fill-opacity="1" fill-rule="nonzero"/><path fill="#a6a6a6" d="M 137.03125 428.011719 L 148.464844 428.011719 L 148.464844 430.679688 L 137.03125 430.679688 Z M 137.03125 428.011719 " fill-opacity="1" fill-rule="nonzero"/><path fill="#a6a6a6" d="M 137.03125 280.398438 L 148.464844 280.398438 L 148.464844 283.066406 L 137.03125 283.066406 Z M 137.03125 280.398438 " fill-opacity="1" fill-rule="nonzero"/><path fill="#a6a6a6" d="M 117.980469 428.011719 L 129.410156 428.011719 L 129.410156 430.679688 L 117.980469 430.679688 Z M 117.980469 428.011719 " fill-opacity="1" fill-rule="nonzero"/><path fill="#a6a6a6" d="M 117.980469 280.398438 L 129.410156 280.398438 L 129.410156 283.066406 L 117.980469 283.066406 Z M 117.980469 280.398438 " fill-opacity="1" fill-rule="nonzero"/><path fill="#a6a6a6" d="M 175.042969 280.398438 L 186.476562 280.398438 L 186.476562 283.066406 L 175.042969 283.066406 Z M 175.042969 280.398438 " fill-opacity="1" fill-rule="nonzero"/><path fill="#a6a6a6" d="M 213.152344 428.011719 L 224.582031 428.011719 L 224.582031 430.679688 L 213.152344 430.679688 Z M 213.152344 428.011719 " fill-opacity="1" fill-rule="nonzero"/><path fill="#a6a6a6" d="M 175.042969 428.011719 L 186.476562 428.011719 L 186.476562 430.679688 L 175.042969 430.679688 Z M 175.042969 428.011719 " fill-opacity="1" fill-rule="nonzero"/><path fill="#a6a6a6" d="M 194.097656 280.398438 L 205.527344 280.398438 L 205.527344 283.066406 L 194.097656 283.066406 Z M 194.097656 280.398438 " fill-opacity="1" fill-rule="nonzero"/><path fill="#a6a6a6" d="M 213.152344 280.398438 L 224.582031 280.398438 L 224.582031 283.066406 L 213.152344 283.066406 Z M 213.152344 280.398438 " fill-opacity="1" fill-rule="nonzero"/><path fill="#a6a6a6" d="M 194.097656 428.011719 L 205.527344 428.011719 L 205.527344 430.679688 L 194.097656 430.679688 Z M 194.097656 428.011719 " fill-opacity="1" fill-rule="nonzero"/><path fill="#a6a6a6" d="M 365.574219 280.398438 L 377.007812 280.398438 L 377.007812 283.066406 L 365.574219 283.066406 Z M 365.574219 280.398438 " fill-opacity="1" fill-rule="nonzero"/><path fill="#a6a6a6" d="M 575.066406 280.398438 L 586.496094 280.398438 L 586.496094 283.066406 L 575.066406 283.066406 Z M 575.066406 280.398438 " fill-opacity="1" fill-rule="nonzero"/><path fill="#a6a6a6" d="M 536.957031 428.011719 L 548.390625 428.011719 L 548.390625 430.679688 L 536.957031 430.679688 Z M 536.957031 428.011719 " fill-opacity="1" fill-rule="nonzero"/><path fill="#a6a6a6" d="M 536.957031 280.398438 L 548.390625 280.398438 L 548.390625 283.066406 L 536.957031 283.066406 Z M 536.957031 280.398438 " fill-opacity="1" fill-rule="nonzero"/><path fill="#a6a6a6" d="M 517.90625 280.398438 L 529.335938 280.398438 L 529.335938 283.066406 L 517.90625 283.066406 Z M 517.90625 280.398438 " fill-opacity="1" fill-rule="nonzero"/><path fill="#a6a6a6" d="M 498.851562 280.398438 L 510.285156 280.398438 L 510.285156 283.066406 L 498.851562 283.066406 Z M 498.851562 280.398438 " fill-opacity="1" fill-rule="nonzero"/><path fill="#a6a6a6" d="M 517.90625 428.011719 L 529.335938 428.011719 L 529.335938 430.679688 L 517.90625 430.679688 Z M 517.90625 428.011719 " fill-opacity="1" fill-rule="nonzero"/><path fill="#a6a6a6" d="M 594.117188 428.011719 L 605.550781 428.011719 L 605.550781 430.679688 L 594.117188 430.679688 Z M 594.117188 428.011719 " fill-opacity="1" fill-rule="nonzero"/><path fill="#a6a6a6" d="M 556.011719 428.011719 L 567.441406 428.011719 L 567.441406 430.679688 L 556.011719 430.679688 Z M 556.011719 428.011719 " fill-opacity="1" fill-rule="nonzero"/><path fill="#a6a6a6" d="M 498.851562 428.011719 L 510.285156 428.011719 L 510.285156 430.679688 L 498.851562 430.679688 Z M 498.851562 428.011719 " fill-opacity="1" fill-rule="nonzero"/><path fill="#a6a6a6" d="M 594.117188 280.398438 L 605.550781 280.398438 L 605.550781 283.066406 L 594.117188 283.066406 Z M 594.117188 280.398438 " fill-opacity="1" fill-rule="nonzero"/><path fill="#a6a6a6" d="M 575.066406 428.011719 L 586.496094 428.011719 L 586.496094 430.679688 L 575.066406 430.679688 Z M 575.066406 428.011719 " fill-opacity="1" fill-rule="nonzero"/><path fill="#a6a6a6" d="M 556.011719 280.398438 L 567.441406 280.398438 L 567.441406 283.066406 L 556.011719 283.066406 Z M 556.011719 280.398438 " fill-opacity="1" fill-rule="nonzero"/><path fill="#a6a6a6" d="M 441.691406 280.398438 L 453.125 280.398438 L 453.125 283.066406 L 441.691406 283.066406 Z M 441.691406 280.398438 " fill-opacity="1" fill-rule="nonzero"/><path fill="#a6a6a6" d="M 403.585938 280.398438 L 415.019531 280.398438 L 415.019531 283.066406 L 403.585938 283.066406 Z M 403.585938 280.398438 " fill-opacity="1" fill-rule="nonzero"/><path fill="#a6a6a6" d="M 422.640625 428.011719 L 434.070312 428.011719 L 434.070312 430.679688 L 422.640625 430.679688 Z M 422.640625 428.011719 " fill-opacity="1" fill-rule="nonzero"/><path fill="#a6a6a6" d="M 384.628906 280.398438 L 396.058594 280.398438 L 396.058594 283.066406 L 384.628906 283.066406 Z M 384.628906 280.398438 " fill-opacity="1" fill-rule="nonzero"/><path fill="#a6a6a6" d="M 403.585938 428.011719 L 415.019531 428.011719 L 415.019531 430.679688 L 403.585938 430.679688 Z M 403.585938 428.011719 " fill-opacity="1" fill-rule="nonzero"/><path fill="#a6a6a6" d="M 422.640625 280.398438 L 434.070312 280.398438 L 434.070312 283.066406 L 422.640625 283.066406 Z M 422.640625 280.398438 " fill-opacity="1" fill-rule="nonzero"/><path fill="#a6a6a6" d="M 479.800781 280.398438 L 491.230469 280.398438 L 491.230469 283.066406 L 479.800781 283.066406 Z M 479.800781 280.398438 " fill-opacity="1" fill-rule="nonzero"/><path fill="#a6a6a6" d="M 479.800781 428.011719 L 491.230469 428.011719 L 491.230469 430.679688 L 479.800781 430.679688 Z M 479.800781 428.011719 " fill-opacity="1" fill-rule="nonzero"/><path fill="#a6a6a6" d="M 460.746094 280.398438 L 472.175781 280.398438 L 472.175781 283.066406 L 460.746094 283.066406 Z M 460.746094 280.398438 " fill-opacity="1" fill-rule="nonzero"/><path fill="#a6a6a6" d="M 460.746094 428.011719 L 472.175781 428.011719 L 472.175781 430.679688 L 460.746094 430.679688 Z M 460.746094 428.011719 " fill-opacity="1" fill-rule="nonzero"/><path fill="#a6a6a6" d="M 384.628906 428.011719 L 396.058594 428.011719 L 396.058594 430.679688 L 384.628906 430.679688 Z M 384.628906 428.011719 " fill-opacity="1" fill-rule="nonzero"/><path fill="#a6a6a6" d="M 441.691406 428.011719 L 453.125 428.011719 L 453.125 430.679688 L 441.691406 430.679688 Z M 441.691406 428.011719 " fill-opacity="1" fill-rule="nonzero"/><path fill="#a6a6a6" d="M 632.222656 280.398438 L 643.65625 280.398438 L 643.65625 283.066406 L 632.222656 283.066406 Z M 632.222656 280.398438 " fill-opacity="1" fill-rule="nonzero"/><path fill="#a6a6a6" d="M 655.277344 280.398438 L 651.183594 280.398438 L 651.183594 283.160156 L 654.707031 283.160156 Z M 655.277344 280.398438 " fill-opacity="1" fill-rule="nonzero"/><path fill="#a6a6a6" d="M 654.898438 428.011719 L 651.183594 428.011719 L 651.183594 430.679688 L 655.46875 430.679688 Z M 654.898438 428.011719 " fill-opacity="1" fill-rule="nonzero"/><path fill="#a6a6a6" d="M 613.171875 280.398438 L 624.601562 280.398438 L 624.601562 283.066406 L 613.171875 283.066406 Z M 613.171875 280.398438 " fill-opacity="1" fill-rule="nonzero"/><path fill="#a6a6a6" d="M 613.171875 428.011719 L 624.601562 428.011719 L 624.601562 430.679688 L 613.171875 430.679688 Z M 613.171875 428.011719 " fill-opacity="1" fill-rule="nonzero"/><path fill="#a6a6a6" d="M 632.222656 428.011719 L 643.65625 428.011719 L 643.65625 430.679688 L 632.222656 430.679688 Z M 632.222656 428.011719 " fill-opacity="1" fill-rule="nonzero"/><path fill="#a6a6a6" d="M 87.6875 430.679688 L 91.304688 430.679688 L 91.304688 428.011719 L 88.257812 428.011719 Z M 87.6875 430.679688 " fill-opacity="1" fill-rule="nonzero"/><path fill="#a6a6a6" d="M 88.449219 283.160156 L 91.304688 283.160156 L 91.304688 280.398438 L 87.875 280.398438 Z M 88.449219 283.160156 " fill-opacity="1" fill-rule="nonzero"/><path fill="#a6a6a6" d="M 98.925781 428.011719 L 110.359375 428.011719 L 110.359375 430.679688 L 98.925781 430.679688 Z M 98.925781 428.011719 " fill-opacity="1" fill-rule="nonzero"/><path fill="#a6a6a6" d="M 98.925781 280.398438 L 110.359375 280.398438 L 110.359375 283.066406 L 98.925781 283.066406 Z M 98.925781 280.398438 " fill-opacity="1" fill-rule="nonzero"/></svg>