<svg xmlns="http://www.w3.org/2000/svg" xmlns:xlink="http://www.w3.org/1999/xlink" width="15" zoomAndPan="magnify" viewBox="0 0 750 749.999995" height="15" preserveAspectRatio="xMidYMid meet" version="1.0"><defs><clipPath id="101f2c3325"><path d="M 0 20.289062 L 724.5 20.289062 L 724.5 744.789062 L 0 744.789062 Z M 0 20.289062 " clip-rule="nonzero"/></clipPath><clipPath id="96688aecb8"><path d="M 0 5.414062 L 730.5 5.414062 L 730.5 735.914062 L 0 735.914062 Z M 0 5.414062 " clip-rule="nonzero"/></clipPath><clipPath id="894a751ccc"><path d="M 329 550 L 411 550 L 411 634.507812 L 329 634.507812 Z M 329 550 " clip-rule="nonzero"/></clipPath></defs><g clip-path="url(#101f2c3325)"><path fill="#a61c4a" d="M 724.5 382.539062 C 724.5 388.464844 724.355469 394.390625 724.0625 400.3125 C 723.773438 406.234375 723.335938 412.144531 722.753906 418.042969 C 722.175781 423.945312 721.449219 429.828125 720.578125 435.691406 C 719.710938 441.554688 718.695312 447.394531 717.539062 453.210938 C 716.382812 459.023438 715.085938 464.804688 713.644531 470.558594 C 712.203125 476.308594 710.621094 482.019531 708.902344 487.695312 C 707.179688 493.367188 705.320312 498.996094 703.324219 504.574219 C 701.328125 510.15625 699.195312 515.6875 696.925781 521.164062 C 694.65625 526.640625 692.253906 532.058594 689.71875 537.417969 C 687.183594 542.777344 684.519531 548.074219 681.726562 553.300781 C 678.929688 558.53125 676.011719 563.6875 672.960938 568.769531 C 669.914062 573.855469 666.742188 578.863281 663.449219 583.792969 C 660.15625 588.722656 656.742188 593.566406 653.210938 598.328125 C 649.679688 603.089844 646.035156 607.765625 642.273438 612.347656 C 638.511719 616.929688 634.640625 621.417969 630.660156 625.808594 C 626.679688 630.203125 622.589844 634.496094 618.398438 638.6875 C 614.207031 642.878906 609.914062 646.964844 605.523438 650.949219 C 601.128906 654.929688 596.640625 658.800781 592.058594 662.5625 C 587.476562 666.320312 582.804688 669.96875 578.042969 673.5 C 573.28125 677.03125 568.433594 680.445312 563.503906 683.738281 C 558.574219 687.03125 553.570312 690.203125 548.484375 693.25 C 543.398438 696.296875 538.242188 699.21875 533.011719 702.011719 C 527.785156 704.808594 522.492188 707.472656 517.132812 710.007812 C 511.773438 712.542969 506.355469 714.945312 500.875 717.214844 C 495.398438 719.480469 489.871094 721.613281 484.289062 723.613281 C 478.707031 725.609375 473.078125 727.46875 467.40625 729.1875 C 461.730469 730.910156 456.019531 732.492188 450.269531 733.929688 C 444.519531 735.371094 438.734375 736.671875 432.921875 737.828125 C 427.105469 738.984375 421.265625 739.996094 415.402344 740.867188 C 409.539062 741.738281 403.65625 742.460938 397.757812 743.042969 C 391.855469 743.625 385.945312 744.058594 380.023438 744.351562 C 374.101562 744.640625 368.179688 744.789062 362.25 744.789062 C 356.320312 744.789062 350.398438 744.640625 344.476562 744.351562 C 338.554688 744.0625 332.644531 743.625 326.742188 743.042969 C 320.84375 742.460938 314.960938 741.738281 309.097656 740.867188 C 303.234375 739.996094 297.394531 738.984375 291.578125 737.828125 C 285.765625 736.671875 279.980469 735.371094 274.230469 733.929688 C 268.480469 732.492188 262.765625 730.910156 257.09375 729.1875 C 251.421875 727.46875 245.792969 725.609375 240.210938 723.613281 C 234.628906 721.613281 229.101562 719.480469 223.621094 717.214844 C 218.144531 714.945312 212.726562 712.542969 207.367188 710.007812 C 202.007812 707.472656 196.714844 704.808594 191.488281 702.015625 C 186.257812 699.21875 181.101562 696.296875 176.015625 693.25 C 170.929688 690.203125 165.925781 687.03125 160.996094 683.738281 C 156.066406 680.445312 151.21875 677.03125 146.457031 673.5 C 141.695312 669.96875 137.023438 666.320312 132.441406 662.5625 C 127.859375 658.800781 123.371094 654.929688 118.976562 650.945312 C 114.585938 646.964844 110.292969 642.878906 106.101562 638.6875 C 101.910156 634.496094 97.820312 630.203125 93.839844 625.808594 C 89.859375 621.417969 85.988281 616.929688 82.226562 612.347656 C 78.464844 607.765625 74.820312 603.089844 71.289062 598.328125 C 67.757812 593.566406 64.34375 588.722656 61.050781 583.792969 C 57.757812 578.863281 54.585938 573.855469 51.539062 568.769531 C 48.488281 563.6875 45.570312 558.53125 42.773438 553.300781 C 39.980469 548.074219 37.316406 542.777344 34.78125 537.417969 C 32.246094 532.058594 29.84375 526.640625 27.574219 521.164062 C 25.304688 515.6875 23.171875 510.15625 21.175781 504.574219 C 19.179688 498.992188 17.320312 493.367188 15.597656 487.691406 C 13.878906 482.019531 12.296875 476.308594 10.855469 470.558594 C 9.414062 464.804688 8.117188 459.023438 6.960938 453.210938 C 5.804688 447.394531 4.789062 441.554688 3.921875 435.691406 C 3.050781 429.828125 2.324219 423.945312 1.746094 418.042969 C 1.164062 412.144531 0.726562 406.234375 0.4375 400.3125 C 0.144531 394.390625 0 388.464844 0 382.539062 C 0 376.609375 0.144531 370.683594 0.4375 364.761719 C 0.726562 358.839844 1.164062 352.929688 1.746094 347.03125 C 2.324219 341.132812 3.050781 335.25 3.921875 329.382812 C 4.789062 323.519531 5.804688 317.679688 6.960938 311.867188 C 8.117188 306.050781 9.414062 300.269531 10.855469 294.519531 C 12.296875 288.765625 13.878906 283.054688 15.597656 277.382812 C 17.320312 271.707031 19.179688 266.082031 21.175781 260.5 C 23.171875 254.917969 25.304688 249.386719 27.574219 243.910156 C 29.84375 238.433594 32.246094 233.015625 34.78125 227.65625 C 37.316406 222.296875 39.980469 217.003906 42.773438 211.773438 C 45.570312 206.546875 48.488281 201.390625 51.539062 196.304688 C 54.585938 191.21875 57.757812 186.210938 61.050781 181.28125 C 64.34375 176.351562 67.757812 171.507812 71.289062 166.746094 C 74.820312 161.984375 78.464844 157.3125 82.226562 152.730469 C 85.988281 148.144531 89.859375 143.660156 93.839844 139.265625 C 97.820312 134.871094 101.910156 130.582031 106.101562 126.386719 C 110.292969 122.195312 114.585938 118.109375 118.976562 114.128906 C 123.371094 110.148438 127.859375 106.277344 132.441406 102.515625 C 137.023438 98.753906 141.695312 95.109375 146.457031 91.574219 C 151.21875 88.042969 156.066406 84.632812 160.996094 81.339844 C 165.925781 78.042969 170.929688 74.875 176.015625 71.824219 C 181.101562 68.777344 186.257812 65.855469 191.488281 63.0625 C 196.714844 60.265625 202.007812 57.601562 207.367188 55.066406 C 212.726562 52.53125 218.144531 50.132812 223.621094 47.863281 C 229.101562 45.59375 234.628906 43.460938 240.210938 41.464844 C 245.792969 39.464844 251.421875 37.605469 257.09375 35.886719 C 262.765625 34.164062 268.480469 32.585938 274.230469 31.144531 C 279.980469 29.703125 285.765625 28.40625 291.578125 27.25 C 297.394531 26.089844 303.234375 25.078125 309.097656 24.207031 C 314.960938 23.339844 320.84375 22.613281 326.742188 22.03125 C 332.644531 21.449219 338.554688 21.015625 344.476562 20.722656 C 350.398438 20.433594 356.320312 20.289062 362.25 20.289062 C 368.179688 20.289062 374.101562 20.433594 380.023438 20.722656 C 385.945312 21.015625 391.855469 21.449219 397.757812 22.03125 C 403.65625 22.613281 409.539062 23.339844 415.402344 24.207031 C 421.265625 25.078125 427.105469 26.089844 432.921875 27.25 C 438.734375 28.40625 444.519531 29.703125 450.269531 31.144531 C 456.019531 32.585938 461.730469 34.164062 467.40625 35.886719 C 473.078125 37.605469 478.707031 39.464844 484.289062 41.464844 C 489.871094 43.460938 495.398438 45.59375 500.878906 47.863281 C 506.355469 50.132812 511.773438 52.53125 517.132812 55.066406 C 522.492188 57.601562 527.785156 60.265625 533.011719 63.0625 C 538.242188 65.855469 543.398438 68.777344 548.484375 71.824219 C 553.570312 74.875 558.574219 78.042969 563.503906 81.339844 C 568.433594 84.632812 573.28125 88.042969 578.042969 91.574219 C 582.804688 95.109375 587.476562 98.753906 592.058594 102.515625 C 596.640625 106.277344 601.128906 110.148438 605.523438 114.128906 C 609.914062 118.109375 614.207031 122.195312 618.398438 126.386719 C 622.589844 130.582031 626.679688 134.871094 630.660156 139.265625 C 634.640625 143.660156 638.511719 148.144531 642.273438 152.730469 C 646.035156 157.3125 649.679688 161.984375 653.210938 166.746094 C 656.742188 171.507812 660.15625 176.351562 663.449219 181.28125 C 666.742188 186.210938 669.914062 191.21875 672.960938 196.304688 C 676.011719 201.390625 678.929688 206.546875 681.726562 211.773438 C 684.519531 217.003906 687.183594 222.296875 689.71875 227.65625 C 692.253906 233.015625 694.65625 238.433594 696.925781 243.910156 C 699.195312 249.386719 701.328125 254.917969 703.324219 260.5 C 705.320312 266.082031 707.179688 271.707031 708.902344 277.382812 C 710.621094 283.054688 712.203125 288.765625 713.644531 294.519531 C 715.085938 300.269531 716.382812 306.050781 717.539062 311.867188 C 718.695312 317.679688 719.710938 323.519531 720.578125 329.382812 C 721.449219 335.25 722.175781 341.132812 722.753906 347.03125 C 723.335938 352.929688 723.773438 358.839844 724.0625 364.761719 C 724.355469 370.683594 724.5 376.609375 724.5 382.539062 Z M 724.5 382.539062 " fill-opacity="1" fill-rule="nonzero"/></g><g clip-path="url(#96688aecb8)"><path fill="#000000" d="M 365.25 735.914062 C 163.460938 735.914062 0 571.324219 0 370.664062 C 0 170 163.460938 5.414062 365.25 5.414062 C 567.039062 5.414062 730.5 168.875 730.5 370.664062 C 730.5 572.453125 565.910156 735.914062 365.25 735.914062 Z M 365.25 27.960938 C 175.859375 27.960938 22.546875 181.273438 22.546875 370.664062 C 22.546875 560.050781 175.859375 713.367188 365.25 713.367188 C 554.640625 713.367188 707.953125 560.050781 707.953125 370.664062 C 707.953125 181.273438 553.511719 27.960938 365.25 27.960938 Z M 365.25 27.960938 " fill-opacity="1" fill-rule="nonzero"/></g><path fill="#000000" d="M 464.605469 134.335938 C 428.167969 110.039062 379.664062 107.269531 338.652344 122.617188 C 297.640625 137.941406 264.058594 169.859375 241.859375 207.59375 C 233.375 221.996094 226.289062 237.730469 225.152344 254.40625 C 224.015625 271.085938 229.683594 288.921875 242.84375 299.246094 C 256.007812 309.570312 277.09375 309.957031 288.515625 297.765625 C 298.929688 286.625 298.929688 269.777344 301.957031 254.859375 C 308.59375 222.148438 333.605469 193.8125 365.257812 183.167969 C 392.804688 173.894531 429.199219 181.535156 440.277344 208.410156 C 449.125 229.851562 438.515625 254.878906 422.605469 271.75 C 406.71875 288.644531 385.996094 300.148438 368.519531 315.386719 C 329.054688 349.859375 308.011719 404.316406 314.066406 456.367188 C 316.621094 478.257812 325.425781 501.742188 345.117188 511.636719 C 375.691406 526.984375 407.320312 500.777344 406.867188 469.007812 C 406.71875 457.589844 401.285156 447.09375 400.878906 435.632812 C 400.210938 416.894531 407.984375 397.53125 417.496094 381.796875 C 431.773438 358.167969 452.023438 338.871094 470.46875 318.351562 C 488.933594 297.832031 506.21875 274.925781 512.507812 248.054688 C 522.515625 205.425781 501.023438 158.613281 464.605469 134.335938 Z M 264.058594 294.4375 C 262.472656 294.78125 260.839844 294.203125 259.355469 293.558594 C 247.355469 288.277344 238.980469 276.367188 236.210938 263.550781 C 234.472656 255.503906 234.773438 247.132812 236.46875 239.125 C 237.5 234.316406 241.171875 221.78125 245.960938 219.207031 C 248.40625 217.875 251.714844 218.347656 253.6875 220.324219 C 256.972656 223.605469 255.921875 229.058594 254.71875 233.542969 C 252.164062 243.203125 248.214844 253.207031 249.351562 263.144531 C 250.488281 273.082031 255.320312 283.019531 263.886719 288.171875 C 265.070312 288.878906 266.421875 289.628906 266.722656 290.960938 C 267.066406 292.527344 265.648438 294.09375 264.058594 294.4375 Z M 338.375 442.371094 C 338.761719 451.945312 340.132812 461.925781 343.246094 471.003906 C 346.296875 479.890625 356.472656 494.65625 352.09375 499.273438 C 346.660156 505.023438 334.746094 487.1875 330.234375 477.789062 C 325.726562 468.386719 324.675781 457.695312 324.609375 447.285156 C 324.4375 422.839844 329.226562 398.390625 338.632812 375.832031 C 340.433594 371.515625 343.613281 366.539062 348.25 367.074219 C 352.007812 367.503906 354.347656 371.710938 354.199219 375.464844 C 354.046875 379.246094 352.136719 382.679688 350.417969 386.046875 C 341.660156 403.347656 337.578125 422.96875 338.375 442.371094 Z M 338.375 442.371094 " fill-opacity="1" fill-rule="nonzero"/><g clip-path="url(#894a751ccc)"><path fill="#000000" d="M 365.363281 550.894531 C 339.488281 556.433594 318.597656 599.574219 334.765625 621.621094 C 341.316406 630.527344 352.972656 634.5 364.03125 634.433594 C 381.015625 634.347656 398 625.160156 406.160156 610.308594 C 421.234375 582.898438 398.582031 543.769531 365.363281 550.894531 Z M 351.363281 624.28125 C 350.957031 625.140625 349.773438 625.226562 348.851562 625.03125 C 347.199219 624.710938 345.652344 623.917969 344.40625 622.820312 C 343.289062 621.835938 341.746094 620.289062 341.316406 618.828125 C 341.101562 618.078125 341.207031 617.199219 341.765625 616.660156 C 342.472656 615.972656 343.65625 616.082031 344.492188 616.574219 C 345.332031 617.070312 345.929688 617.886719 346.574219 618.636719 C 347.476562 619.6875 348.507812 620.609375 349.644531 621.382812 C 350.140625 621.726562 350.675781 622.070312 351.0625 622.542969 C 351.429688 623.035156 351.621094 623.722656 351.363281 624.28125 Z M 366.757812 571.542969 C 361.949219 576.007812 356.429688 579.65625 351.835938 584.359375 C 347.261719 589.035156 343.546875 595.132812 343.71875 601.699219 C 343.761719 603.460938 343.847656 605.648438 342.28125 606.445312 C 341.058594 607.046875 339.511719 606.273438 338.847656 605.070312 C 338.179688 603.890625 338.179688 602.453125 338.246094 601.078125 C 338.804688 591.441406 342.773438 582.105469 349.042969 574.804688 C 351.75 571.652344 365.171875 556.496094 369.570312 563.902344 C 371.074219 566.433594 368.925781 569.546875 366.757812 571.542969 Z M 366.757812 571.542969 " fill-opacity="1" fill-rule="nonzero"/></g></svg>