<svg xmlns="http://www.w3.org/2000/svg" xmlns:xlink="http://www.w3.org/1999/xlink" width="1000" zoomAndPan="magnify" viewBox="0 0 750 749.999995" height="1000" preserveAspectRatio="xMidYMid meet" version="1.0"><defs><clipPath id="fae6c7d9fd"><path d="M 3.277344 13.136719 L 733.777344 13.136719 L 733.777344 743.636719 L 3.277344 743.636719 Z M 3.277344 13.136719 " clip-rule="nonzero"/></clipPath><clipPath id="8278f777da"><path d="M 9.851562 6.5625 L 746.351562 6.5625 L 746.351562 743.0625 L 9.851562 743.0625 Z M 9.851562 6.5625 " clip-rule="nonzero"/></clipPath><clipPath id="97257d96af"><path d="M 94 61 L 685 61 L 685 652 L 94 652 Z M 94 61 " clip-rule="nonzero"/></clipPath><clipPath id="27ae092ced"><path d="M 379.691406 61.472656 L 684.648438 346.984375 L 399.136719 651.9375 L 94.179688 366.425781 Z M 379.691406 61.472656 " clip-rule="nonzero"/></clipPath><clipPath id="01de08ac91"><path d="M 379.691406 61.472656 L 684.648438 346.984375 L 399.136719 651.9375 L 94.179688 366.425781 Z M 379.691406 61.472656 " clip-rule="nonzero"/></clipPath><clipPath id="9d898ae338"><path d="M 379.691406 61.472656 L 684.648438 346.984375 L 399.136719 651.9375 L 94.179688 366.425781 Z M 379.691406 61.472656 " clip-rule="nonzero"/></clipPath></defs><g clip-path="url(#fae6c7d9fd)"><path fill="#b309c7" d="M 733.777344 378.386719 C 733.777344 384.363281 733.628906 390.339844 733.335938 396.308594 C 733.042969 402.277344 732.601562 408.238281 732.015625 414.1875 C 731.429688 420.136719 730.699219 426.066406 729.824219 431.980469 C 728.945312 437.894531 727.925781 443.78125 726.757812 449.644531 C 725.589844 455.507812 724.28125 461.335938 722.828125 467.136719 C 721.378906 472.933594 719.785156 478.691406 718.046875 484.414062 C 716.3125 490.132812 714.4375 495.808594 712.425781 501.433594 C 710.410156 507.0625 708.261719 512.640625 705.972656 518.160156 C 703.683594 523.683594 701.265625 529.148438 698.707031 534.550781 C 696.152344 539.953125 693.464844 545.292969 690.648438 550.5625 C 687.828125 555.835938 684.882812 561.035156 681.8125 566.164062 C 678.738281 571.289062 675.542969 576.339844 672.21875 581.308594 C 668.898438 586.277344 665.457031 591.164062 661.898438 595.964844 C 658.335938 600.765625 654.660156 605.476562 650.867188 610.097656 C 647.074219 614.71875 643.171875 619.246094 639.160156 623.671875 C 635.144531 628.101562 631.023438 632.429688 626.796875 636.65625 C 622.570312 640.882812 618.242188 645.003906 613.8125 649.019531 C 609.382812 653.03125 604.859375 656.9375 600.238281 660.726562 C 595.617188 664.519531 590.90625 668.195312 586.105469 671.757812 C 581.304688 675.320312 576.417969 678.757812 571.449219 682.082031 C 566.476562 685.402344 561.429688 688.597656 556.300781 691.671875 C 551.175781 694.746094 545.976562 697.691406 540.703125 700.507812 C 535.433594 703.324219 530.09375 706.011719 524.691406 708.570312 C 519.285156 711.125 513.824219 713.546875 508.300781 715.832031 C 502.777344 718.121094 497.203125 720.273438 491.574219 722.285156 C 485.945312 724.300781 480.273438 726.171875 474.550781 727.910156 C 468.832031 729.644531 463.074219 731.238281 457.273438 732.691406 C 451.476562 734.144531 445.644531 735.453125 439.78125 736.617188 C 433.921875 737.785156 428.03125 738.804688 422.121094 739.683594 C 416.207031 740.558594 410.277344 741.292969 404.328125 741.878906 C 398.378906 742.464844 392.417969 742.902344 386.449219 743.195312 C 380.476562 743.488281 374.503906 743.636719 368.527344 743.636719 C 362.546875 743.636719 356.574219 743.488281 350.605469 743.195312 C 344.632812 742.902344 338.675781 742.464844 332.726562 741.878906 C 326.777344 741.292969 320.84375 740.558594 314.933594 739.683594 C 309.019531 738.804688 303.132812 737.785156 297.269531 736.617188 C 291.40625 735.453125 285.574219 734.144531 279.777344 732.691406 C 273.980469 731.238281 268.21875 729.644531 262.5 727.910156 C 256.78125 726.171875 251.105469 724.300781 245.476562 722.285156 C 239.847656 720.273438 234.273438 718.121094 228.75 715.832031 C 223.226562 713.546875 217.765625 711.125 212.363281 708.570312 C 206.957031 706.011719 201.621094 703.324219 196.347656 700.507812 C 191.078125 697.691406 185.878906 694.746094 180.75 691.671875 C 175.621094 688.597656 170.574219 685.402344 165.605469 682.082031 C 160.632812 678.757812 155.75 675.320312 150.945312 671.757812 C 146.144531 668.195312 141.433594 664.519531 136.8125 660.726562 C 132.191406 656.9375 127.667969 653.03125 123.238281 649.019531 C 118.808594 645.003906 114.480469 640.882812 110.253906 636.65625 C 106.027344 632.429688 101.90625 628.101562 97.894531 623.671875 C 93.878906 619.246094 89.976562 614.71875 86.183594 610.097656 C 82.390625 605.476562 78.714844 600.765625 75.15625 595.964844 C 71.59375 591.164062 68.152344 586.277344 64.832031 581.308594 C 61.511719 576.339844 58.3125 571.289062 55.242188 566.164062 C 52.167969 561.035156 49.222656 555.835938 46.40625 550.5625 C 43.585938 545.292969 40.898438 539.953125 38.34375 534.550781 C 35.789062 529.148438 33.367188 523.683594 31.078125 518.160156 C 28.792969 512.640625 26.640625 507.0625 24.628906 501.433594 C 22.613281 495.808594 20.738281 490.132812 19.003906 484.414062 C 17.269531 478.691406 15.675781 472.933594 14.222656 467.136719 C 12.769531 461.335938 11.460938 455.503906 10.292969 449.644531 C 9.128906 443.78125 8.105469 437.894531 7.230469 431.980469 C 6.351562 426.066406 5.621094 420.136719 5.035156 414.1875 C 4.449219 408.238281 4.007812 402.277344 3.714844 396.308594 C 3.421875 390.339844 3.277344 384.363281 3.277344 378.386719 C 3.277344 372.410156 3.421875 366.433594 3.714844 360.464844 C 4.007812 354.492188 4.449219 348.535156 5.035156 342.585938 C 5.621094 336.636719 6.351562 330.707031 7.230469 324.792969 C 8.105469 318.878906 9.128906 312.992188 10.292969 307.128906 C 11.460938 301.265625 12.769531 295.4375 14.222656 289.636719 C 15.675781 283.839844 17.269531 278.082031 19.003906 272.359375 C 20.738281 266.640625 22.613281 260.964844 24.628906 255.335938 C 26.640625 249.710938 28.792969 244.132812 31.078125 238.613281 C 33.367188 233.089844 35.789062 227.625 38.34375 222.222656 C 40.898438 216.816406 43.585938 211.480469 46.40625 206.207031 C 49.222656 200.9375 52.167969 195.738281 55.242188 190.609375 C 58.3125 185.484375 61.511719 180.433594 64.832031 175.464844 C 68.152344 170.496094 71.59375 165.609375 75.15625 160.808594 C 78.714844 156.007812 82.390625 151.296875 86.183594 146.675781 C 89.976562 142.054688 93.878906 137.527344 97.894531 133.097656 C 101.90625 128.671875 106.027344 124.34375 110.253906 120.117188 C 114.480469 115.890625 118.808594 111.769531 123.238281 107.753906 C 127.667969 103.738281 132.191406 99.835938 136.8125 96.042969 C 141.433594 92.253906 146.144531 88.574219 150.945312 85.015625 C 155.75 81.453125 160.632812 78.011719 165.605469 74.691406 C 170.574219 71.371094 175.621094 68.175781 180.75 65.101562 C 185.878906 62.027344 191.078125 59.082031 196.347656 56.265625 C 201.621094 53.445312 206.957031 50.761719 212.363281 48.203125 C 217.765625 45.648438 223.226562 43.226562 228.75 40.941406 C 234.273438 38.652344 239.847656 36.5 245.476562 34.488281 C 251.105469 32.472656 256.78125 30.597656 262.5 28.863281 C 268.21875 27.128906 273.980469 25.535156 279.777344 24.082031 C 285.574219 22.628906 291.40625 21.320312 297.269531 20.15625 C 303.132812 18.988281 309.019531 17.96875 314.933594 17.089844 C 320.84375 16.210938 326.777344 15.480469 332.726562 14.894531 C 338.675781 14.308594 344.632812 13.871094 350.605469 13.578125 C 356.574219 13.28125 362.546875 13.136719 368.527344 13.136719 C 374.503906 13.136719 380.476562 13.28125 386.449219 13.578125 C 392.417969 13.871094 398.378906 14.308594 404.328125 14.894531 C 410.277344 15.480469 416.207031 16.210938 422.121094 17.089844 C 428.03125 17.96875 433.921875 18.988281 439.78125 20.15625 C 445.644531 21.320312 451.476562 22.628906 457.273438 24.082031 C 463.074219 25.535156 468.832031 27.128906 474.550781 28.863281 C 480.273438 30.597656 485.945312 32.472656 491.574219 34.488281 C 497.203125 36.5 502.777344 38.652344 508.300781 40.941406 C 513.824219 43.226562 519.285156 45.648438 524.691406 48.203125 C 530.09375 50.761719 535.433594 53.445312 540.703125 56.265625 C 545.976562 59.082031 551.175781 62.027344 556.300781 65.101562 C 561.429688 68.175781 566.476562 71.371094 571.449219 74.691406 C 576.417969 78.011719 581.304688 81.453125 586.105469 85.015625 C 590.90625 88.574219 595.617188 92.253906 600.238281 96.042969 C 604.859375 99.835938 609.382812 103.738281 613.8125 107.753906 C 618.242188 111.769531 622.570312 115.890625 626.796875 120.117188 C 631.023438 124.34375 635.144531 128.671875 639.160156 133.097656 C 643.171875 137.527344 647.074219 142.054688 650.867188 146.675781 C 654.660156 151.296875 658.335938 156.007812 661.898438 160.808594 C 665.457031 165.609375 668.898438 170.496094 672.21875 175.464844 C 675.542969 180.433594 678.738281 185.484375 681.8125 190.609375 C 684.882812 195.738281 687.828125 200.9375 690.648438 206.207031 C 693.464844 211.480469 696.152344 216.816406 698.707031 222.222656 C 701.265625 227.625 703.683594 233.089844 705.972656 238.609375 C 708.261719 244.132812 710.410156 249.710938 712.425781 255.335938 C 714.4375 260.964844 716.3125 266.640625 718.046875 272.359375 C 719.785156 278.082031 721.378906 283.839844 722.828125 289.636719 C 724.28125 295.4375 725.589844 301.265625 726.757812 307.128906 C 727.925781 312.992188 728.945312 318.878906 729.824219 324.792969 C 730.699219 330.707031 731.429688 336.636719 732.015625 342.585938 C 732.601562 348.535156 733.042969 354.492188 733.335938 360.464844 C 733.628906 366.433594 733.777344 372.410156 733.777344 378.386719 Z M 733.777344 378.386719 " fill-opacity="1" fill-rule="nonzero"/></g><g clip-path="url(#8278f777da)"><path fill="#000000" d="M 378.101562 743.0625 C 174.652344 743.0625 9.851562 577.125 9.851562 374.8125 C 9.851562 172.503906 174.652344 6.5625 378.101562 6.5625 C 581.546875 6.5625 746.351562 171.367188 746.351562 374.8125 C 746.351562 578.257812 580.410156 743.0625 378.101562 743.0625 Z M 378.101562 29.292969 C 187.15625 29.292969 32.582031 183.867188 32.582031 374.8125 C 32.582031 565.757812 187.15625 720.332031 378.101562 720.332031 C 569.042969 720.332031 723.617188 565.757812 723.617188 374.8125 C 723.617188 183.867188 567.90625 29.292969 378.101562 29.292969 Z M 378.101562 29.292969 " fill-opacity="1" fill-rule="nonzero"/></g><g clip-path="url(#97257d96af)"><g clip-path="url(#27ae092ced)"><g clip-path="url(#01de08ac91)"><g clip-path="url(#9d898ae338)"><path stroke-linecap="butt" transform="matrix(1.260669, 1.180289, -1.180289, 1.260669, 379.692671, 61.471188)" fill="none" stroke-linejoin="miter" d="M 0.000439044 120.900151 L 241.900912 120.899537 " stroke="#000000" stroke-width="26" stroke-opacity="1" stroke-miterlimit="10"/><path stroke-linecap="butt" transform="matrix(1.260669, 1.180289, -1.180289, 1.260669, 379.692671, 61.471188)" fill="none" stroke-linejoin="miter" d="M 120.900727 -0.000817498 L 120.899689 241.901201 " stroke="#000000" stroke-width="26" stroke-opacity="1" stroke-miterlimit="10"/></g></g></g></g></svg>