<svg xmlns="http://www.w3.org/2000/svg" xmlns:xlink="http://www.w3.org/1999/xlink" width="1000" zoomAndPan="magnify" viewBox="0 0 750 749.999995" height="1000" preserveAspectRatio="xMidYMid meet" version="1.0"><defs><clipPath id="d17811fded"><path d="M 10.636719 10.289062 L 746.386719 10.289062 L 746.386719 746.039062 L 10.636719 746.039062 Z M 10.636719 10.289062 " clip-rule="nonzero"/></clipPath><clipPath id="97349aeefb"><path d="M 7.324219 3.664062 L 749.824219 3.664062 L 749.824219 746.164062 L 7.324219 746.164062 Z M 7.324219 3.664062 " clip-rule="nonzero"/></clipPath><clipPath id="c7131efaf6"><path d="M 98.367188 254.351562 L 678.867188 254.351562 L 678.867188 426 L 98.367188 426 Z M 98.367188 254.351562 " clip-rule="nonzero"/></clipPath></defs><g clip-path="url(#d17811fded)"><path fill="#b309c7" d="M 746.386719 378.164062 C 746.386719 384.183594 746.238281 390.199219 745.945312 396.214844 C 745.648438 402.226562 745.207031 408.230469 744.617188 414.222656 C 744.027344 420.210938 743.289062 426.1875 742.40625 432.140625 C 741.523438 438.097656 740.492188 444.027344 739.320312 449.933594 C 738.144531 455.835938 736.824219 461.710938 735.363281 467.550781 C 733.898438 473.390625 732.292969 479.191406 730.546875 484.953125 C 728.800781 490.710938 726.910156 496.425781 724.882812 502.097656 C 722.855469 507.765625 720.6875 513.378906 718.382812 518.941406 C 716.082031 524.503906 713.640625 530.007812 711.066406 535.449219 C 708.492188 540.890625 705.789062 546.269531 702.949219 551.578125 C 700.109375 556.886719 697.144531 562.125 694.050781 567.289062 C 690.953125 572.453125 687.734375 577.539062 684.390625 582.542969 C 681.042969 587.550781 677.578125 592.46875 673.992188 597.304688 C 670.40625 602.140625 666.703125 606.886719 662.882812 611.539062 C 659.0625 616.195312 655.132812 620.75 651.089844 625.210938 C 647.046875 629.671875 642.894531 634.03125 638.640625 638.289062 C 634.382812 642.546875 630.023438 646.695312 625.5625 650.742188 C 621.101562 654.785156 616.542969 658.714844 611.890625 662.535156 C 607.234375 666.351562 602.492188 670.054688 597.65625 673.644531 C 592.820312 677.230469 587.898438 680.695312 582.894531 684.039062 C 577.886719 687.382812 572.800781 690.605469 567.636719 693.699219 C 562.472656 696.792969 557.238281 699.761719 551.925781 702.597656 C 546.617188 705.4375 541.242188 708.144531 535.800781 710.71875 C 530.355469 713.292969 524.855469 715.730469 519.292969 718.035156 C 513.730469 720.339844 508.113281 722.503906 502.445312 724.535156 C 496.777344 726.5625 491.0625 728.449219 485.300781 730.195312 C 479.539062 731.945312 473.738281 733.550781 467.898438 735.011719 C 462.058594 736.476562 456.1875 737.792969 450.28125 738.96875 C 444.375 740.144531 438.445312 741.171875 432.492188 742.054688 C 426.535156 742.9375 420.5625 743.675781 414.570312 744.265625 C 408.578125 744.855469 402.578125 745.300781 396.5625 745.59375 C 390.550781 745.890625 384.53125 746.039062 378.511719 746.039062 C 372.492188 746.039062 366.476562 745.890625 360.460938 745.59375 C 354.449219 745.300781 348.445312 744.855469 342.453125 744.265625 C 336.460938 743.675781 330.488281 742.941406 324.535156 742.054688 C 318.578125 741.171875 312.648438 740.144531 306.742188 738.96875 C 300.839844 737.792969 294.964844 736.476562 289.125 735.011719 C 283.285156 733.550781 277.484375 731.945312 271.722656 730.195312 C 265.960938 728.449219 260.246094 726.5625 254.578125 724.535156 C 248.910156 722.503906 243.296875 720.339844 237.734375 718.035156 C 232.171875 715.730469 226.667969 713.292969 221.226562 710.71875 C 215.78125 708.144531 210.40625 705.4375 205.097656 702.601562 C 199.789062 699.761719 194.550781 696.792969 189.386719 693.699219 C 184.222656 690.605469 179.136719 687.382812 174.132812 684.039062 C 169.125 680.695312 164.207031 677.230469 159.371094 673.644531 C 154.535156 670.054688 149.789062 666.351562 145.136719 662.535156 C 140.480469 658.714844 135.921875 654.785156 131.460938 650.738281 C 127 646.695312 122.644531 642.546875 118.386719 638.289062 C 114.128906 634.03125 109.976562 629.671875 105.933594 625.210938 C 101.890625 620.75 97.960938 616.195312 94.140625 611.539062 C 90.320312 606.886719 86.617188 602.140625 83.03125 597.304688 C 79.445312 592.46875 75.980469 587.550781 72.636719 582.542969 C 69.289062 577.539062 66.070312 572.453125 62.976562 567.289062 C 59.878906 562.125 56.914062 556.886719 54.074219 551.578125 C 51.238281 546.269531 48.53125 540.890625 45.957031 535.449219 C 43.382812 530.007812 40.945312 524.503906 38.640625 518.941406 C 36.335938 513.378906 34.171875 507.765625 32.140625 502.097656 C 30.113281 496.425781 28.226562 490.710938 26.476562 484.953125 C 24.730469 479.191406 23.125 473.390625 21.664062 467.550781 C 20.199219 461.710938 18.878906 455.835938 17.707031 449.933594 C 16.53125 444.027344 15.503906 438.097656 14.617188 432.140625 C 13.734375 426.1875 13 420.210938 12.410156 414.222656 C 11.820312 408.230469 11.375 402.226562 11.082031 396.214844 C 10.785156 390.199219 10.636719 384.183594 10.636719 378.164062 C 10.636719 372.140625 10.785156 366.125 11.082031 360.113281 C 11.375 354.097656 11.820312 348.097656 12.410156 342.105469 C 13 336.113281 13.734375 330.140625 14.617188 324.183594 C 15.503906 318.230469 16.53125 312.300781 17.707031 306.394531 C 18.878906 300.488281 20.199219 294.617188 21.664062 288.777344 C 23.125 282.9375 24.730469 277.136719 26.476562 271.375 C 28.226562 265.613281 30.113281 259.898438 32.140625 254.230469 C 34.171875 248.5625 36.335938 242.945312 38.640625 237.382812 C 40.945312 231.820312 43.382812 226.320312 45.957031 220.875 C 48.53125 215.433594 51.238281 210.058594 54.074219 204.746094 C 56.914062 199.4375 59.878906 194.203125 62.976562 189.039062 C 66.070312 183.875 69.289062 178.789062 72.636719 173.78125 C 75.980469 168.777344 79.445312 163.855469 83.03125 159.019531 C 86.617188 154.183594 90.320312 149.4375 94.140625 144.785156 C 97.960938 140.132812 101.890625 135.574219 105.933594 131.113281 C 109.976562 126.652344 114.128906 122.292969 118.386719 118.035156 C 122.644531 113.777344 127 109.628906 131.460938 105.585938 C 135.921875 101.542969 140.480469 97.609375 145.136719 93.792969 C 149.789062 89.972656 154.535156 86.269531 159.371094 82.683594 C 164.207031 79.097656 169.125 75.628906 174.132812 72.285156 C 179.136719 68.941406 184.222656 65.722656 189.386719 62.625 C 194.550781 59.53125 199.789062 56.5625 205.097656 53.726562 C 210.40625 50.886719 215.78125 48.183594 221.226562 45.609375 C 226.667969 43.035156 232.171875 40.59375 237.734375 38.289062 C 243.296875 35.988281 248.910156 33.820312 254.578125 31.792969 C 260.246094 29.765625 265.960938 27.875 271.722656 26.128906 C 277.484375 24.378906 283.285156 22.777344 289.125 21.3125 C 294.964844 19.851562 300.839844 18.53125 306.742188 17.355469 C 312.648438 16.183594 318.578125 15.152344 324.535156 14.269531 C 330.488281 13.386719 336.460938 12.648438 342.453125 12.058594 C 348.445312 11.46875 354.449219 11.027344 360.460938 10.730469 C 366.476562 10.4375 372.492188 10.289062 378.511719 10.289062 C 384.53125 10.289062 390.550781 10.4375 396.5625 10.730469 C 402.578125 11.027344 408.578125 11.46875 414.570312 12.058594 C 420.5625 12.648438 426.535156 13.386719 432.492188 14.269531 C 438.445312 15.152344 444.375 16.183594 450.28125 17.355469 C 456.1875 18.53125 462.058594 19.851562 467.898438 21.3125 C 473.738281 22.777344 479.539062 24.378906 485.300781 26.128906 C 491.0625 27.875 496.777344 29.765625 502.445312 31.792969 C 508.113281 33.820312 513.730469 35.988281 519.292969 38.289062 C 524.855469 40.59375 530.355469 43.035156 535.800781 45.609375 C 541.242188 48.183594 546.617188 50.886719 551.925781 53.726562 C 557.238281 56.5625 562.472656 59.53125 567.636719 62.625 C 572.800781 65.722656 577.886719 68.941406 582.894531 72.285156 C 587.898438 75.628906 592.820312 79.097656 597.65625 82.683594 C 602.492188 86.269531 607.234375 89.972656 611.890625 93.792969 C 616.542969 97.609375 621.101562 101.542969 625.5625 105.585938 C 630.023438 109.628906 634.382812 113.777344 638.640625 118.035156 C 642.894531 122.292969 647.046875 126.652344 651.089844 131.113281 C 655.132812 135.574219 659.0625 140.132812 662.882812 144.785156 C 666.703125 149.4375 670.40625 154.183594 673.992188 159.019531 C 677.578125 163.855469 681.042969 168.777344 684.390625 173.78125 C 687.734375 178.789062 690.953125 183.875 694.050781 189.039062 C 697.144531 194.203125 700.109375 199.4375 702.949219 204.746094 C 705.789062 210.058594 708.492188 215.433594 711.066406 220.875 C 713.640625 226.320312 716.082031 231.820312 718.382812 237.382812 C 720.6875 242.945312 722.855469 248.5625 724.882812 254.230469 C 726.910156 259.898438 728.800781 265.613281 730.546875 271.375 C 732.292969 277.136719 733.898438 282.9375 735.363281 288.777344 C 736.824219 294.617188 738.144531 300.488281 739.320312 306.394531 C 740.492188 312.300781 741.523438 318.230469 742.40625 324.183594 C 743.289062 330.140625 744.027344 336.113281 744.617188 342.105469 C 745.207031 348.097656 745.648438 354.097656 745.945312 360.113281 C 746.238281 366.125 746.386719 372.140625 746.386719 378.164062 Z M 746.386719 378.164062 " fill-opacity="1" fill-rule="nonzero"/></g><g clip-path="url(#97349aeefb)"><path fill="#000000" d="M 378.574219 746.164062 C 173.46875 746.164062 7.324219 578.871094 7.324219 374.914062 C 7.324219 170.953125 173.46875 3.664062 378.574219 3.664062 C 583.679688 3.664062 749.824219 169.808594 749.824219 374.914062 C 749.824219 580.015625 582.53125 746.164062 378.574219 746.164062 Z M 378.574219 26.578125 C 186.074219 26.578125 30.242188 182.414062 30.242188 374.914062 C 30.242188 567.414062 186.074219 723.246094 378.574219 723.246094 C 571.074219 723.246094 726.90625 567.414062 726.90625 374.914062 C 726.90625 182.414062 569.929688 26.578125 378.574219 26.578125 Z M 378.574219 26.578125 " fill-opacity="1" fill-rule="nonzero"/></g><g clip-path="url(#c7131efaf6)"><path fill="#000000" d="M 672.265625 416.335938 L 672.265625 413.632812 L 675.9375 413.632812 L 659.894531 339.785156 L 675.839844 266.902344 L 672.363281 266.902344 L 672.363281 264.199219 L 676.519531 264.199219 L 678.546875 254.351562 L 98.6875 254.351562 L 100.8125 264.101562 L 104.292969 264.101562 L 104.292969 266.902344 L 101.390625 266.902344 L 117.242188 339.785156 L 101.199219 413.632812 L 104.292969 413.632812 L 104.292969 416.335938 L 100.617188 416.335938 L 98.6875 425.21875 L 678.546875 425.21875 L 676.613281 416.335938 Z M 123.621094 416.335938 L 112.023438 416.335938 L 112.023438 413.632812 L 123.621094 413.632812 Z M 123.621094 266.902344 L 112.023438 266.902344 L 112.023438 264.199219 L 123.621094 264.199219 Z M 142.949219 416.335938 L 131.351562 416.335938 L 131.351562 413.632812 L 142.949219 413.632812 Z M 142.949219 266.902344 L 131.351562 266.902344 L 131.351562 264.199219 L 142.949219 264.199219 Z M 162.179688 416.335938 L 150.582031 416.335938 L 150.582031 413.632812 L 162.179688 413.632812 Z M 162.179688 266.902344 L 150.582031 266.902344 L 150.582031 264.199219 L 162.179688 264.199219 Z M 181.507812 416.335938 L 169.910156 416.335938 L 169.910156 413.632812 L 181.507812 413.632812 Z M 181.507812 266.902344 L 169.910156 266.902344 L 169.910156 264.199219 L 181.507812 264.199219 Z M 200.839844 416.335938 L 189.242188 416.335938 L 189.242188 413.632812 L 200.839844 413.632812 Z M 200.839844 266.902344 L 189.242188 266.902344 L 189.242188 264.199219 L 200.839844 264.199219 Z M 220.167969 416.335938 L 208.570312 416.335938 L 208.570312 413.632812 L 220.167969 413.632812 Z M 220.167969 266.902344 L 208.570312 266.902344 L 208.570312 264.199219 L 220.167969 264.199219 Z M 239.496094 416.335938 L 227.898438 416.335938 L 227.898438 413.632812 L 239.496094 413.632812 Z M 239.496094 266.902344 L 227.898438 266.902344 L 227.898438 264.199219 L 239.496094 264.199219 Z M 258.824219 416.335938 L 247.226562 416.335938 L 247.226562 413.632812 L 258.824219 413.632812 Z M 258.824219 266.902344 L 247.226562 266.902344 L 247.226562 264.199219 L 258.824219 264.199219 Z M 278.152344 416.335938 L 266.554688 416.335938 L 266.554688 413.632812 L 278.152344 413.632812 Z M 278.152344 266.902344 L 266.554688 266.902344 L 266.554688 264.199219 L 278.152344 264.199219 Z M 285.882812 416.335938 L 285.882812 413.632812 L 297.480469 413.632812 L 297.480469 416.335938 Z M 285.882812 266.902344 L 285.882812 264.199219 L 297.480469 264.199219 L 297.480469 266.902344 Z M 316.808594 416.335938 L 305.214844 416.335938 L 305.214844 413.632812 L 316.808594 413.632812 Z M 316.808594 266.902344 L 305.214844 266.902344 L 305.214844 264.199219 L 316.808594 264.199219 Z M 336.140625 416.335938 L 324.542969 416.335938 L 324.542969 413.632812 L 336.140625 413.632812 Z M 336.140625 266.902344 L 324.542969 266.902344 L 324.542969 264.199219 L 336.140625 264.199219 Z M 355.46875 416.335938 L 343.871094 416.335938 L 343.871094 413.632812 L 355.46875 413.632812 Z M 355.46875 266.902344 L 343.871094 266.902344 L 343.871094 264.199219 L 355.46875 264.199219 Z M 374.796875 416.335938 L 363.199219 416.335938 L 363.199219 413.632812 L 374.796875 413.632812 Z M 374.796875 266.902344 L 363.199219 266.902344 L 363.199219 264.199219 L 374.796875 264.199219 Z M 394.125 416.335938 L 382.527344 416.335938 L 382.527344 413.632812 L 394.125 413.632812 Z M 394.125 266.902344 L 382.527344 266.902344 L 382.527344 264.199219 L 394.125 264.199219 Z M 413.355469 416.335938 L 401.761719 416.335938 L 401.761719 413.632812 L 413.355469 413.632812 Z M 413.355469 266.902344 L 401.761719 266.902344 L 401.761719 264.199219 L 413.355469 264.199219 Z M 432.6875 416.335938 L 421.089844 416.335938 L 421.089844 413.632812 L 432.6875 413.632812 Z M 432.6875 266.902344 L 421.089844 266.902344 L 421.089844 264.199219 L 432.6875 264.199219 Z M 452.015625 416.335938 L 440.417969 416.335938 L 440.417969 413.632812 L 452.015625 413.632812 Z M 452.015625 266.902344 L 440.417969 266.902344 L 440.417969 264.199219 L 452.015625 264.199219 Z M 471.34375 416.335938 L 459.746094 416.335938 L 459.746094 413.632812 L 471.34375 413.632812 Z M 471.34375 266.902344 L 459.746094 266.902344 L 459.746094 264.199219 L 471.34375 264.199219 Z M 490.671875 416.335938 L 479.074219 416.335938 L 479.074219 413.632812 L 490.671875 413.632812 Z M 490.671875 266.902344 L 479.074219 266.902344 L 479.074219 264.199219 L 490.671875 264.199219 Z M 510 416.335938 L 498.402344 416.335938 L 498.402344 413.632812 L 510 413.632812 Z M 510 266.902344 L 498.402344 266.902344 L 498.402344 264.199219 L 510 264.199219 Z M 529.328125 416.335938 L 517.734375 416.335938 L 517.734375 413.632812 L 529.328125 413.632812 Z M 529.328125 266.902344 L 517.734375 266.902344 L 517.734375 264.199219 L 529.328125 264.199219 Z M 548.660156 416.335938 L 537.0625 416.335938 L 537.0625 413.632812 L 548.660156 413.632812 Z M 548.660156 266.902344 L 537.0625 266.902344 L 537.0625 264.199219 L 548.660156 264.199219 Z M 567.988281 416.335938 L 556.390625 416.335938 L 556.390625 413.632812 L 567.988281 413.632812 Z M 567.988281 266.902344 L 556.390625 266.902344 L 556.390625 264.199219 L 567.988281 264.199219 Z M 587.316406 416.335938 L 575.71875 416.335938 L 575.71875 413.632812 L 587.316406 413.632812 Z M 587.316406 266.902344 L 575.71875 266.902344 L 575.71875 264.199219 L 587.316406 264.199219 Z M 606.644531 416.335938 L 595.046875 416.335938 L 595.046875 413.632812 L 606.644531 413.632812 Z M 606.644531 266.902344 L 595.046875 266.902344 L 595.046875 264.199219 L 606.644531 264.199219 Z M 625.972656 416.335938 L 614.375 416.335938 L 614.375 413.632812 L 625.972656 413.632812 Z M 625.972656 266.902344 L 614.375 266.902344 L 614.375 264.199219 L 625.972656 264.199219 Z M 653.035156 264.101562 L 664.628906 264.101562 L 664.628906 266.902344 L 653.035156 266.902344 Z M 645.300781 416.335938 L 633.703125 416.335938 L 633.703125 413.632812 L 645.300781 413.632812 Z M 645.300781 266.902344 L 633.703125 266.902344 L 633.703125 264.199219 L 645.300781 264.199219 Z M 664.628906 416.335938 L 653.035156 416.335938 L 653.035156 413.632812 L 664.628906 413.632812 Z M 664.628906 416.335938 " fill-opacity="1" fill-rule="nonzero"/></g><path fill="#a6a6a6" d="M 305.214844 264.101562 L 316.808594 264.101562 L 316.808594 266.804688 L 305.214844 266.804688 Z M 305.214844 264.101562 " fill-opacity="1" fill-rule="nonzero"/><path fill="#a6a6a6" d="M 285.882812 264.101562 L 297.480469 264.101562 L 297.480469 266.804688 L 285.882812 266.804688 Z M 285.882812 264.101562 " fill-opacity="1" fill-rule="nonzero"/><path fill="#a6a6a6" d="M 247.226562 264.101562 L 258.824219 264.101562 L 258.824219 266.804688 L 247.226562 266.804688 Z M 247.226562 264.101562 " fill-opacity="1" fill-rule="nonzero"/><path fill="#a6a6a6" d="M 285.882812 413.632812 L 297.480469 413.632812 L 297.480469 416.335938 L 285.882812 416.335938 Z M 285.882812 413.632812 " fill-opacity="1" fill-rule="nonzero"/><path fill="#a6a6a6" d="M 266.554688 413.632812 L 278.152344 413.632812 L 278.152344 416.335938 L 266.554688 416.335938 Z M 266.554688 413.632812 " fill-opacity="1" fill-rule="nonzero"/><path fill="#a6a6a6" d="M 266.554688 264.101562 L 278.152344 264.101562 L 278.152344 266.804688 L 266.554688 266.804688 Z M 266.554688 264.101562 " fill-opacity="1" fill-rule="nonzero"/><path fill="#a6a6a6" d="M 305.214844 413.632812 L 316.808594 413.632812 L 316.808594 416.335938 L 305.214844 416.335938 Z M 305.214844 413.632812 " fill-opacity="1" fill-rule="nonzero"/><path fill="#a6a6a6" d="M 363.199219 264.101562 L 374.796875 264.101562 L 374.796875 266.804688 L 363.199219 266.804688 Z M 363.199219 264.101562 " fill-opacity="1" fill-rule="nonzero"/><path fill="#a6a6a6" d="M 382.527344 413.632812 L 394.125 413.632812 L 394.125 416.335938 L 382.527344 416.335938 Z M 382.527344 413.632812 " fill-opacity="1" fill-rule="nonzero"/><path fill="#a6a6a6" d="M 324.542969 413.632812 L 336.140625 413.632812 L 336.140625 416.335938 L 324.542969 416.335938 Z M 324.542969 413.632812 " fill-opacity="1" fill-rule="nonzero"/><path fill="#a6a6a6" d="M 363.199219 413.632812 L 374.796875 413.632812 L 374.796875 416.335938 L 363.199219 416.335938 Z M 363.199219 413.632812 " fill-opacity="1" fill-rule="nonzero"/><path fill="#a6a6a6" d="M 343.871094 264.101562 L 355.46875 264.101562 L 355.46875 266.804688 L 343.871094 266.804688 Z M 343.871094 264.101562 " fill-opacity="1" fill-rule="nonzero"/><path fill="#a6a6a6" d="M 324.542969 264.101562 L 336.140625 264.101562 L 336.140625 266.804688 L 324.542969 266.804688 Z M 324.542969 264.101562 " fill-opacity="1" fill-rule="nonzero"/><path fill="#a6a6a6" d="M 343.871094 413.632812 L 355.46875 413.632812 L 355.46875 416.335938 L 343.871094 416.335938 Z M 343.871094 413.632812 " fill-opacity="1" fill-rule="nonzero"/><path fill="#a6a6a6" d="M 247.226562 413.632812 L 258.824219 413.632812 L 258.824219 416.335938 L 247.226562 416.335938 Z M 247.226562 413.632812 " fill-opacity="1" fill-rule="nonzero"/><path fill="#a6a6a6" d="M 169.910156 264.101562 L 181.507812 264.101562 L 181.507812 266.804688 L 169.910156 266.804688 Z M 169.910156 264.101562 " fill-opacity="1" fill-rule="nonzero"/><path fill="#a6a6a6" d="M 169.910156 413.632812 L 181.507812 413.632812 L 181.507812 416.335938 L 169.910156 416.335938 Z M 169.910156 413.632812 " fill-opacity="1" fill-rule="nonzero"/><path fill="#a6a6a6" d="M 150.679688 413.632812 L 162.277344 413.632812 L 162.277344 416.335938 L 150.679688 416.335938 Z M 150.679688 413.632812 " fill-opacity="1" fill-rule="nonzero"/><path fill="#a6a6a6" d="M 150.679688 264.101562 L 162.277344 264.101562 L 162.277344 266.804688 L 150.679688 266.804688 Z M 150.679688 264.101562 " fill-opacity="1" fill-rule="nonzero"/><path fill="#a6a6a6" d="M 131.351562 413.632812 L 142.949219 413.632812 L 142.949219 416.335938 L 131.351562 416.335938 Z M 131.351562 413.632812 " fill-opacity="1" fill-rule="nonzero"/><path fill="#a6a6a6" d="M 131.351562 264.101562 L 142.949219 264.101562 L 142.949219 266.804688 L 131.351562 266.804688 Z M 131.351562 264.101562 " fill-opacity="1" fill-rule="nonzero"/><path fill="#a6a6a6" d="M 189.242188 264.101562 L 200.839844 264.101562 L 200.839844 266.804688 L 189.242188 266.804688 Z M 189.242188 264.101562 " fill-opacity="1" fill-rule="nonzero"/><path fill="#a6a6a6" d="M 227.898438 413.632812 L 239.496094 413.632812 L 239.496094 416.335938 L 227.898438 416.335938 Z M 227.898438 413.632812 " fill-opacity="1" fill-rule="nonzero"/><path fill="#a6a6a6" d="M 189.242188 413.632812 L 200.839844 413.632812 L 200.839844 416.335938 L 189.242188 416.335938 Z M 189.242188 413.632812 " fill-opacity="1" fill-rule="nonzero"/><path fill="#a6a6a6" d="M 208.570312 264.101562 L 220.167969 264.101562 L 220.167969 266.804688 L 208.570312 266.804688 Z M 208.570312 264.101562 " fill-opacity="1" fill-rule="nonzero"/><path fill="#a6a6a6" d="M 227.898438 264.101562 L 239.496094 264.101562 L 239.496094 266.804688 L 227.898438 266.804688 Z M 227.898438 264.101562 " fill-opacity="1" fill-rule="nonzero"/><path fill="#a6a6a6" d="M 208.570312 413.632812 L 220.167969 413.632812 L 220.167969 416.335938 L 208.570312 416.335938 Z M 208.570312 413.632812 " fill-opacity="1" fill-rule="nonzero"/><path fill="#a6a6a6" d="M 382.527344 264.101562 L 394.125 264.101562 L 394.125 266.804688 L 382.527344 266.804688 Z M 382.527344 264.101562 " fill-opacity="1" fill-rule="nonzero"/><path fill="#a6a6a6" d="M 595.046875 264.101562 L 606.644531 264.101562 L 606.644531 266.804688 L 595.046875 266.804688 Z M 595.046875 264.101562 " fill-opacity="1" fill-rule="nonzero"/><path fill="#a6a6a6" d="M 556.390625 413.632812 L 567.988281 413.632812 L 567.988281 416.335938 L 556.390625 416.335938 Z M 556.390625 413.632812 " fill-opacity="1" fill-rule="nonzero"/><path fill="#a6a6a6" d="M 556.390625 264.101562 L 567.988281 264.101562 L 567.988281 266.804688 L 556.390625 266.804688 Z M 556.390625 264.101562 " fill-opacity="1" fill-rule="nonzero"/><path fill="#a6a6a6" d="M 537.0625 264.101562 L 548.660156 264.101562 L 548.660156 266.804688 L 537.0625 266.804688 Z M 537.0625 264.101562 " fill-opacity="1" fill-rule="nonzero"/><path fill="#a6a6a6" d="M 517.734375 264.101562 L 529.328125 264.101562 L 529.328125 266.804688 L 517.734375 266.804688 Z M 517.734375 264.101562 " fill-opacity="1" fill-rule="nonzero"/><path fill="#a6a6a6" d="M 537.0625 413.632812 L 548.660156 413.632812 L 548.660156 416.335938 L 537.0625 416.335938 Z M 537.0625 413.632812 " fill-opacity="1" fill-rule="nonzero"/><path fill="#a6a6a6" d="M 614.375 413.632812 L 625.972656 413.632812 L 625.972656 416.335938 L 614.375 416.335938 Z M 614.375 413.632812 " fill-opacity="1" fill-rule="nonzero"/><path fill="#a6a6a6" d="M 575.71875 413.632812 L 587.316406 413.632812 L 587.316406 416.335938 L 575.71875 416.335938 Z M 575.71875 413.632812 " fill-opacity="1" fill-rule="nonzero"/><path fill="#a6a6a6" d="M 517.734375 413.632812 L 529.328125 413.632812 L 529.328125 416.335938 L 517.734375 416.335938 Z M 517.734375 413.632812 " fill-opacity="1" fill-rule="nonzero"/><path fill="#a6a6a6" d="M 614.375 264.101562 L 625.972656 264.101562 L 625.972656 266.804688 L 614.375 266.804688 Z M 614.375 264.101562 " fill-opacity="1" fill-rule="nonzero"/><path fill="#a6a6a6" d="M 595.046875 413.632812 L 606.644531 413.632812 L 606.644531 416.335938 L 595.046875 416.335938 Z M 595.046875 413.632812 " fill-opacity="1" fill-rule="nonzero"/><path fill="#a6a6a6" d="M 575.71875 264.101562 L 587.316406 264.101562 L 587.316406 266.804688 L 575.71875 266.804688 Z M 575.71875 264.101562 " fill-opacity="1" fill-rule="nonzero"/><path fill="#a6a6a6" d="M 459.746094 264.101562 L 471.34375 264.101562 L 471.34375 266.804688 L 459.746094 266.804688 Z M 459.746094 264.101562 " fill-opacity="1" fill-rule="nonzero"/><path fill="#a6a6a6" d="M 421.089844 264.101562 L 432.6875 264.101562 L 432.6875 266.804688 L 421.089844 266.804688 Z M 421.089844 264.101562 " fill-opacity="1" fill-rule="nonzero"/><path fill="#a6a6a6" d="M 440.417969 413.632812 L 452.015625 413.632812 L 452.015625 416.335938 L 440.417969 416.335938 Z M 440.417969 413.632812 " fill-opacity="1" fill-rule="nonzero"/><path fill="#a6a6a6" d="M 401.855469 264.101562 L 413.453125 264.101562 L 413.453125 266.804688 L 401.855469 266.804688 Z M 401.855469 264.101562 " fill-opacity="1" fill-rule="nonzero"/><path fill="#a6a6a6" d="M 421.089844 413.632812 L 432.6875 413.632812 L 432.6875 416.335938 L 421.089844 416.335938 Z M 421.089844 413.632812 " fill-opacity="1" fill-rule="nonzero"/><path fill="#a6a6a6" d="M 440.417969 264.101562 L 452.015625 264.101562 L 452.015625 266.804688 L 440.417969 266.804688 Z M 440.417969 264.101562 " fill-opacity="1" fill-rule="nonzero"/><path fill="#a6a6a6" d="M 498.402344 264.101562 L 510 264.101562 L 510 266.804688 L 498.402344 266.804688 Z M 498.402344 264.101562 " fill-opacity="1" fill-rule="nonzero"/><path fill="#a6a6a6" d="M 498.402344 413.632812 L 510 413.632812 L 510 416.335938 L 498.402344 416.335938 Z M 498.402344 413.632812 " fill-opacity="1" fill-rule="nonzero"/><path fill="#a6a6a6" d="M 479.074219 264.101562 L 490.671875 264.101562 L 490.671875 266.804688 L 479.074219 266.804688 Z M 479.074219 264.101562 " fill-opacity="1" fill-rule="nonzero"/><path fill="#a6a6a6" d="M 479.074219 413.632812 L 490.671875 413.632812 L 490.671875 416.335938 L 479.074219 416.335938 Z M 479.074219 413.632812 " fill-opacity="1" fill-rule="nonzero"/><path fill="#a6a6a6" d="M 401.855469 413.632812 L 413.453125 413.632812 L 413.453125 416.335938 L 401.855469 416.335938 Z M 401.855469 413.632812 " fill-opacity="1" fill-rule="nonzero"/><path fill="#a6a6a6" d="M 459.746094 413.632812 L 471.34375 413.632812 L 471.34375 416.335938 L 459.746094 416.335938 Z M 459.746094 413.632812 " fill-opacity="1" fill-rule="nonzero"/><path fill="#a6a6a6" d="M 653.035156 264.101562 L 664.628906 264.101562 L 664.628906 266.804688 L 653.035156 266.804688 Z M 653.035156 264.101562 " fill-opacity="1" fill-rule="nonzero"/><path fill="#a6a6a6" d="M 676.421875 264.101562 L 672.265625 264.101562 L 672.265625 266.902344 L 675.839844 266.902344 Z M 676.421875 264.101562 " fill-opacity="1" fill-rule="nonzero"/><path fill="#a6a6a6" d="M 676.035156 413.632812 L 672.265625 413.632812 L 672.265625 416.335938 L 676.613281 416.335938 Z M 676.035156 413.632812 " fill-opacity="1" fill-rule="nonzero"/><path fill="#a6a6a6" d="M 633.703125 264.101562 L 645.300781 264.101562 L 645.300781 266.804688 L 633.703125 266.804688 Z M 633.703125 264.101562 " fill-opacity="1" fill-rule="nonzero"/><path fill="#a6a6a6" d="M 633.703125 413.632812 L 645.300781 413.632812 L 645.300781 416.335938 L 633.703125 416.335938 Z M 633.703125 413.632812 " fill-opacity="1" fill-rule="nonzero"/><path fill="#a6a6a6" d="M 653.035156 413.632812 L 664.628906 413.632812 L 664.628906 416.335938 L 653.035156 416.335938 Z M 653.035156 413.632812 " fill-opacity="1" fill-rule="nonzero"/><path fill="#a6a6a6" d="M 100.617188 416.335938 L 104.292969 416.335938 L 104.292969 413.632812 L 101.199219 413.632812 Z M 100.617188 416.335938 " fill-opacity="1" fill-rule="nonzero"/><path fill="#a6a6a6" d="M 101.390625 266.902344 L 104.292969 266.902344 L 104.292969 264.101562 L 100.8125 264.101562 Z M 101.390625 266.902344 " fill-opacity="1" fill-rule="nonzero"/><path fill="#a6a6a6" d="M 112.023438 413.632812 L 123.621094 413.632812 L 123.621094 416.335938 L 112.023438 416.335938 Z M 112.023438 413.632812 " fill-opacity="1" fill-rule="nonzero"/><path fill="#a6a6a6" d="M 112.023438 264.101562 L 123.621094 264.101562 L 123.621094 266.804688 L 112.023438 266.804688 Z M 112.023438 264.101562 " fill-opacity="1" fill-rule="nonzero"/></svg>