<svg xmlns="http://www.w3.org/2000/svg" xmlns:xlink="http://www.w3.org/1999/xlink" width="1000" zoomAndPan="magnify" viewBox="0 0 750 749.999995" height="1000" preserveAspectRatio="xMidYMid meet" version="1.0"><defs><clipPath id="5538327fb5"><path d="M 12.605469 6.023438 L 743.855469 6.023438 L 743.855469 737.273438 L 12.605469 737.273438 Z M 12.605469 6.023438 " clip-rule="nonzero"/></clipPath><clipPath id="a052152a57"><path d="M 6.023438 6.023438 L 744.023438 6.023438 L 744.023438 744.023438 L 6.023438 744.023438 Z M 6.023438 6.023438 " clip-rule="nonzero"/></clipPath><clipPath id="df99e677c9"><path d="M 327.167969 77.820312 L 429.167969 77.820312 L 429.167969 645.570312 L 327.167969 645.570312 Z M 327.167969 77.820312 " clip-rule="nonzero"/></clipPath></defs><g clip-path="url(#5538327fb5)"><path fill="#b309c7" d="M 743.855469 371.648438 C 743.855469 377.632812 743.710938 383.613281 743.414062 389.589844 C 743.121094 395.566406 742.683594 401.53125 742.09375 407.484375 C 741.507812 413.441406 740.777344 419.378906 739.898438 425.296875 C 739.019531 431.214844 738 437.109375 736.832031 442.976562 C 735.664062 448.847656 734.351562 454.683594 732.898438 460.488281 C 731.445312 466.292969 729.847656 472.058594 728.113281 477.785156 C 726.375 483.507812 724.5 489.1875 722.484375 494.824219 C 720.46875 500.457031 718.3125 506.039062 716.023438 511.566406 C 713.734375 517.09375 711.308594 522.5625 708.753906 527.972656 C 706.195312 533.382812 703.503906 538.726562 700.683594 544.003906 C 697.863281 549.28125 694.914062 554.484375 691.839844 559.617188 C 688.761719 564.75 685.5625 569.804688 682.238281 574.777344 C 678.914062 579.753906 675.46875 584.644531 671.902344 589.449219 C 668.339844 594.257812 664.660156 598.972656 660.863281 603.597656 C 657.066406 608.222656 653.160156 612.753906 649.140625 617.1875 C 645.121094 621.621094 641 625.953125 636.765625 630.183594 C 632.535156 634.414062 628.203125 638.539062 623.769531 642.558594 C 619.335938 646.578125 614.808594 650.484375 610.179688 654.28125 C 605.554688 658.074219 600.839844 661.757812 596.035156 665.320312 C 591.226562 668.886719 586.335938 672.328125 581.363281 675.652344 C 576.386719 678.976562 571.332031 682.179688 566.199219 685.253906 C 561.066406 688.332031 555.863281 691.28125 550.585938 694.101562 C 545.308594 696.921875 539.964844 699.609375 534.554688 702.167969 C 529.148438 704.726562 523.679688 707.152344 518.148438 709.441406 C 512.621094 711.730469 507.039062 713.882812 501.40625 715.898438 C 495.773438 717.914062 490.09375 719.792969 484.367188 721.527344 C 478.640625 723.265625 472.875 724.863281 467.070312 726.316406 C 461.265625 727.769531 455.429688 729.078125 449.5625 730.246094 C 443.691406 731.414062 437.796875 732.4375 431.878906 733.316406 C 425.960938 734.195312 420.023438 734.925781 414.070312 735.511719 C 408.113281 736.097656 402.148438 736.539062 396.171875 736.832031 C 390.195312 737.125 384.214844 737.273438 378.230469 737.273438 C 372.246094 737.273438 366.265625 737.125 360.289062 736.832031 C 354.3125 736.539062 348.347656 736.097656 342.394531 735.511719 C 336.4375 734.925781 330.5 734.195312 324.582031 733.316406 C 318.664062 732.4375 312.769531 731.414062 306.902344 730.246094 C 301.03125 729.078125 295.195312 727.769531 289.390625 726.316406 C 283.585938 724.863281 277.820312 723.265625 272.097656 721.527344 C 266.371094 719.792969 260.691406 717.914062 255.054688 715.898438 C 249.421875 713.882812 243.839844 711.730469 238.3125 709.441406 C 232.785156 707.152344 227.316406 704.726562 221.90625 702.167969 C 216.496094 699.609375 211.152344 696.921875 205.875 694.101562 C 200.601562 691.28125 195.394531 688.332031 190.261719 685.253906 C 185.128906 682.179688 180.074219 678.976562 175.101562 675.652344 C 170.125 672.328125 165.234375 668.886719 160.429688 665.320312 C 155.621094 661.757812 150.90625 658.074219 146.28125 654.28125 C 141.65625 650.484375 137.125 646.578125 132.691406 642.558594 C 128.257812 638.539062 123.925781 634.414062 119.695312 630.183594 C 115.464844 625.953125 111.339844 621.621094 107.320312 617.1875 C 103.300781 612.753906 99.394531 608.222656 95.597656 603.597656 C 91.804688 598.972656 88.121094 594.257812 84.558594 589.449219 C 80.992188 584.644531 77.550781 579.753906 74.226562 574.777344 C 70.902344 569.804688 67.699219 564.75 64.625 559.617188 C 61.546875 554.484375 58.597656 549.28125 55.777344 544.003906 C 52.957031 538.726562 50.269531 533.382812 47.710938 527.972656 C 45.152344 522.5625 42.726562 517.09375 40.4375 511.566406 C 38.148438 506.039062 35.996094 500.457031 33.980469 494.824219 C 31.964844 489.1875 30.085938 483.507812 28.351562 477.785156 C 26.613281 472.058594 25.015625 466.292969 23.5625 460.488281 C 22.109375 454.683594 20.800781 448.847656 19.632812 442.976562 C 18.464844 437.109375 17.441406 431.214844 16.5625 425.296875 C 15.6875 419.378906 14.953125 413.441406 14.367188 407.484375 C 13.78125 401.53125 13.339844 395.566406 13.046875 389.589844 C 12.753906 383.613281 12.605469 377.632812 12.605469 371.648438 C 12.605469 365.664062 12.753906 359.683594 13.046875 353.707031 C 13.339844 347.730469 13.78125 341.765625 14.367188 335.808594 C 14.953125 329.855469 15.6875 323.917969 16.5625 318 C 17.441406 312.082031 18.464844 306.1875 19.632812 300.316406 C 20.800781 294.449219 22.109375 288.613281 23.5625 282.808594 C 25.015625 277.003906 26.613281 271.238281 28.351562 265.511719 C 30.085938 259.785156 31.964844 254.105469 33.980469 248.472656 C 35.996094 242.839844 38.148438 237.257812 40.4375 231.730469 C 42.726562 226.199219 45.152344 220.730469 47.710938 215.324219 C 50.269531 209.914062 52.957031 204.570312 55.777344 199.292969 C 58.597656 194.015625 61.546875 188.8125 64.625 183.679688 C 67.699219 178.546875 70.902344 173.492188 74.226562 168.519531 C 77.550781 163.542969 80.992188 158.652344 84.558594 153.84375 C 88.121094 149.039062 91.804688 144.324219 95.597656 139.699219 C 99.394531 135.074219 103.300781 130.542969 107.320312 126.109375 C 111.339844 121.675781 115.464844 117.34375 119.695312 113.113281 C 123.925781 108.882812 128.257812 104.757812 132.691406 100.738281 C 137.125 96.71875 141.65625 92.8125 146.28125 89.015625 C 150.90625 85.21875 155.621094 81.539062 160.429688 77.976562 C 165.234375 74.410156 170.125 70.964844 175.101562 67.640625 C 180.074219 64.316406 185.128906 61.117188 190.261719 58.039062 C 195.394531 54.964844 200.601562 52.015625 205.875 49.195312 C 211.152344 46.375 216.496094 43.683594 221.90625 41.125 C 227.316406 38.570312 232.785156 36.144531 238.3125 33.855469 C 243.839844 31.566406 249.421875 29.410156 255.054688 27.394531 C 260.691406 25.378906 266.371094 23.503906 272.097656 21.765625 C 277.820312 20.03125 283.585938 18.433594 289.390625 16.980469 C 295.195312 15.527344 301.03125 14.214844 306.902344 13.046875 C 312.769531 11.882812 318.664062 10.859375 324.582031 9.980469 C 330.5 9.101562 336.4375 8.371094 342.394531 7.785156 C 348.347656 7.195312 354.3125 6.757812 360.289062 6.464844 C 366.265625 6.167969 372.246094 6.023438 378.230469 6.023438 C 384.214844 6.023438 390.195312 6.167969 396.171875 6.464844 C 402.148438 6.757812 408.113281 7.195312 414.070312 7.785156 C 420.023438 8.371094 425.960938 9.101562 431.878906 9.980469 C 437.796875 10.859375 443.691406 11.882812 449.5625 13.046875 C 455.429688 14.214844 461.265625 15.527344 467.070312 16.980469 C 472.875 18.433594 478.640625 20.03125 484.367188 21.765625 C 490.09375 23.503906 495.773438 25.378906 501.40625 27.394531 C 507.039062 29.410156 512.621094 31.566406 518.148438 33.855469 C 523.679688 36.144531 529.148438 38.570312 534.554688 41.125 C 539.964844 43.683594 545.308594 46.375 550.585938 49.195312 C 555.863281 52.015625 561.066406 54.964844 566.199219 58.039062 C 571.332031 61.117188 576.386719 64.316406 581.363281 67.640625 C 586.335938 70.964844 591.226562 74.410156 596.035156 77.976562 C 600.839844 81.539062 605.554688 85.21875 610.179688 89.015625 C 614.808594 92.8125 619.335938 96.71875 623.769531 100.738281 C 628.203125 104.757812 632.535156 108.882812 636.765625 113.113281 C 641 117.34375 645.121094 121.675781 649.140625 126.109375 C 653.160156 130.542969 657.066406 135.074219 660.863281 139.699219 C 664.660156 144.324219 668.339844 149.039062 671.902344 153.84375 C 675.46875 158.652344 678.914062 163.542969 682.238281 168.519531 C 685.5625 173.492188 688.761719 178.546875 691.839844 183.679688 C 694.914062 188.8125 697.863281 194.015625 700.683594 199.292969 C 703.503906 204.570312 706.195312 209.914062 708.753906 215.324219 C 711.308594 220.730469 713.734375 226.199219 716.023438 231.730469 C 718.3125 237.257812 720.46875 242.839844 722.484375 248.472656 C 724.5 254.105469 726.375 259.785156 728.113281 265.511719 C 729.847656 271.238281 731.445312 277.003906 732.898438 282.808594 C 734.351562 288.613281 735.664062 294.449219 736.832031 300.316406 C 738 306.1875 739.019531 312.082031 739.898438 318 C 740.777344 323.917969 741.507812 329.855469 742.097656 335.808594 C 742.683594 341.765625 743.121094 347.730469 743.414062 353.707031 C 743.710938 359.683594 743.855469 365.664062 743.855469 371.648438 Z M 743.855469 371.648438 " fill-opacity="1" fill-rule="nonzero"/></g><g clip-path="url(#a052152a57)"><path fill="#000000" d="M 375.023438 744.023438 C 171.160156 744.023438 6.023438 577.746094 6.023438 375.023438 C 6.023438 172.300781 171.160156 6.023438 375.023438 6.023438 C 578.882812 6.023438 744.023438 171.160156 744.023438 375.023438 C 744.023438 578.882812 577.746094 744.023438 375.023438 744.023438 Z M 375.023438 28.800781 C 183.691406 28.800781 28.800781 183.691406 28.800781 375.023438 C 28.800781 566.355469 183.691406 721.246094 375.023438 721.246094 C 566.355469 721.246094 721.246094 566.355469 721.246094 375.023438 C 721.246094 183.691406 565.21875 28.800781 375.023438 28.800781 Z M 375.023438 28.800781 " fill-opacity="1" fill-rule="nonzero"/></g><path stroke-linecap="butt" transform="matrix(3.722628, 0, 0, 3.729411, 5.906692, -9.939267)" fill-opacity="1" fill="#000000" fill-rule="evenodd" stroke-linejoin="miter" d="M 88.250298 153.300496 L 111.760448 153.300496 L 111.760448 173.99956 L 88.250298 173.99956 Z M 88.250298 153.300496 " stroke="#000000" stroke-width="1" stroke-opacity="1" stroke-miterlimit="22.926001"/><path fill="#000000" d="M 354.34375 501.550781 L 330.929688 208.714844 L 330.929688 86.242188 L 425.410156 86.242188 L 425.410156 208.714844 L 403.742188 501.550781 Z M 354.34375 501.550781 " fill-opacity="1" fill-rule="evenodd"/><g clip-path="url(#df99e677c9)"><path stroke-linecap="butt" transform="matrix(3.722628, 0, 0, 3.729411, 5.906692, -9.939267)" fill="none" stroke-linejoin="miter" d="M 93.599762 137.150366 L 87.310102 58.629667 L 87.310102 25.789987 L 112.69015 25.789987 L 112.69015 58.629667 L 106.869539 137.150366 Z M 93.599762 137.150366 " stroke="#000000" stroke-width="2" stroke-opacity="1" stroke-miterlimit="22.926001"/></g></svg>