<svg xmlns="http://www.w3.org/2000/svg" xmlns:xlink="http://www.w3.org/1999/xlink" width="1000" zoomAndPan="magnify" viewBox="0 0 750 749.999995" height="1000" preserveAspectRatio="xMidYMid meet" version="1.0"><defs><clipPath id="64e8374ef4"><path d="M 6.699219 13.269531 L 736.449219 13.269531 L 736.449219 743.019531 L 6.699219 743.019531 Z M 6.699219 13.269531 " clip-rule="nonzero"/></clipPath><clipPath id="259b4cd7a8"><path d="M 6.699219 6.699219 L 743.199219 6.699219 L 743.199219 743.199219 L 6.699219 743.199219 Z M 6.699219 6.699219 " clip-rule="nonzero"/></clipPath><clipPath id="4b328825d4"><path d="M 327 537 L 410 537 L 410 622.507812 L 327 622.507812 Z M 327 537 " clip-rule="nonzero"/></clipPath></defs><g clip-path="url(#64e8374ef4)"><path fill="#b309c7" d="M 736.449219 378.144531 C 736.449219 384.113281 736.300781 390.082031 736.007812 396.046875 C 735.714844 402.011719 735.277344 407.964844 734.691406 413.90625 C 734.105469 419.851562 733.375 425.773438 732.5 431.683594 C 731.621094 437.589844 730.601562 443.46875 729.4375 449.328125 C 728.269531 455.183594 726.964844 461.007812 725.511719 466.800781 C 724.0625 472.59375 722.46875 478.347656 720.734375 484.0625 C 719.003906 489.777344 717.128906 495.445312 715.117188 501.066406 C 713.105469 506.6875 710.957031 512.257812 708.671875 517.773438 C 706.386719 523.292969 703.96875 528.75 701.414062 534.148438 C 698.863281 539.546875 696.179688 544.878906 693.363281 550.144531 C 690.546875 555.410156 687.605469 560.605469 684.535156 565.726562 C 681.464844 570.847656 678.273438 575.890625 674.953125 580.855469 C 671.636719 585.824219 668.199219 590.703125 664.644531 595.5 C 661.085938 600.296875 657.414062 605 653.625 609.617188 C 649.835938 614.234375 645.9375 618.753906 641.925781 623.179688 C 637.917969 627.601562 633.800781 631.925781 629.578125 636.148438 C 625.355469 640.371094 621.03125 644.488281 616.609375 648.5 C 612.183594 652.507812 607.664062 656.40625 603.046875 660.195312 C 598.429688 663.984375 593.722656 667.65625 588.929688 671.214844 C 584.132812 674.769531 579.25 678.207031 574.285156 681.527344 C 569.320312 684.84375 564.277344 688.039062 559.15625 691.105469 C 554.035156 694.175781 548.839844 697.121094 543.574219 699.933594 C 538.308594 702.75 532.976562 705.433594 527.578125 707.988281 C 522.179688 710.539062 516.722656 712.957031 511.203125 715.242188 C 505.6875 717.527344 500.117188 719.675781 494.496094 721.691406 C 488.871094 723.703125 483.203125 725.574219 477.488281 727.308594 C 471.777344 729.039062 466.023438 730.632812 460.230469 732.082031 C 454.4375 733.535156 448.613281 734.84375 442.757812 736.007812 C 436.898438 737.171875 431.015625 738.191406 425.109375 739.070312 C 419.203125 739.945312 413.277344 740.675781 407.335938 741.261719 C 401.394531 741.847656 395.441406 742.285156 389.476562 742.578125 C 383.511719 742.871094 377.542969 743.019531 371.574219 743.019531 C 365.601562 743.019531 359.632812 742.871094 353.667969 742.578125 C 347.703125 742.285156 341.75 741.847656 335.808594 741.261719 C 329.867188 740.675781 323.941406 739.945312 318.035156 739.070312 C 312.128906 738.191406 306.246094 737.171875 300.390625 736.007812 C 294.53125 734.84375 288.707031 733.535156 282.914062 732.082031 C 277.121094 730.632812 271.367188 729.039062 265.65625 727.308594 C 259.941406 725.574219 254.273438 723.703125 248.648438 721.691406 C 243.027344 719.675781 237.457031 717.527344 231.941406 715.242188 C 226.421875 712.957031 220.964844 710.539062 215.566406 707.988281 C 210.171875 705.433594 204.835938 702.75 199.570312 699.933594 C 194.304688 697.121094 189.109375 694.175781 183.988281 691.105469 C 178.867188 688.039062 173.824219 684.84375 168.859375 681.527344 C 163.894531 678.207031 159.011719 674.769531 154.214844 671.214844 C 149.421875 667.65625 144.714844 663.984375 140.097656 660.195312 C 135.480469 656.40625 130.960938 652.507812 126.539062 648.5 C 122.113281 644.488281 117.789062 640.371094 113.566406 636.148438 C 109.34375 631.925781 105.226562 627.601562 101.21875 623.179688 C 97.207031 618.753906 93.308594 614.234375 89.519531 609.617188 C 85.730469 605 82.058594 600.296875 78.503906 595.5 C 74.945312 590.703125 71.507812 585.824219 68.191406 580.855469 C 64.871094 575.890625 61.679688 570.847656 58.609375 565.726562 C 55.539062 560.605469 52.597656 555.410156 49.78125 550.144531 C 46.964844 544.878906 44.28125 539.546875 41.730469 534.148438 C 39.175781 528.75 36.757812 523.292969 34.472656 517.773438 C 32.1875 512.257812 30.039062 506.6875 28.027344 501.066406 C 26.015625 495.445312 24.140625 489.777344 22.410156 484.0625 C 20.675781 478.347656 19.082031 472.59375 17.632812 466.800781 C 16.179688 461.007812 14.875 455.183594 13.707031 449.328125 C 12.542969 443.46875 11.523438 437.589844 10.648438 431.683594 C 9.769531 425.773438 9.039062 419.851562 8.453125 413.90625 C 7.867188 407.964844 7.429688 402.011719 7.136719 396.046875 C 6.84375 390.082031 6.699219 384.113281 6.699219 378.144531 C 6.699219 372.171875 6.84375 366.203125 7.136719 360.238281 C 7.429688 354.277344 7.867188 348.324219 8.453125 342.378906 C 9.039062 336.4375 9.769531 330.511719 10.648438 324.605469 C 11.523438 318.699219 12.542969 312.816406 13.707031 306.960938 C 14.875 301.101562 16.179688 295.277344 17.632812 289.484375 C 19.082031 283.695312 20.675781 277.941406 22.410156 272.226562 C 24.140625 266.511719 26.015625 260.84375 28.027344 255.222656 C 30.039062 249.597656 32.1875 244.027344 34.472656 238.511719 C 36.757812 232.996094 39.175781 227.539062 41.730469 222.140625 C 44.28125 216.742188 46.964844 211.410156 49.78125 206.144531 C 52.597656 200.875 55.539062 195.683594 58.609375 190.558594 C 61.679688 185.4375 64.871094 180.394531 68.191406 175.429688 C 71.507812 170.464844 74.945312 165.585938 78.503906 160.789062 C 82.058594 155.992188 85.730469 151.285156 89.519531 146.667969 C 93.308594 142.054688 97.207031 137.535156 101.21875 133.109375 C 105.226562 128.683594 109.34375 124.359375 113.566406 120.136719 C 117.789062 115.914062 122.113281 111.800781 126.539062 107.789062 C 130.960938 103.777344 135.480469 99.878906 140.097656 96.089844 C 144.714844 92.304688 149.421875 88.628906 154.214844 85.074219 C 159.011719 81.515625 163.894531 78.078125 168.859375 74.761719 C 173.824219 71.445312 178.867188 68.25 183.988281 65.179688 C 189.109375 62.109375 194.304688 59.167969 199.570312 56.351562 C 204.835938 53.539062 210.171875 50.855469 215.566406 48.300781 C 220.964844 45.746094 226.425781 43.328125 231.941406 41.042969 C 237.457031 38.757812 243.027344 36.609375 248.648438 34.597656 C 254.273438 32.585938 259.941406 30.714844 265.65625 28.980469 C 271.367188 27.246094 277.121094 25.65625 282.914062 24.203125 C 288.707031 22.753906 294.53125 21.445312 300.390625 20.28125 C 306.246094 19.113281 312.128906 18.09375 318.035156 17.21875 C 323.941406 16.339844 329.867188 15.609375 335.808594 15.027344 C 341.75 14.441406 347.703125 14 353.667969 13.707031 C 359.632812 13.414062 365.601562 13.269531 371.574219 13.269531 C 377.542969 13.269531 383.511719 13.414062 389.476562 13.707031 C 395.441406 14 401.394531 14.441406 407.335938 15.027344 C 413.277344 15.609375 419.203125 16.339844 425.109375 17.21875 C 431.015625 18.09375 436.898438 19.113281 442.757812 20.28125 C 448.613281 21.445312 454.4375 22.753906 460.230469 24.203125 C 466.023438 25.65625 471.777344 27.246094 477.488281 28.980469 C 483.203125 30.714844 488.871094 32.585938 494.496094 34.597656 C 500.117188 36.609375 505.6875 38.757812 511.203125 41.042969 C 516.722656 43.328125 522.179688 45.746094 527.578125 48.300781 C 532.976562 50.855469 538.308594 53.539062 543.574219 56.351562 C 548.839844 59.167969 554.035156 62.109375 559.15625 65.179688 C 564.277344 68.25 569.320312 71.445312 574.285156 74.761719 C 579.25 78.078125 584.132812 81.515625 588.929688 85.074219 C 593.722656 88.628906 598.429688 92.304688 603.046875 96.089844 C 607.664062 99.878906 612.183594 103.777344 616.609375 107.789062 C 621.03125 111.800781 625.355469 115.914062 629.578125 120.136719 C 633.800781 124.359375 637.917969 128.683594 641.925781 133.109375 C 645.9375 137.535156 649.835938 142.054688 653.625 146.667969 C 657.414062 151.285156 661.085938 155.992188 664.644531 160.789062 C 668.199219 165.585938 671.636719 170.464844 674.953125 175.429688 C 678.273438 180.394531 681.464844 185.4375 684.535156 190.558594 C 687.605469 195.683594 690.546875 200.875 693.363281 206.144531 C 696.179688 211.410156 698.863281 216.742188 701.414062 222.140625 C 703.96875 227.539062 706.386719 232.996094 708.671875 238.511719 C 710.957031 244.027344 713.105469 249.597656 715.117188 255.222656 C 717.128906 260.84375 719.003906 266.511719 720.734375 272.226562 C 722.46875 277.941406 724.0625 283.695312 725.511719 289.484375 C 726.964844 295.277344 728.269531 301.101562 729.4375 306.960938 C 730.601562 312.816406 731.621094 318.699219 732.5 324.605469 C 733.375 330.511719 734.105469 336.4375 734.691406 342.378906 C 735.277344 348.324219 735.714844 354.277344 736.007812 360.238281 C 736.300781 366.203125 736.449219 372.171875 736.449219 378.144531 Z M 736.449219 378.144531 " fill-opacity="1" fill-rule="nonzero"/></g><g clip-path="url(#259b4cd7a8)"><path fill="#000000" d="M 374.949219 743.199219 C 171.5 743.199219 6.699219 577.257812 6.699219 374.949219 C 6.699219 172.636719 171.5 6.699219 374.949219 6.699219 C 578.394531 6.699219 743.199219 171.5 743.199219 374.949219 C 743.199219 578.394531 577.257812 743.199219 374.949219 743.199219 Z M 374.949219 29.429688 C 184.003906 29.429688 29.429688 184.003906 29.429688 374.949219 C 29.429688 565.890625 184.003906 720.464844 374.949219 720.464844 C 565.890625 720.464844 720.464844 565.890625 720.464844 374.949219 C 720.464844 184.003906 564.753906 29.429688 374.949219 29.429688 Z M 374.949219 29.429688 " fill-opacity="1" fill-rule="nonzero"/></g><path fill="#000000" d="M 463.769531 118.773438 C 427.058594 94.300781 378.1875 91.511719 336.867188 106.96875 C 295.546875 122.402344 261.714844 154.550781 239.34375 192.550781 C 230.800781 207.058594 223.660156 222.902344 222.511719 239.699219 C 221.367188 256.496094 227.078125 274.460938 240.339844 284.859375 C 253.601562 295.257812 274.84375 295.644531 286.355469 283.367188 C 296.847656 272.148438 296.847656 255.179688 299.898438 240.152344 C 306.582031 207.210938 331.785156 178.675781 363.671875 167.953125 C 391.429688 158.613281 428.097656 166.308594 439.261719 193.375 C 448.171875 214.96875 437.484375 240.175781 421.457031 257.167969 C 405.445312 274.179688 384.570312 285.765625 366.960938 301.117188 C 327.199219 335.832031 305.996094 390.675781 312.097656 443.097656 C 314.671875 465.148438 323.542969 488.796875 343.378906 498.761719 C 374.1875 514.21875 406.050781 487.824219 405.597656 455.832031 C 405.445312 444.332031 399.972656 433.761719 399.5625 422.214844 C 398.890625 403.34375 406.722656 383.84375 416.308594 368 C 430.691406 344.199219 451.09375 324.765625 469.675781 304.097656 C 488.28125 283.433594 505.695312 260.367188 512.035156 233.300781 C 522.117188 190.371094 500.460938 143.222656 463.769531 118.773438 Z M 261.714844 280.015625 C 260.113281 280.363281 258.46875 279.777344 256.976562 279.128906 C 244.882812 273.8125 236.445312 261.816406 233.65625 248.910156 C 231.902344 240.800781 232.207031 232.371094 233.914062 224.308594 C 234.953125 219.464844 238.652344 206.839844 243.476562 204.246094 C 245.941406 202.90625 249.273438 203.382812 251.265625 205.371094 C 254.574219 208.679688 253.515625 214.171875 252.304688 218.6875 C 249.726562 228.414062 245.746094 238.488281 246.894531 248.5 C 248.042969 258.507812 252.910156 268.515625 261.539062 273.703125 C 262.730469 274.417969 264.09375 275.175781 264.394531 276.515625 C 264.742188 278.09375 263.3125 279.671875 261.714844 280.015625 Z M 336.585938 429.003906 C 336.976562 438.644531 338.359375 448.699219 341.5 457.839844 C 344.570312 466.792969 354.824219 481.664062 350.410156 486.3125 C 344.9375 492.105469 332.929688 474.140625 328.386719 464.671875 C 323.84375 455.203125 322.785156 444.4375 322.71875 433.953125 C 322.546875 409.332031 327.371094 384.710938 336.847656 361.988281 C 338.664062 357.644531 341.867188 352.628906 346.539062 353.171875 C 350.324219 353.601562 352.683594 357.839844 352.53125 361.621094 C 352.378906 365.425781 350.453125 368.886719 348.722656 372.28125 C 339.898438 389.703125 335.785156 409.460938 336.585938 429.003906 Z M 336.585938 429.003906 " fill-opacity="1" fill-rule="nonzero"/><g clip-path="url(#4b328825d4)"><path fill="#000000" d="M 363.78125 538.300781 C 337.710938 543.878906 316.664062 587.332031 332.953125 609.53125 C 339.550781 618.503906 351.296875 622.5 362.4375 622.4375 C 379.550781 622.351562 396.664062 613.097656 404.882812 598.140625 C 420.070312 570.535156 397.246094 531.125 363.78125 538.300781 Z M 349.675781 612.210938 C 349.265625 613.078125 348.074219 613.164062 347.144531 612.96875 C 345.480469 612.644531 343.921875 611.84375 342.667969 610.742188 C 341.542969 609.746094 339.984375 608.191406 339.550781 606.722656 C 339.335938 605.964844 339.441406 605.078125 340.003906 604.539062 C 340.71875 603.847656 341.910156 603.953125 342.753906 604.453125 C 343.597656 604.949219 344.203125 605.769531 344.851562 606.527344 C 345.761719 607.585938 346.796875 608.515625 347.945312 609.292969 C 348.441406 609.640625 348.984375 609.984375 349.371094 610.460938 C 349.742188 610.957031 349.933594 611.648438 349.675781 612.210938 Z M 365.1875 559.097656 C 360.339844 563.59375 354.78125 567.269531 350.152344 572.003906 C 345.542969 576.714844 341.800781 582.855469 341.972656 589.46875 C 342.015625 591.242188 342.105469 593.449219 340.523438 594.246094 C 339.292969 594.851562 337.734375 594.074219 337.0625 592.863281 C 336.394531 591.675781 336.394531 590.226562 336.457031 588.84375 C 337.019531 579.136719 341.023438 569.734375 347.339844 562.382812 C 350.066406 559.207031 363.585938 543.945312 368.019531 551.402344 C 369.535156 553.953125 367.371094 557.085938 365.1875 559.097656 Z M 365.1875 559.097656 " fill-opacity="1" fill-rule="nonzero"/></g></svg>