<svg xmlns="http://www.w3.org/2000/svg" xmlns:xlink="http://www.w3.org/1999/xlink" width="1000" zoomAndPan="magnify" viewBox="0 0 750 749.999995" height="1000" preserveAspectRatio="xMidYMid meet" version="1.0"><defs><clipPath id="6faaba7450"><path d="M 14 82 L 716 82 L 716 696.945312 L 14 696.945312 Z M 14 82 " clip-rule="nonzero"/></clipPath><clipPath id="9999a48fac"><path d="M 7.46875 60.414062 L 742.46875 60.414062 L 742.46875 697.164062 L 7.46875 697.164062 Z M 7.46875 60.414062 " clip-rule="nonzero"/></clipPath><clipPath id="915bb4f74b"><path d="M 117 224 L 633 224 L 633 740 L 117 740 Z M 117 224 " clip-rule="nonzero"/></clipPath><clipPath id="cab7bc6fde"><path d="M 366.519531 224.347656 L 632.605469 473.464844 L 383.488281 739.550781 L 117.402344 490.429688 Z M 366.519531 224.347656 " clip-rule="nonzero"/></clipPath><clipPath id="8fcee19eb7"><path d="M 366.519531 224.347656 L 632.605469 473.464844 L 383.488281 739.550781 L 117.402344 490.429688 Z M 366.519531 224.347656 " clip-rule="nonzero"/></clipPath><clipPath id="c2926b907d"><path d="M 366.519531 224.347656 L 632.605469 473.464844 L 383.488281 739.550781 L 117.402344 490.429688 Z M 366.519531 224.347656 " clip-rule="nonzero"/></clipPath></defs><g clip-path="url(#6faaba7450)"><path fill="#00bf63" d="M 18.121094 655.324219 L 340.867188 96.703125 C 351.523438 78.207031 378.160156 78.207031 388.816406 96.703125 L 711.5625 655.460938 C 722.21875 673.957031 708.898438 696.9375 687.585938 696.9375 L 42.097656 696.9375 C 20.785156 696.796875 7.46875 673.816406 18.121094 655.324219 Z M 18.121094 655.324219 " fill-opacity="1" fill-rule="nonzero"/></g><g clip-path="url(#9999a48fac)"><path fill="#000000" d="M 742.46875 697.074219 L 7.46875 697.074219 L 374.96875 60.5 Z M 41.425781 677.519531 L 708.511719 677.519531 L 374.96875 99.753906 Z M 41.425781 677.519531 " fill-opacity="1" fill-rule="nonzero"/></g><g clip-path="url(#915bb4f74b)"><g clip-path="url(#cab7bc6fde)"><g clip-path="url(#8fcee19eb7)"><g clip-path="url(#c2926b907d)"><path stroke-linecap="butt" transform="matrix(1.099973, 1.029839, -1.029839, 1.099973, 366.521411, 224.347744)" fill="none" stroke-linejoin="miter" d="M 0.00153664 120.899888 L 241.900397 120.900063 " stroke="#000000" stroke-width="26" stroke-opacity="1" stroke-miterlimit="10"/><path stroke-linecap="butt" transform="matrix(1.099973, 1.029839, -1.029839, 1.099973, 366.521411, 224.347744)" fill="none" stroke-linejoin="miter" d="M 120.899899 0.000215154 L 120.899723 241.899076 " stroke="#000000" stroke-width="26" stroke-opacity="1" stroke-miterlimit="10"/></g></g></g></g></svg>