<svg xmlns="http://www.w3.org/2000/svg" xmlns:xlink="http://www.w3.org/1999/xlink" width="1000" zoomAndPan="magnify" viewBox="0 0 750 749.999995" height="1000" preserveAspectRatio="xMidYMid meet" version="1.0"><defs><clipPath id="6fd12bcb3b"><path d="M 26 67 L 733 67 L 733 686.449219 L 26 686.449219 Z M 26 67 " clip-rule="nonzero"/></clipPath><clipPath id="1d79e7ddf0"><path d="M 8.6875 44.515625 L 749.6875 44.515625 L 749.6875 686.515625 L 8.6875 686.515625 Z M 8.6875 44.515625 " clip-rule="nonzero"/></clipPath><clipPath id="ebf202925f"><path d="M 331.898438 159.511719 L 427.148438 159.511719 L 427.148438 686.761719 L 331.898438 686.761719 Z M 331.898438 159.511719 " clip-rule="nonzero"/></clipPath></defs><g clip-path="url(#6fd12bcb3b)"><path fill="#00bf63" d="M 29.785156 644.472656 L 355.238281 81.113281 C 365.984375 62.460938 392.847656 62.460938 403.589844 81.113281 L 729.046875 644.613281 C 739.789062 663.261719 726.359375 686.4375 704.871094 686.4375 L 53.960938 686.4375 C 32.472656 686.296875 19.039062 663.121094 29.785156 644.472656 Z M 29.785156 644.472656 " fill-opacity="1" fill-rule="nonzero"/></g><g clip-path="url(#1d79e7ddf0)"><path fill="#000000" d="M 749.6875 686.421875 L 8.6875 686.421875 L 379.1875 44.605469 Z M 42.921875 666.710938 L 715.453125 666.710938 L 379.1875 84.183594 Z M 42.921875 666.710938 " fill-opacity="1" fill-rule="nonzero"/></g><path stroke-linecap="butt" transform="matrix(3.476278, 0, 0, 3.463635, 31.896974, 77.986737)" fill-opacity="1" fill="#000000" fill-rule="evenodd" stroke-linejoin="miter" d="M 88.250346 153.299708 L 111.760137 153.299708 L 111.760137 174.000279 L 88.250346 174.000279 Z M 88.250346 153.299708 " stroke="#000000" stroke-width="1" stroke-opacity="1" stroke-miterlimit="22.926001"/><path fill="#000000" d="M 357.277344 553.023438 L 335.410156 281.058594 L 335.410156 167.3125 L 423.640625 167.3125 L 423.640625 281.058594 L 403.40625 553.023438 Z M 357.277344 553.023438 " fill-opacity="1" fill-rule="evenodd"/><g clip-path="url(#ebf202925f)"><path stroke-linecap="butt" transform="matrix(3.476278, 0, 0, 3.463635, 31.896974, 77.986737)" fill="none" stroke-linejoin="miter" d="M 93.600222 137.149766 L 87.30982 58.629697 L 87.30982 25.789602 L 112.69055 25.789602 L 112.69055 58.629697 L 106.869849 137.149766 Z M 93.600222 137.149766 " stroke="#000000" stroke-width="2" stroke-opacity="1" stroke-miterlimit="22.926001"/></g></svg>