<svg xmlns="http://www.w3.org/2000/svg" xmlns:xlink="http://www.w3.org/1999/xlink" width="1000" zoomAndPan="magnify" viewBox="0 0 750 749.999995" height="1000" preserveAspectRatio="xMidYMid meet" version="1.0"><defs><clipPath id="ea998f65ac"><path d="M 27 73 L 743 73 L 743 699.800781 L 27 699.800781 Z M 27 73 " clip-rule="nonzero"/></clipPath><clipPath id="eb35c29ce7"><path d="M 0 50.15625 L 750 50.15625 L 750 699.65625 L 0 699.65625 Z M 0 50.15625 " clip-rule="nonzero"/></clipPath><clipPath id="b955d66676"><path d="M 323 623 L 390 623 L 390 690.921875 L 323 690.921875 Z M 323 623 " clip-rule="nonzero"/></clipPath></defs><g clip-path="url(#ea998f65ac)"><path fill="#00bf63" d="M 31.8125 657.320312 L 360.992188 87.1875 C 371.863281 68.308594 399.03125 68.308594 409.898438 87.1875 L 739.078125 657.464844 C 749.945312 676.339844 736.363281 699.792969 714.625 699.792969 L 56.265625 699.792969 C 34.53125 699.648438 20.945312 676.195312 31.8125 657.320312 Z M 31.8125 657.320312 " fill-opacity="1" fill-rule="nonzero"/></g><g clip-path="url(#eb35c29ce7)"><path fill="#000000" d="M 750 699.5625 L 0 699.5625 L 375 50.25 Z M 34.648438 679.617188 L 715.351562 679.617188 L 375 90.289062 Z M 34.648438 679.617188 " fill-opacity="1" fill-rule="nonzero"/></g><path fill="#000000" d="M 432.160156 291.066406 C 403.046875 271.644531 364.292969 269.429688 331.523438 281.699219 C 298.757812 293.949219 271.925781 319.464844 254.1875 349.632812 C 247.410156 361.148438 241.75 373.726562 240.839844 387.058594 C 239.929688 400.390625 244.457031 414.648438 254.976562 422.902344 C 265.492188 431.15625 282.339844 431.464844 291.464844 421.71875 C 299.785156 412.8125 299.785156 399.34375 302.207031 387.417969 C 307.507812 361.265625 327.492188 338.617188 352.78125 330.105469 C 374.792969 322.691406 403.871094 328.800781 412.722656 350.285156 C 419.792969 367.425781 411.316406 387.433594 398.605469 400.921875 C 385.910156 414.425781 369.351562 423.625 355.386719 435.808594 C 323.855469 463.367188 307.042969 506.898438 311.882812 548.511719 C 313.921875 566.015625 320.957031 584.785156 336.6875 592.695312 C 361.117188 604.964844 386.390625 584.015625 386.027344 558.617188 C 385.910156 549.488281 381.566406 541.097656 381.242188 531.933594 C 380.710938 516.953125 386.921875 501.476562 394.519531 488.898438 C 405.929688 470.007812 422.105469 454.582031 436.84375 438.175781 C 451.597656 421.769531 465.410156 403.460938 470.433594 381.976562 C 478.429688 347.898438 461.257812 310.476562 432.160156 291.066406 Z M 271.925781 419.058594 C 270.65625 419.335938 269.351562 418.871094 268.167969 418.355469 C 258.578125 414.136719 251.886719 404.613281 249.675781 394.367188 C 248.285156 387.933594 248.523438 381.242188 249.878906 374.839844 C 250.703125 370.996094 253.636719 360.976562 257.464844 358.917969 C 259.417969 357.851562 262.0625 358.230469 263.640625 359.808594 C 266.265625 362.433594 265.421875 366.792969 264.460938 370.378906 C 262.421875 378.101562 259.265625 386.097656 260.171875 394.042969 C 261.082031 401.988281 264.941406 409.929688 271.789062 414.050781 C 272.730469 414.617188 273.8125 415.214844 274.050781 416.28125 C 274.328125 417.53125 273.195312 418.785156 271.925781 419.058594 Z M 331.300781 537.324219 C 331.609375 544.976562 332.707031 552.957031 335.195312 560.214844 C 337.632812 567.316406 345.765625 579.125 342.265625 582.8125 C 337.921875 587.410156 328.402344 573.152344 324.800781 565.636719 C 321.195312 558.121094 320.355469 549.574219 320.304688 541.253906 C 320.167969 521.707031 323.992188 502.164062 331.507812 484.128906 C 332.949219 480.679688 335.488281 476.699219 339.191406 477.128906 C 342.195312 477.472656 344.066406 480.835938 343.945312 483.835938 C 343.824219 486.855469 342.296875 489.601562 340.925781 492.296875 C 333.925781 506.128906 330.667969 521.8125 331.300781 537.324219 Z M 331.300781 537.324219 " fill-opacity="1" fill-rule="nonzero"/><g clip-path="url(#b955d66676)"><path fill="#000000" d="M 352.867188 624.082031 C 332.195312 628.507812 315.5 663 328.417969 680.621094 C 333.652344 687.742188 342.96875 690.917969 351.804688 690.867188 C 365.375 690.796875 378.941406 683.453125 385.460938 671.578125 C 397.507812 649.667969 379.40625 618.382812 352.867188 624.082031 Z M 341.679688 682.75 C 341.355469 683.4375 340.410156 683.503906 339.671875 683.351562 C 338.351562 683.09375 337.117188 682.457031 336.121094 681.582031 C 335.230469 680.792969 333.996094 679.558594 333.652344 678.390625 C 333.480469 677.789062 333.566406 677.085938 334.011719 676.65625 C 334.578125 676.109375 335.523438 676.195312 336.191406 676.589844 C 336.859375 676.984375 337.339844 677.636719 337.855469 678.238281 C 338.574219 679.078125 339.398438 679.816406 340.308594 680.433594 C 340.703125 680.707031 341.132812 680.980469 341.441406 681.359375 C 341.730469 681.753906 341.886719 682.304688 341.679688 682.75 Z M 353.980469 640.589844 C 350.140625 644.15625 345.730469 647.074219 342.058594 650.832031 C 338.402344 654.574219 335.4375 659.445312 335.574219 664.699219 C 335.609375 666.105469 335.675781 667.855469 334.425781 668.488281 C 333.445312 668.96875 332.210938 668.351562 331.679688 667.390625 C 331.148438 666.449219 331.148438 665.296875 331.199219 664.199219 C 331.644531 656.496094 334.820312 649.03125 339.828125 643.195312 C 341.988281 640.675781 352.710938 628.558594 356.230469 634.480469 C 357.429688 636.503906 355.714844 638.992188 353.980469 640.589844 Z M 353.980469 640.589844 " fill-opacity="1" fill-rule="nonzero"/></g></svg>