<svg xmlns="http://www.w3.org/2000/svg" xmlns:xlink="http://www.w3.org/1999/xlink" width="1000" zoomAndPan="magnify" viewBox="0 0 750 749.999995" height="1000" preserveAspectRatio="xMidYMid meet" version="1.0"><defs><clipPath id="71fdeb623b"><path d="M 27 77 L 743 77 L 743 704.335938 L 27 704.335938 Z M 27 77 " clip-rule="nonzero"/></clipPath><clipPath id="64ad92cafa"><path d="M 0 45.621094 L 750 45.621094 L 750 695.121094 L 0 695.121094 Z M 0 45.621094 " clip-rule="nonzero"/></clipPath><clipPath id="3a41498e3f"><path d="M 213.722656 415.464844 L 557.222656 415.464844 L 557.222656 517 L 213.722656 517 Z M 213.722656 415.464844 " clip-rule="nonzero"/></clipPath></defs><g clip-path="url(#71fdeb623b)"><path fill="#00bf63" d="M 31.8125 661.855469 L 360.992188 91.722656 C 371.863281 72.847656 399.03125 72.847656 409.898438 91.722656 L 739.078125 662 C 749.945312 680.875 736.363281 704.328125 714.625 704.328125 L 56.265625 704.328125 C 34.53125 704.183594 20.945312 680.734375 31.8125 661.855469 Z M 31.8125 661.855469 " fill-opacity="1" fill-rule="nonzero"/></g><g clip-path="url(#64ad92cafa)"><path fill="#000000" d="M 750 695.027344 L 0 695.027344 L 375 45.714844 Z M 34.648438 675.082031 L 715.351562 675.082031 L 375 85.753906 Z M 34.648438 675.082031 " fill-opacity="1" fill-rule="nonzero"/></g><g clip-path="url(#3a41498e3f)"><path fill="#000000" d="M 553.300781 511.6875 L 553.300781 510.082031 L 555.472656 510.082031 L 545.980469 466.214844 L 555.417969 422.917969 L 553.359375 422.917969 L 553.359375 421.3125 L 555.816406 421.3125 L 557.019531 415.464844 L 213.925781 415.464844 L 215.183594 421.257812 L 217.242188 421.257812 L 217.242188 422.917969 L 215.527344 422.917969 L 224.90625 466.214844 L 215.414062 510.082031 L 217.242188 510.082031 L 217.242188 511.6875 L 215.070312 511.6875 L 213.925781 516.960938 L 557.019531 516.960938 L 555.875 511.6875 Z M 228.679688 511.6875 L 221.816406 511.6875 L 221.816406 510.082031 L 228.679688 510.082031 Z M 228.679688 422.917969 L 221.816406 422.917969 L 221.816406 421.3125 L 228.679688 421.3125 Z M 240.113281 511.6875 L 233.253906 511.6875 L 233.253906 510.082031 L 240.113281 510.082031 Z M 240.113281 422.917969 L 233.253906 422.917969 L 233.253906 421.3125 L 240.113281 421.3125 Z M 251.496094 511.6875 L 244.632812 511.6875 L 244.632812 510.082031 L 251.496094 510.082031 Z M 251.496094 422.917969 L 244.632812 422.917969 L 244.632812 421.3125 L 251.496094 421.3125 Z M 262.929688 511.6875 L 256.070312 511.6875 L 256.070312 510.082031 L 262.929688 510.082031 Z M 262.929688 422.917969 L 256.070312 422.917969 L 256.070312 421.3125 L 262.929688 421.3125 Z M 274.367188 511.6875 L 267.503906 511.6875 L 267.503906 510.082031 L 274.367188 510.082031 Z M 274.367188 422.917969 L 267.503906 422.917969 L 267.503906 421.3125 L 274.367188 421.3125 Z M 285.804688 511.6875 L 278.941406 511.6875 L 278.941406 510.082031 L 285.804688 510.082031 Z M 285.804688 422.917969 L 278.941406 422.917969 L 278.941406 421.3125 L 285.804688 421.3125 Z M 297.238281 511.6875 L 290.378906 511.6875 L 290.378906 510.082031 L 297.238281 510.082031 Z M 297.238281 422.917969 L 290.378906 422.917969 L 290.378906 421.3125 L 297.238281 421.3125 Z M 308.675781 511.6875 L 301.816406 511.6875 L 301.816406 510.082031 L 308.675781 510.082031 Z M 308.675781 422.917969 L 301.816406 422.917969 L 301.816406 421.3125 L 308.675781 421.3125 Z M 320.113281 511.6875 L 313.25 511.6875 L 313.25 510.082031 L 320.113281 510.082031 Z M 320.113281 422.917969 L 313.25 422.917969 L 313.25 421.3125 L 320.113281 421.3125 Z M 324.6875 511.6875 L 324.6875 510.082031 L 331.550781 510.082031 L 331.550781 511.6875 Z M 324.6875 422.917969 L 324.6875 421.3125 L 331.550781 421.3125 L 331.550781 422.917969 Z M 342.984375 511.6875 L 336.125 511.6875 L 336.125 510.082031 L 342.984375 510.082031 Z M 342.984375 422.917969 L 336.125 422.917969 L 336.125 421.3125 L 342.984375 421.3125 Z M 354.421875 511.6875 L 347.558594 511.6875 L 347.558594 510.082031 L 354.421875 510.082031 Z M 354.421875 422.917969 L 347.558594 422.917969 L 347.558594 421.3125 L 354.421875 421.3125 Z M 365.859375 511.6875 L 358.996094 511.6875 L 358.996094 510.082031 L 365.859375 510.082031 Z M 365.859375 422.917969 L 358.996094 422.917969 L 358.996094 421.3125 L 365.859375 421.3125 Z M 377.296875 511.6875 L 370.433594 511.6875 L 370.433594 510.082031 L 377.296875 510.082031 Z M 377.296875 422.917969 L 370.433594 422.917969 L 370.433594 421.3125 L 377.296875 421.3125 Z M 388.730469 511.6875 L 381.871094 511.6875 L 381.871094 510.082031 L 388.730469 510.082031 Z M 388.730469 422.917969 L 381.871094 422.917969 L 381.871094 421.3125 L 388.730469 421.3125 Z M 400.109375 511.6875 L 393.25 511.6875 L 393.25 510.082031 L 400.109375 510.082031 Z M 400.109375 422.917969 L 393.25 422.917969 L 393.25 421.3125 L 400.109375 421.3125 Z M 411.546875 511.6875 L 404.683594 511.6875 L 404.683594 510.082031 L 411.546875 510.082031 Z M 411.546875 422.917969 L 404.683594 422.917969 L 404.683594 421.3125 L 411.546875 421.3125 Z M 422.984375 511.6875 L 416.121094 511.6875 L 416.121094 510.082031 L 422.984375 510.082031 Z M 422.984375 422.917969 L 416.121094 422.917969 L 416.121094 421.3125 L 422.984375 421.3125 Z M 434.417969 511.6875 L 427.558594 511.6875 L 427.558594 510.082031 L 434.417969 510.082031 Z M 434.417969 422.917969 L 427.558594 422.917969 L 427.558594 421.3125 L 434.417969 421.3125 Z M 445.855469 511.6875 L 438.996094 511.6875 L 438.996094 510.082031 L 445.855469 510.082031 Z M 445.855469 422.917969 L 438.996094 422.917969 L 438.996094 421.3125 L 445.855469 421.3125 Z M 457.292969 511.6875 L 450.429688 511.6875 L 450.429688 510.082031 L 457.292969 510.082031 Z M 457.292969 422.917969 L 450.429688 422.917969 L 450.429688 421.3125 L 457.292969 421.3125 Z M 468.730469 511.6875 L 461.867188 511.6875 L 461.867188 510.082031 L 468.730469 510.082031 Z M 468.730469 422.917969 L 461.867188 422.917969 L 461.867188 421.3125 L 468.730469 421.3125 Z M 480.164062 511.6875 L 473.304688 511.6875 L 473.304688 510.082031 L 480.164062 510.082031 Z M 480.164062 422.917969 L 473.304688 422.917969 L 473.304688 421.3125 L 480.164062 421.3125 Z M 491.601562 511.6875 L 484.738281 511.6875 L 484.738281 510.082031 L 491.601562 510.082031 Z M 491.601562 422.917969 L 484.738281 422.917969 L 484.738281 421.3125 L 491.601562 421.3125 Z M 503.039062 511.6875 L 496.175781 511.6875 L 496.175781 510.082031 L 503.039062 510.082031 Z M 503.039062 422.917969 L 496.175781 422.917969 L 496.175781 421.3125 L 503.039062 421.3125 Z M 514.476562 511.6875 L 507.613281 511.6875 L 507.613281 510.082031 L 514.476562 510.082031 Z M 514.476562 422.917969 L 507.613281 422.917969 L 507.613281 421.3125 L 514.476562 421.3125 Z M 525.910156 511.6875 L 519.050781 511.6875 L 519.050781 510.082031 L 525.910156 510.082031 Z M 525.910156 422.917969 L 519.050781 422.917969 L 519.050781 421.3125 L 525.910156 421.3125 Z M 541.921875 421.257812 L 548.785156 421.257812 L 548.785156 422.917969 L 541.921875 422.917969 Z M 537.347656 511.6875 L 530.484375 511.6875 L 530.484375 510.082031 L 537.347656 510.082031 Z M 537.347656 422.917969 L 530.484375 422.917969 L 530.484375 421.3125 L 537.347656 421.3125 Z M 548.785156 511.6875 L 541.921875 511.6875 L 541.921875 510.082031 L 548.785156 510.082031 Z M 548.785156 511.6875 " fill-opacity="1" fill-rule="nonzero"/></g><path fill="#a6a6a6" d="M 336.125 421.257812 L 342.984375 421.257812 L 342.984375 422.863281 L 336.125 422.863281 Z M 336.125 421.257812 " fill-opacity="1" fill-rule="nonzero"/><path fill="#a6a6a6" d="M 324.6875 421.257812 L 331.550781 421.257812 L 331.550781 422.863281 L 324.6875 422.863281 Z M 324.6875 421.257812 " fill-opacity="1" fill-rule="nonzero"/><path fill="#a6a6a6" d="M 301.816406 421.257812 L 308.675781 421.257812 L 308.675781 422.863281 L 301.816406 422.863281 Z M 301.816406 421.257812 " fill-opacity="1" fill-rule="nonzero"/><path fill="#a6a6a6" d="M 324.6875 510.082031 L 331.550781 510.082031 L 331.550781 511.6875 L 324.6875 511.6875 Z M 324.6875 510.082031 " fill-opacity="1" fill-rule="nonzero"/><path fill="#a6a6a6" d="M 313.25 510.082031 L 320.113281 510.082031 L 320.113281 511.6875 L 313.25 511.6875 Z M 313.25 510.082031 " fill-opacity="1" fill-rule="nonzero"/><path fill="#a6a6a6" d="M 313.25 421.257812 L 320.113281 421.257812 L 320.113281 422.863281 L 313.25 422.863281 Z M 313.25 421.257812 " fill-opacity="1" fill-rule="nonzero"/><path fill="#a6a6a6" d="M 336.125 510.082031 L 342.984375 510.082031 L 342.984375 511.6875 L 336.125 511.6875 Z M 336.125 510.082031 " fill-opacity="1" fill-rule="nonzero"/><path fill="#a6a6a6" d="M 370.433594 421.257812 L 377.296875 421.257812 L 377.296875 422.863281 L 370.433594 422.863281 Z M 370.433594 421.257812 " fill-opacity="1" fill-rule="nonzero"/><path fill="#a6a6a6" d="M 381.871094 510.082031 L 388.730469 510.082031 L 388.730469 511.6875 L 381.871094 511.6875 Z M 381.871094 510.082031 " fill-opacity="1" fill-rule="nonzero"/><path fill="#a6a6a6" d="M 347.558594 510.082031 L 354.421875 510.082031 L 354.421875 511.6875 L 347.558594 511.6875 Z M 347.558594 510.082031 " fill-opacity="1" fill-rule="nonzero"/><path fill="#a6a6a6" d="M 370.433594 510.082031 L 377.296875 510.082031 L 377.296875 511.6875 L 370.433594 511.6875 Z M 370.433594 510.082031 " fill-opacity="1" fill-rule="nonzero"/><path fill="#a6a6a6" d="M 358.996094 421.257812 L 365.859375 421.257812 L 365.859375 422.863281 L 358.996094 422.863281 Z M 358.996094 421.257812 " fill-opacity="1" fill-rule="nonzero"/><path fill="#a6a6a6" d="M 347.558594 421.257812 L 354.421875 421.257812 L 354.421875 422.863281 L 347.558594 422.863281 Z M 347.558594 421.257812 " fill-opacity="1" fill-rule="nonzero"/><path fill="#a6a6a6" d="M 358.996094 510.082031 L 365.859375 510.082031 L 365.859375 511.6875 L 358.996094 511.6875 Z M 358.996094 510.082031 " fill-opacity="1" fill-rule="nonzero"/><path fill="#a6a6a6" d="M 301.816406 510.082031 L 308.675781 510.082031 L 308.675781 511.6875 L 301.816406 511.6875 Z M 301.816406 510.082031 " fill-opacity="1" fill-rule="nonzero"/><path fill="#a6a6a6" d="M 256.070312 421.257812 L 262.929688 421.257812 L 262.929688 422.863281 L 256.070312 422.863281 Z M 256.070312 421.257812 " fill-opacity="1" fill-rule="nonzero"/><path fill="#a6a6a6" d="M 256.070312 510.082031 L 262.929688 510.082031 L 262.929688 511.6875 L 256.070312 511.6875 Z M 256.070312 510.082031 " fill-opacity="1" fill-rule="nonzero"/><path fill="#a6a6a6" d="M 244.691406 510.082031 L 251.550781 510.082031 L 251.550781 511.6875 L 244.691406 511.6875 Z M 244.691406 510.082031 " fill-opacity="1" fill-rule="nonzero"/><path fill="#a6a6a6" d="M 244.691406 421.257812 L 251.550781 421.257812 L 251.550781 422.863281 L 244.691406 422.863281 Z M 244.691406 421.257812 " fill-opacity="1" fill-rule="nonzero"/><path fill="#a6a6a6" d="M 233.253906 510.082031 L 240.113281 510.082031 L 240.113281 511.6875 L 233.253906 511.6875 Z M 233.253906 510.082031 " fill-opacity="1" fill-rule="nonzero"/><path fill="#a6a6a6" d="M 233.253906 421.257812 L 240.113281 421.257812 L 240.113281 422.863281 L 233.253906 422.863281 Z M 233.253906 421.257812 " fill-opacity="1" fill-rule="nonzero"/><path fill="#a6a6a6" d="M 267.503906 421.257812 L 274.367188 421.257812 L 274.367188 422.863281 L 267.503906 422.863281 Z M 267.503906 421.257812 " fill-opacity="1" fill-rule="nonzero"/><path fill="#a6a6a6" d="M 290.378906 510.082031 L 297.238281 510.082031 L 297.238281 511.6875 L 290.378906 511.6875 Z M 290.378906 510.082031 " fill-opacity="1" fill-rule="nonzero"/><path fill="#a6a6a6" d="M 267.503906 510.082031 L 274.367188 510.082031 L 274.367188 511.6875 L 267.503906 511.6875 Z M 267.503906 510.082031 " fill-opacity="1" fill-rule="nonzero"/><path fill="#a6a6a6" d="M 278.941406 421.257812 L 285.804688 421.257812 L 285.804688 422.863281 L 278.941406 422.863281 Z M 278.941406 421.257812 " fill-opacity="1" fill-rule="nonzero"/><path fill="#a6a6a6" d="M 290.378906 421.257812 L 297.238281 421.257812 L 297.238281 422.863281 L 290.378906 422.863281 Z M 290.378906 421.257812 " fill-opacity="1" fill-rule="nonzero"/><path fill="#a6a6a6" d="M 278.941406 510.082031 L 285.804688 510.082031 L 285.804688 511.6875 L 278.941406 511.6875 Z M 278.941406 510.082031 " fill-opacity="1" fill-rule="nonzero"/><path fill="#a6a6a6" d="M 381.871094 421.257812 L 388.730469 421.257812 L 388.730469 422.863281 L 381.871094 422.863281 Z M 381.871094 421.257812 " fill-opacity="1" fill-rule="nonzero"/><path fill="#a6a6a6" d="M 507.613281 421.257812 L 514.476562 421.257812 L 514.476562 422.863281 L 507.613281 422.863281 Z M 507.613281 421.257812 " fill-opacity="1" fill-rule="nonzero"/><path fill="#a6a6a6" d="M 484.738281 510.082031 L 491.601562 510.082031 L 491.601562 511.6875 L 484.738281 511.6875 Z M 484.738281 510.082031 " fill-opacity="1" fill-rule="nonzero"/><path fill="#a6a6a6" d="M 484.738281 421.257812 L 491.601562 421.257812 L 491.601562 422.863281 L 484.738281 422.863281 Z M 484.738281 421.257812 " fill-opacity="1" fill-rule="nonzero"/><path fill="#a6a6a6" d="M 473.304688 421.257812 L 480.164062 421.257812 L 480.164062 422.863281 L 473.304688 422.863281 Z M 473.304688 421.257812 " fill-opacity="1" fill-rule="nonzero"/><path fill="#a6a6a6" d="M 461.867188 421.257812 L 468.730469 421.257812 L 468.730469 422.863281 L 461.867188 422.863281 Z M 461.867188 421.257812 " fill-opacity="1" fill-rule="nonzero"/><path fill="#a6a6a6" d="M 473.304688 510.082031 L 480.164062 510.082031 L 480.164062 511.6875 L 473.304688 511.6875 Z M 473.304688 510.082031 " fill-opacity="1" fill-rule="nonzero"/><path fill="#a6a6a6" d="M 519.050781 510.082031 L 525.910156 510.082031 L 525.910156 511.6875 L 519.050781 511.6875 Z M 519.050781 510.082031 " fill-opacity="1" fill-rule="nonzero"/><path fill="#a6a6a6" d="M 496.175781 510.082031 L 503.039062 510.082031 L 503.039062 511.6875 L 496.175781 511.6875 Z M 496.175781 510.082031 " fill-opacity="1" fill-rule="nonzero"/><path fill="#a6a6a6" d="M 461.867188 510.082031 L 468.730469 510.082031 L 468.730469 511.6875 L 461.867188 511.6875 Z M 461.867188 510.082031 " fill-opacity="1" fill-rule="nonzero"/><path fill="#a6a6a6" d="M 519.050781 421.257812 L 525.910156 421.257812 L 525.910156 422.863281 L 519.050781 422.863281 Z M 519.050781 421.257812 " fill-opacity="1" fill-rule="nonzero"/><path fill="#a6a6a6" d="M 507.613281 510.082031 L 514.476562 510.082031 L 514.476562 511.6875 L 507.613281 511.6875 Z M 507.613281 510.082031 " fill-opacity="1" fill-rule="nonzero"/><path fill="#a6a6a6" d="M 496.175781 421.257812 L 503.039062 421.257812 L 503.039062 422.863281 L 496.175781 422.863281 Z M 496.175781 421.257812 " fill-opacity="1" fill-rule="nonzero"/><path fill="#a6a6a6" d="M 427.558594 421.257812 L 434.417969 421.257812 L 434.417969 422.863281 L 427.558594 422.863281 Z M 427.558594 421.257812 " fill-opacity="1" fill-rule="nonzero"/><path fill="#a6a6a6" d="M 404.683594 421.257812 L 411.546875 421.257812 L 411.546875 422.863281 L 404.683594 422.863281 Z M 404.683594 421.257812 " fill-opacity="1" fill-rule="nonzero"/><path fill="#a6a6a6" d="M 416.121094 510.082031 L 422.984375 510.082031 L 422.984375 511.6875 L 416.121094 511.6875 Z M 416.121094 510.082031 " fill-opacity="1" fill-rule="nonzero"/><path fill="#a6a6a6" d="M 393.304688 421.257812 L 400.167969 421.257812 L 400.167969 422.863281 L 393.304688 422.863281 Z M 393.304688 421.257812 " fill-opacity="1" fill-rule="nonzero"/><path fill="#a6a6a6" d="M 404.683594 510.082031 L 411.546875 510.082031 L 411.546875 511.6875 L 404.683594 511.6875 Z M 404.683594 510.082031 " fill-opacity="1" fill-rule="nonzero"/><path fill="#a6a6a6" d="M 416.121094 421.257812 L 422.984375 421.257812 L 422.984375 422.863281 L 416.121094 422.863281 Z M 416.121094 421.257812 " fill-opacity="1" fill-rule="nonzero"/><path fill="#a6a6a6" d="M 450.429688 421.257812 L 457.292969 421.257812 L 457.292969 422.863281 L 450.429688 422.863281 Z M 450.429688 421.257812 " fill-opacity="1" fill-rule="nonzero"/><path fill="#a6a6a6" d="M 450.429688 510.082031 L 457.292969 510.082031 L 457.292969 511.6875 L 450.429688 511.6875 Z M 450.429688 510.082031 " fill-opacity="1" fill-rule="nonzero"/><path fill="#a6a6a6" d="M 438.996094 421.257812 L 445.855469 421.257812 L 445.855469 422.863281 L 438.996094 422.863281 Z M 438.996094 421.257812 " fill-opacity="1" fill-rule="nonzero"/><path fill="#a6a6a6" d="M 438.996094 510.082031 L 445.855469 510.082031 L 445.855469 511.6875 L 438.996094 511.6875 Z M 438.996094 510.082031 " fill-opacity="1" fill-rule="nonzero"/><path fill="#a6a6a6" d="M 393.304688 510.082031 L 400.167969 510.082031 L 400.167969 511.6875 L 393.304688 511.6875 Z M 393.304688 510.082031 " fill-opacity="1" fill-rule="nonzero"/><path fill="#a6a6a6" d="M 427.558594 510.082031 L 434.417969 510.082031 L 434.417969 511.6875 L 427.558594 511.6875 Z M 427.558594 510.082031 " fill-opacity="1" fill-rule="nonzero"/><path fill="#a6a6a6" d="M 541.921875 421.257812 L 548.785156 421.257812 L 548.785156 422.863281 L 541.921875 422.863281 Z M 541.921875 421.257812 " fill-opacity="1" fill-rule="nonzero"/><path fill="#a6a6a6" d="M 555.761719 421.257812 L 553.300781 421.257812 L 553.300781 422.917969 L 555.417969 422.917969 Z M 555.761719 421.257812 " fill-opacity="1" fill-rule="nonzero"/><path fill="#a6a6a6" d="M 555.53125 510.082031 L 553.300781 510.082031 L 553.300781 511.6875 L 555.875 511.6875 Z M 555.53125 510.082031 " fill-opacity="1" fill-rule="nonzero"/><path fill="#a6a6a6" d="M 530.484375 421.257812 L 537.347656 421.257812 L 537.347656 422.863281 L 530.484375 422.863281 Z M 530.484375 421.257812 " fill-opacity="1" fill-rule="nonzero"/><path fill="#a6a6a6" d="M 530.484375 510.082031 L 537.347656 510.082031 L 537.347656 511.6875 L 530.484375 511.6875 Z M 530.484375 510.082031 " fill-opacity="1" fill-rule="nonzero"/><path fill="#a6a6a6" d="M 541.921875 510.082031 L 548.785156 510.082031 L 548.785156 511.6875 L 541.921875 511.6875 Z M 541.921875 510.082031 " fill-opacity="1" fill-rule="nonzero"/><path fill="#a6a6a6" d="M 215.070312 511.6875 L 217.242188 511.6875 L 217.242188 510.082031 L 215.414062 510.082031 Z M 215.070312 511.6875 " fill-opacity="1" fill-rule="nonzero"/><path fill="#a6a6a6" d="M 215.527344 422.917969 L 217.242188 422.917969 L 217.242188 421.257812 L 215.183594 421.257812 Z M 215.527344 422.917969 " fill-opacity="1" fill-rule="nonzero"/><path fill="#a6a6a6" d="M 221.816406 510.082031 L 228.679688 510.082031 L 228.679688 511.6875 L 221.816406 511.6875 Z M 221.816406 510.082031 " fill-opacity="1" fill-rule="nonzero"/><path fill="#a6a6a6" d="M 221.816406 421.257812 L 228.679688 421.257812 L 228.679688 422.863281 L 221.816406 422.863281 Z M 221.816406 421.257812 " fill-opacity="1" fill-rule="nonzero"/></svg>