<svg xmlns="http://www.w3.org/2000/svg" xmlns:xlink="http://www.w3.org/1999/xlink" width="15" zoomAndPan="magnify" viewBox="0 0 750 749.999995" height="15" preserveAspectRatio="xMidYMid meet" version="1.0"><defs><clipPath id="587d757996"><path d="M 7.640625 14.484375 L 735.140625 14.484375 L 735.140625 741.984375 L 7.640625 741.984375 Z M 7.640625 14.484375 " clip-rule="nonzero"/></clipPath><clipPath id="64d261ef75"><path d="M 15.871094 7.933594 L 750 7.933594 L 750 742.183594 L 15.871094 742.183594 Z M 15.871094 7.933594 " clip-rule="nonzero"/></clipPath></defs><g clip-path="url(#587d757996)"><path fill="#b309c7" d="M 735.140625 378.234375 C 735.140625 384.1875 734.996094 390.136719 734.703125 396.082031 C 734.410156 402.027344 733.972656 407.964844 733.390625 413.886719 C 732.804688 419.8125 732.078125 425.71875 731.203125 431.605469 C 730.332031 437.496094 729.3125 443.359375 728.152344 449.199219 C 726.988281 455.035156 725.6875 460.84375 724.238281 466.617188 C 722.792969 472.394531 721.207031 478.128906 719.476562 483.824219 C 717.75 489.523438 715.882812 495.171875 713.878906 500.777344 C 711.871094 506.382812 709.730469 511.933594 707.453125 517.433594 C 705.171875 522.933594 702.761719 528.375 700.214844 533.757812 C 697.671875 539.140625 694.996094 544.453125 692.191406 549.703125 C 689.382812 554.953125 686.449219 560.132812 683.390625 565.238281 C 680.328125 570.34375 677.144531 575.371094 673.835938 580.324219 C 670.53125 585.273438 667.105469 590.136719 663.558594 594.917969 C 660.011719 599.703125 656.351562 604.394531 652.574219 608.996094 C 648.796875 613.597656 644.910156 618.101562 640.910156 622.515625 C 636.914062 626.925781 632.808594 631.234375 628.601562 635.445312 C 624.390625 639.652344 620.082031 643.757812 615.671875 647.753906 C 611.257812 651.753906 606.753906 655.640625 602.152344 659.417969 C 597.550781 663.191406 592.859375 666.855469 588.078125 670.402344 C 583.292969 673.945312 578.429688 677.375 573.480469 680.679688 C 568.53125 683.988281 563.5 687.171875 558.394531 690.234375 C 553.289062 693.292969 548.113281 696.226562 542.859375 699.03125 C 537.609375 701.839844 532.296875 704.515625 526.914062 707.058594 C 521.53125 709.605469 516.089844 712.015625 510.589844 714.296875 C 505.09375 716.574219 499.539062 718.714844 493.933594 720.71875 C 488.328125 722.726562 482.679688 724.59375 476.980469 726.320312 C 471.285156 728.050781 465.550781 729.636719 459.773438 731.082031 C 454 732.53125 448.195312 733.832031 442.355469 734.996094 C 436.515625 736.15625 430.652344 737.171875 424.765625 738.046875 C 418.875 738.921875 412.96875 739.648438 407.042969 740.234375 C 401.121094 740.816406 395.183594 741.253906 389.238281 741.546875 C 383.292969 741.839844 377.34375 741.984375 371.390625 741.984375 C 365.4375 741.984375 359.488281 741.839844 353.542969 741.546875 C 347.597656 741.253906 341.660156 740.816406 335.738281 740.234375 C 329.8125 739.648438 323.90625 738.921875 318.015625 738.046875 C 312.128906 737.171875 306.265625 736.15625 300.425781 734.996094 C 294.589844 733.832031 288.78125 732.53125 283.007812 731.082031 C 277.230469 729.636719 271.496094 728.050781 265.800781 726.320312 C 260.101562 724.59375 254.453125 722.726562 248.847656 720.71875 C 243.242188 718.714844 237.691406 716.574219 232.191406 714.296875 C 226.691406 712.015625 221.25 709.605469 215.867188 707.058594 C 210.484375 704.515625 205.171875 701.839844 199.921875 699.03125 C 194.671875 696.226562 189.492188 693.292969 184.386719 690.234375 C 179.28125 687.171875 174.25 683.988281 169.300781 680.679688 C 164.351562 677.375 159.488281 673.945312 154.707031 670.402344 C 149.921875 666.855469 145.230469 663.191406 140.628906 659.417969 C 136.027344 655.640625 131.523438 651.753906 127.109375 647.753906 C 122.699219 643.757812 118.390625 639.652344 114.179688 635.445312 C 109.972656 631.234375 105.867188 626.925781 101.871094 622.511719 C 97.871094 618.101562 93.984375 613.597656 90.207031 608.996094 C 86.433594 604.394531 82.769531 599.703125 79.222656 594.917969 C 75.679688 590.136719 72.25 585.273438 68.945312 580.324219 C 65.636719 575.371094 62.453125 570.34375 59.390625 565.238281 C 56.332031 560.132812 53.398438 554.953125 50.59375 549.703125 C 47.785156 544.453125 45.109375 539.140625 42.566406 533.757812 C 40.019531 528.375 37.609375 522.933594 35.328125 517.433594 C 33.050781 511.933594 30.910156 506.382812 28.902344 500.777344 C 26.898438 495.171875 25.03125 489.523438 23.304688 483.824219 C 21.574219 478.128906 19.988281 472.394531 18.542969 466.617188 C 17.09375 460.84375 15.792969 455.035156 14.628906 449.199219 C 13.46875 443.359375 12.453125 437.496094 11.578125 431.605469 C 10.703125 425.71875 9.976562 419.8125 9.390625 413.886719 C 8.808594 407.964844 8.371094 402.027344 8.078125 396.082031 C 7.785156 390.136719 7.640625 384.1875 7.640625 378.234375 C 7.640625 372.28125 7.785156 366.332031 8.078125 360.386719 C 8.371094 354.441406 8.808594 348.503906 9.390625 342.582031 C 9.976562 336.65625 10.703125 330.75 11.578125 324.859375 C 12.453125 318.972656 13.46875 313.109375 14.628906 307.269531 C 15.792969 301.429688 17.09375 295.625 18.542969 289.851562 C 19.988281 284.074219 21.574219 278.339844 23.304688 272.644531 C 25.03125 266.945312 26.898438 261.296875 28.902344 255.691406 C 30.910156 250.085938 33.050781 244.53125 35.328125 239.03125 C 37.609375 233.53125 40.019531 228.09375 42.566406 222.710938 C 45.109375 217.328125 47.785156 212.015625 50.59375 206.761719 C 53.398438 201.511719 56.332031 196.335938 59.390625 191.230469 C 62.453125 186.125 65.636719 181.09375 68.945312 176.144531 C 72.25 171.195312 75.679688 166.328125 79.222656 161.546875 C 82.769531 156.765625 86.433594 152.074219 90.207031 147.472656 C 93.984375 142.871094 97.871094 138.367188 101.871094 133.953125 C 105.867188 129.542969 109.972656 125.234375 114.179688 121.023438 C 118.390625 116.816406 122.699219 112.710938 127.109375 108.714844 C 131.523438 104.714844 136.027344 100.828125 140.628906 97.050781 C 145.230469 93.273438 149.921875 89.613281 154.707031 86.066406 C 159.488281 82.519531 164.351562 79.09375 169.300781 75.785156 C 174.25 72.480469 179.28125 69.296875 184.386719 66.234375 C 189.492188 63.175781 194.671875 60.242188 199.921875 57.433594 C 205.171875 54.628906 210.484375 51.953125 215.867188 49.40625 C 221.25 46.863281 226.691406 44.449219 232.191406 42.171875 C 237.691406 39.894531 243.242188 37.753906 248.847656 35.746094 C 254.453125 33.742188 260.101562 31.875 265.800781 30.148438 C 271.496094 28.417969 277.230469 26.832031 283.007812 25.386719 C 288.78125 23.9375 294.589844 22.636719 300.425781 21.472656 C 306.265625 20.3125 312.128906 19.292969 318.015625 18.421875 C 323.90625 17.546875 329.8125 16.820312 335.738281 16.234375 C 341.660156 15.652344 347.597656 15.214844 353.542969 14.921875 C 359.488281 14.628906 365.4375 14.484375 371.390625 14.484375 C 377.34375 14.484375 383.292969 14.628906 389.238281 14.921875 C 395.183594 15.214844 401.121094 15.652344 407.042969 16.234375 C 412.96875 16.820312 418.875 17.546875 424.765625 18.421875 C 430.652344 19.292969 436.515625 20.3125 442.355469 21.472656 C 448.195312 22.636719 454 23.9375 459.773438 25.386719 C 465.550781 26.832031 471.285156 28.417969 476.980469 30.148438 C 482.679688 31.875 488.328125 33.742188 493.933594 35.746094 C 499.539062 37.753906 505.09375 39.894531 510.59375 42.171875 C 516.089844 44.449219 521.53125 46.863281 526.914062 49.40625 C 532.296875 51.953125 537.613281 54.628906 542.863281 57.433594 C 548.113281 60.242188 553.289062 63.175781 558.394531 66.234375 C 563.5 69.296875 568.53125 72.480469 573.480469 75.785156 C 578.429688 79.09375 583.292969 82.519531 588.078125 86.066406 C 592.859375 89.613281 597.550781 93.273438 602.152344 97.050781 C 606.753906 100.828125 611.257812 104.714844 615.671875 108.714844 C 620.082031 112.710938 624.390625 116.816406 628.601562 121.023438 C 632.808594 125.234375 636.914062 129.542969 640.910156 133.953125 C 644.910156 138.367188 648.796875 142.871094 652.574219 147.472656 C 656.351562 152.074219 660.011719 156.765625 663.558594 161.546875 C 667.105469 166.328125 670.53125 171.195312 673.835938 176.144531 C 677.144531 181.09375 680.328125 186.125 683.390625 191.230469 C 686.449219 196.335938 689.382812 201.511719 692.191406 206.761719 C 694.996094 212.011719 697.671875 217.328125 700.214844 222.710938 C 702.761719 228.09375 705.171875 233.53125 707.453125 239.03125 C 709.730469 244.53125 711.871094 250.085938 713.878906 255.691406 C 715.882812 261.296875 717.75 266.945312 719.476562 272.644531 C 721.207031 278.339844 722.792969 284.074219 724.238281 289.851562 C 725.6875 295.625 726.988281 301.429688 728.152344 307.269531 C 729.3125 313.109375 730.332031 318.972656 731.203125 324.859375 C 732.078125 330.75 732.804688 336.65625 733.390625 342.582031 C 733.972656 348.503906 734.410156 354.441406 734.703125 360.386719 C 734.996094 366.332031 735.140625 372.28125 735.140625 378.234375 Z M 735.140625 378.234375 " fill-opacity="1" fill-rule="nonzero"/></g><g clip-path="url(#64d261ef75)"><path fill="#000000" d="M 382.996094 742.183594 C 180.167969 742.183594 15.871094 576.753906 15.871094 375.058594 C 15.871094 173.367188 180.167969 7.933594 382.996094 7.933594 C 585.820312 7.933594 750.121094 172.234375 750.121094 375.058594 C 750.121094 577.886719 584.6875 742.183594 382.996094 742.183594 Z M 382.996094 30.597656 C 192.632812 30.597656 38.53125 184.699219 38.53125 375.058594 C 38.53125 565.421875 192.632812 719.523438 382.996094 719.523438 C 573.355469 719.523438 727.457031 565.421875 727.457031 375.058594 C 727.457031 184.699219 572.222656 30.597656 382.996094 30.597656 Z M 382.996094 30.597656 " fill-opacity="1" fill-rule="nonzero"/></g></svg>