<svg xmlns="http://www.w3.org/2000/svg" xmlns:xlink="http://www.w3.org/1999/xlink" width="1000" zoomAndPan="magnify" viewBox="0 0 750 749.999995" height="1000" preserveAspectRatio="xMidYMid meet" version="1.0"><defs><clipPath id="c64e9d81a6"><path d="M 29.953125 26.847656 L 719.953125 26.847656 L 719.953125 716.847656 L 29.953125 716.847656 Z M 29.953125 26.847656 " clip-rule="nonzero"/></clipPath><clipPath id="c2970e12c7"><path d="M 9.519531 9.519531 L 740.769531 9.519531 L 740.769531 740.769531 L 9.519531 740.769531 Z M 9.519531 9.519531 " clip-rule="nonzero"/></clipPath></defs><g clip-path="url(#c64e9d81a6)"><path fill="#f9ed28" d="M 719.953125 371.847656 C 719.953125 377.496094 719.816406 383.136719 719.539062 388.777344 C 719.261719 394.414062 718.847656 400.046875 718.292969 405.664062 C 717.738281 411.28125 717.046875 416.886719 716.21875 422.46875 C 715.390625 428.054688 714.425781 433.617188 713.324219 439.152344 C 712.222656 444.691406 710.988281 450.199219 709.613281 455.675781 C 708.242188 461.152344 706.738281 466.59375 705.097656 471.996094 C 703.460938 477.398438 701.6875 482.757812 699.785156 488.074219 C 697.882812 493.390625 695.851562 498.65625 693.691406 503.875 C 691.53125 509.089844 689.242188 514.25 686.832031 519.355469 C 684.417969 524.457031 681.878906 529.5 679.214844 534.480469 C 676.554688 539.460938 673.773438 544.371094 670.871094 549.214844 C 667.96875 554.054688 664.949219 558.824219 661.8125 563.519531 C 658.675781 568.214844 655.421875 572.828125 652.058594 577.363281 C 648.695312 581.898438 645.222656 586.347656 641.640625 590.714844 C 638.0625 595.078125 634.375 599.351562 630.582031 603.535156 C 626.789062 607.71875 622.898438 611.808594 618.90625 615.800781 C 614.914062 619.792969 610.824219 623.683594 606.640625 627.476562 C 602.457031 631.269531 598.183594 634.953125 593.820312 638.535156 C 589.453125 642.117188 585.003906 645.589844 580.46875 648.953125 C 575.933594 652.316406 571.320312 655.566406 566.625 658.703125 C 561.929688 661.84375 557.164062 664.863281 552.320312 667.765625 C 547.476562 670.667969 542.566406 673.449219 537.585938 676.109375 C 532.605469 678.773438 527.5625 681.308594 522.460938 683.722656 C 517.355469 686.136719 512.195312 688.425781 506.980469 690.585938 C 501.761719 692.746094 496.496094 694.777344 491.179688 696.679688 C 485.863281 698.582031 480.503906 700.351562 475.101562 701.992188 C 469.699219 703.632812 464.257812 705.136719 458.78125 706.507812 C 453.304688 707.878906 447.796875 709.117188 442.261719 710.21875 C 436.722656 711.320312 431.160156 712.285156 425.574219 713.113281 C 419.992188 713.941406 414.390625 714.632812 408.769531 715.1875 C 403.152344 715.738281 397.523438 716.15625 391.882812 716.433594 C 386.242188 716.710938 380.601562 716.847656 374.953125 716.847656 C 369.308594 716.847656 363.664062 716.710938 358.027344 716.433594 C 352.386719 716.15625 346.757812 715.742188 341.136719 715.1875 C 335.519531 714.632812 329.917969 713.941406 324.332031 713.113281 C 318.746094 712.285156 313.183594 711.320312 307.648438 710.21875 C 302.109375 709.117188 296.601562 707.878906 291.125 706.507812 C 285.648438 705.136719 280.207031 703.632812 274.804688 701.992188 C 269.402344 700.351562 264.042969 698.582031 258.726562 696.679688 C 253.410156 694.777344 248.144531 692.746094 242.929688 690.585938 C 237.710938 688.425781 232.550781 686.136719 227.449219 683.722656 C 222.34375 681.308594 217.300781 678.773438 212.320312 676.109375 C 207.34375 673.449219 202.429688 670.667969 197.589844 667.765625 C 192.746094 664.863281 187.976562 661.84375 183.28125 658.703125 C 178.585938 655.566406 173.972656 652.316406 169.4375 648.953125 C 164.902344 645.589844 160.453125 642.117188 156.089844 638.535156 C 151.722656 634.953125 147.449219 631.269531 143.265625 627.476562 C 139.082031 623.683594 134.996094 619.792969 131.003906 615.800781 C 127.007812 611.808594 123.117188 607.71875 119.324219 603.535156 C 115.535156 599.351562 111.847656 595.078125 108.265625 590.714844 C 104.683594 586.347656 101.210938 581.898438 97.847656 577.363281 C 94.484375 572.828125 91.234375 568.214844 88.097656 563.519531 C 84.960938 558.824219 81.941406 554.054688 79.039062 549.214844 C 76.136719 544.371094 73.351562 539.460938 70.691406 534.480469 C 68.03125 529.5 65.492188 524.457031 63.078125 519.355469 C 60.664062 514.25 58.375 509.089844 56.214844 503.875 C 54.054688 498.65625 52.023438 493.390625 50.121094 488.074219 C 48.21875 482.757812 46.449219 477.398438 44.808594 471.996094 C 43.171875 466.59375 41.664062 461.152344 40.292969 455.675781 C 38.921875 450.199219 37.683594 444.691406 36.582031 439.152344 C 35.480469 433.617188 34.515625 428.054688 33.6875 422.46875 C 32.859375 416.886719 32.167969 411.28125 31.617188 405.664062 C 31.0625 400.046875 30.648438 394.414062 30.371094 388.777344 C 30.09375 383.136719 29.953125 377.496094 29.953125 371.847656 C 29.953125 366.203125 30.09375 360.558594 30.371094 354.917969 C 30.648438 349.28125 31.0625 343.652344 31.617188 338.03125 C 32.167969 332.414062 32.859375 326.8125 33.6875 321.226562 C 34.515625 315.640625 35.480469 310.078125 36.582031 304.542969 C 37.683594 299.003906 38.921875 293.496094 40.292969 288.019531 C 41.664062 282.542969 43.171875 277.101562 44.808594 271.699219 C 46.449219 266.296875 48.21875 260.9375 50.121094 255.621094 C 52.023438 250.304688 54.054688 245.039062 56.214844 239.824219 C 58.375 234.605469 60.664062 229.445312 63.078125 224.339844 C 65.492188 219.238281 68.03125 214.195312 70.691406 209.214844 C 73.351562 204.238281 76.136719 199.324219 79.039062 194.484375 C 81.941406 189.640625 84.960938 184.871094 88.097656 180.175781 C 91.234375 175.480469 94.484375 170.867188 97.847656 166.332031 C 101.210938 161.796875 104.683594 157.347656 108.265625 152.984375 C 111.847656 148.617188 115.535156 144.34375 119.324219 140.160156 C 123.117188 135.976562 127.007812 131.890625 131.003906 127.894531 C 134.996094 123.902344 139.082031 120.011719 143.265625 116.21875 C 147.449219 112.429688 151.722656 108.742188 156.089844 105.160156 C 160.453125 101.578125 164.902344 98.105469 169.4375 94.742188 C 173.972656 91.378906 178.585938 88.128906 183.28125 84.992188 C 187.976562 81.855469 192.746094 78.835938 197.589844 75.933594 C 202.429688 73.027344 207.34375 70.246094 212.320312 67.585938 C 217.300781 64.921875 222.34375 62.386719 227.449219 59.972656 C 232.550781 57.558594 237.710938 55.269531 242.929688 53.109375 C 248.144531 50.949219 253.410156 48.917969 258.726562 47.015625 C 264.042969 45.113281 269.402344 43.34375 274.804688 41.703125 C 280.207031 40.066406 285.648438 38.558594 291.125 37.1875 C 296.601562 35.816406 302.109375 34.578125 307.648438 33.476562 C 313.183594 32.375 318.746094 31.410156 324.332031 30.582031 C 329.917969 29.753906 335.519531 29.0625 341.136719 28.507812 C 346.757812 27.957031 352.386719 27.539062 358.027344 27.265625 C 363.664062 26.988281 369.308594 26.847656 374.953125 26.847656 C 380.601562 26.847656 386.242188 26.988281 391.882812 27.265625 C 397.523438 27.539062 403.152344 27.957031 408.769531 28.507812 C 414.390625 29.0625 419.992188 29.753906 425.574219 30.582031 C 431.160156 31.410156 436.722656 32.375 442.261719 33.476562 C 447.796875 34.578125 453.304688 35.816406 458.78125 37.1875 C 464.257812 38.558594 469.699219 40.066406 475.101562 41.703125 C 480.503906 43.34375 485.863281 45.113281 491.179688 47.015625 C 496.496094 48.917969 501.761719 50.949219 506.980469 53.109375 C 512.195312 55.269531 517.355469 57.558594 522.460938 59.972656 C 527.566406 62.386719 532.605469 64.921875 537.585938 67.585938 C 542.566406 70.246094 547.476562 73.027344 552.320312 75.933594 C 557.164062 78.835938 561.929688 81.855469 566.625 84.992188 C 571.320312 88.128906 575.933594 91.378906 580.46875 94.742188 C 585.003906 98.105469 589.453125 101.578125 593.820312 105.160156 C 598.183594 108.742188 602.457031 112.429688 606.640625 116.21875 C 610.824219 120.011719 614.914062 123.902344 618.90625 127.894531 C 622.898438 131.890625 626.789062 135.976562 630.582031 140.160156 C 634.375 144.34375 638.0625 148.617188 641.640625 152.984375 C 645.222656 157.347656 648.695312 161.796875 652.058594 166.332031 C 655.425781 170.867188 658.675781 175.480469 661.8125 180.175781 C 664.949219 184.871094 667.96875 189.640625 670.871094 194.484375 C 673.773438 199.324219 676.554688 204.238281 679.214844 209.214844 C 681.878906 214.195312 684.417969 219.238281 686.832031 224.339844 C 689.242188 229.445312 691.53125 234.605469 693.691406 239.824219 C 695.851562 245.039062 697.882812 250.304688 699.785156 255.621094 C 701.6875 260.9375 703.460938 266.296875 705.097656 271.699219 C 706.738281 277.101562 708.242188 282.542969 709.613281 288.019531 C 710.988281 293.496094 712.222656 299.003906 713.324219 304.542969 C 714.425781 310.078125 715.390625 315.640625 716.21875 321.226562 C 717.046875 326.8125 717.738281 332.414062 718.292969 338.03125 C 718.847656 343.652344 719.261719 349.28125 719.539062 354.917969 C 719.816406 360.558594 719.953125 366.203125 719.953125 371.847656 Z M 719.953125 371.847656 " fill-opacity="1" fill-rule="nonzero"/></g><g clip-path="url(#c2970e12c7)"><path fill="#000000" d="M 375.144531 740.769531 C 173.148438 740.769531 9.519531 576.011719 9.519531 375.144531 C 9.519531 174.277344 173.148438 9.519531 375.144531 9.519531 C 577.140625 9.519531 740.769531 173.148438 740.769531 375.144531 C 740.769531 577.140625 576.011719 740.769531 375.144531 740.769531 Z M 375.144531 32.089844 C 185.5625 32.089844 32.089844 185.5625 32.089844 375.144531 C 32.089844 564.726562 185.5625 718.199219 375.144531 718.199219 C 564.726562 718.199219 718.199219 564.726562 718.199219 375.144531 C 718.199219 185.5625 563.597656 32.089844 375.144531 32.089844 Z M 375.144531 32.089844 " fill-opacity="1" fill-rule="nonzero"/></g></svg>