<svg xmlns="http://www.w3.org/2000/svg" xmlns:xlink="http://www.w3.org/1999/xlink" width="1000" zoomAndPan="magnify" viewBox="0 0 750 749.999995" height="1000" preserveAspectRatio="xMidYMid meet" version="1.0"><path fill="#2f90da" d="M 738.308594 639.28125 C 736.445312 640.367188 734.445312 641.238281 732.363281 641.757812 C 731.316406 641.960938 730.265625 642.257812 729.214844 642.316406 C 728.234375 642.390625 726.945312 642.480469 726.21875 642.472656 L 717.566406 642.394531 L 682.964844 642.097656 L 648.363281 641.480469 C 602.230469 640.441406 556.09375 639.042969 509.960938 635.875 C 468.75 638.574219 427.535156 640.351562 386.324219 641.582031 C 345.113281 642.914062 303.898438 643.496094 262.6875 643.898438 C 221.472656 644.050781 180.261719 643.574219 139.050781 642.890625 C 118.441406 642.578125 97.835938 642.28125 77.230469 641.707031 C 66.925781 641.433594 56.625 641.109375 46.320312 640.710938 L 30.867188 640.152344 L 23.140625 639.871094 L 19.191406 639.710938 L 16.710938 639.460938 L 14.273438 638.878906 C 7.785156 636.964844 2.738281 631.59375 1.027344 625.371094 C 0.140625 622.265625 0.0546875 618.933594 0.78125 615.800781 C 1.117188 614.226562 1.722656 612.734375 2.414062 611.3125 L 3.617188 609.273438 L 4.722656 607.675781 C 10.632812 599.230469 16.457031 590.730469 22.222656 582.195312 C 33.792969 565.148438 45.074219 547.90625 56.148438 530.535156 C 78.304688 495.792969 98.582031 459.824219 120.257812 424.765625 C 131.117188 407.253906 142.238281 389.910156 153.707031 372.796875 L 170.867188 347.09375 L 188.292969 321.566406 C 211.710938 287.648438 235.425781 253.925781 260.625 221.171875 C 283.605469 181.09375 307.355469 141.511719 331.566406 102.234375 L 349.765625 72.804688 L 352.066406 69.140625 L 353.214844 67.308594 L 353.789062 66.394531 L 354.695312 65.121094 C 357.183594 61.671875 360.757812 58.863281 364.789062 57.269531 C 372.828125 54.070312 382.667969 55.6875 389.167969 61.816406 C 389.929688 62.601562 390.78125 63.332031 391.414062 64.210938 C 392.042969 65.015625 392.863281 66.097656 393.15625 66.566406 L 395.589844 70.140625 L 400.433594 77.308594 L 410.039062 91.691406 L 429.261719 120.457031 C 454.628906 158.980469 479.46875 197.84375 504.132812 236.824219 C 516.492188 256.300781 528.863281 275.765625 541 295.382812 C 553.191406 314.964844 565.054688 334.765625 577.085938 354.449219 C 601.023438 393.90625 625.542969 432.980469 651.253906 471.28125 C 676.882812 509.628906 704.390625 546.753906 730.503906 584.789062 L 740.234375 599.09375 L 745.078125 606.257812 L 745.675781 607.171875 L 746.464844 608.539062 C 747.003906 609.441406 747.472656 610.382812 747.828125 611.398438 C 748.242188 612.382812 748.578125 613.394531 748.792969 614.453125 C 749.070312 615.496094 749.242188 616.554688 749.308594 617.628906 C 750.097656 626.226562 745.769531 634.863281 738.308594 639.28125 Z M 738.308594 639.28125 " fill-opacity="1" fill-rule="nonzero"/><path fill="#50cad3" d="M 558.074219 569.578125 C 514.632812 565.929688 496.460938 547.054688 491.816406 504.164062 C 488.601562 474.476562 527.683594 441.933594 556.042969 443.03125 C 588.839844 444.300781 618.710938 474.367188 618.597656 508.429688 C 618.484375 542.890625 592.109375 569.539062 558.074219 569.578125 Z M 173.953125 455.867188 C 143.683594 454.71875 101.132812 491.738281 101.949219 522.164062 C 103.027344 562.273438 135.292969 595.621094 176.09375 596.230469 C 212.242188 596.773438 242.496094 566.945312 242.804688 530.464844 C 243.128906 492.523438 209.976562 457.238281 173.953125 455.867188 Z M 173.953125 455.867188 " fill-opacity="1" fill-rule="nonzero"/><path fill="#ffffff" d="M 334.296875 446.503906 C 333.585938 491.648438 301.871094 528 263.511719 527.636719 C 219.941406 527.230469 186.191406 484.65625 185.085938 433.496094 C 184.320312 398.265625 231.238281 349.820312 263.164062 352.402344 C 300.65625 355.429688 335.050781 398.816406 334.296875 446.503906 Z M 498.585938 335.554688 C 467.648438 327.269531 412.769531 366.472656 407.171875 401.265625 C 399.046875 451.789062 424.578125 499.746094 467.363281 507.988281 C 505.03125 515.246094 542.773438 485.199219 551.605469 440.925781 C 560.9375 394.152344 534.921875 345.285156 498.585938 335.554688 Z M 498.585938 335.554688 " fill-opacity="1" fill-rule="nonzero"/><path fill="#59524b" d="M 375.414062 548.21875 C 337.851562 548.21875 328.238281 524.28125 327.824219 523.199219 C 326.871094 520.703125 328.117188 517.902344 330.617188 516.945312 C 333.097656 516.003906 335.894531 517.230469 336.859375 519.707031 C 337.25 520.675781 346.054688 541.105469 382.242188 538.257812 C 401.160156 536.753906 412.308594 514.84375 412.414062 514.621094 C 413.613281 512.222656 416.523438 511.253906 418.914062 512.445312 C 421.308594 513.640625 422.28125 516.546875 421.089844 518.941406 C 420.535156 520.042969 407.324219 545.980469 383.011719 547.90625 C 380.359375 548.121094 377.828125 548.21875 375.414062 548.21875 Z M 289.117188 421.835938 C 276.582031 421.714844 266.519531 411.457031 266.644531 398.925781 C 266.707031 392.230469 269.6875 386.257812 274.34375 382.152344 C 268.261719 379.265625 261.785156 377.449219 255.183594 376.984375 C 229.949219 375.214844 192.933594 407.714844 193.578125 431.390625 C 194.511719 465.769531 221.230469 494.414062 255.660156 494.738281 C 285.972656 495.023438 310.988281 470.636719 311.5 440.300781 C 311.652344 431.316406 309.617188 422.558594 305.964844 414.554688 C 301.765625 419.078125 295.773438 421.902344 289.117188 421.835938 Z M 508.742188 407.652344 C 496.210938 407.53125 486.148438 397.273438 486.269531 384.742188 C 486.335938 378.046875 489.3125 372.074219 493.96875 367.964844 C 487.886719 365.078125 481.410156 363.265625 474.808594 362.800781 C 449.574219 361.03125 412.558594 393.527344 413.203125 417.203125 C 414.136719 451.582031 440.855469 480.230469 475.285156 480.554688 C 505.597656 480.839844 530.617188 456.449219 531.125 426.117188 C 531.277344 417.132812 529.246094 408.371094 525.589844 400.371094 C 521.394531 404.894531 515.398438 407.714844 508.742188 407.652344 Z M 508.742188 407.652344 " fill-opacity="1" fill-rule="nonzero"/></svg>