<svg xmlns="http://www.w3.org/2000/svg" xmlns:xlink="http://www.w3.org/1999/xlink" width="15" zoomAndPan="magnify" viewBox="0 0 30 30.000001" height="15" preserveAspectRatio="xMidYMid meet" version="1.0"><defs><clipPath id="8d63dddc59"><path d="M 0.484375 0 L 29.515625 0 L 29.515625 29.03125 L 0.484375 29.03125 Z M 0.484375 0 " clip-rule="nonzero"/></clipPath><clipPath id="ce67b1a919"><path d="M 1.210938 0.726562 L 28.789062 0.726562 L 28.789062 28.304688 L 1.210938 28.304688 Z M 1.210938 0.726562 " clip-rule="nonzero"/></clipPath><clipPath id="fbcbbb342f"><path d="M 4.445312 11.964844 L 24.144531 11.964844 L 24.144531 27.726562 L 4.445312 27.726562 Z M 4.445312 11.964844 " clip-rule="nonzero"/></clipPath><clipPath id="ea370957ea"><path d="M 5.203125 5.515625 L 24.796875 5.515625 L 24.796875 11.964844 L 5.203125 11.964844 Z M 5.203125 5.515625 " clip-rule="nonzero"/></clipPath><clipPath id="7db6b2de9f"><path d="M 12.675781 3.703125 L 17.324219 3.703125 L 17.324219 7.332031 L 12.675781 7.332031 Z M 12.675781 3.703125 " clip-rule="nonzero"/></clipPath><clipPath id="49ef1a2862"><path d="M 9 9 L 21 9 L 21 22 L 9 22 Z M 9 9 " clip-rule="nonzero"/></clipPath><clipPath id="98ac9d8a2f"><path d="M 14.78125 6.308594 L 24.257812 15.300781 L 15.269531 24.777344 L 5.789062 15.785156 Z M 14.78125 6.308594 " clip-rule="nonzero"/></clipPath><clipPath id="899fd7fc24"><path d="M 14.78125 6.308594 L 24.257812 15.300781 L 15.269531 24.777344 L 5.789062 15.785156 Z M 14.78125 6.308594 " clip-rule="nonzero"/></clipPath><clipPath id="cf231e11e7"><path d="M 14.78125 6.308594 L 24.257812 15.300781 L 15.269531 24.777344 L 5.789062 15.785156 Z M 14.78125 6.308594 " clip-rule="nonzero"/></clipPath></defs><g clip-path="url(#8d63dddc59)"><path fill="#ffffff" d="M 0.484375 0 L 29.515625 0 L 29.515625 29.03125 L 0.484375 29.03125 Z M 0.484375 0 " fill-opacity="1" fill-rule="nonzero"/><path fill="#ffffff" d="M 0.484375 0 L 29.515625 0 L 29.515625 29.03125 L 0.484375 29.03125 Z M 0.484375 0 " fill-opacity="1" fill-rule="nonzero"/></g><g clip-path="url(#ce67b1a919)"><path fill="#5271ff" d="M 5.515625 7.035156 L 10.234375 7.035156 L 10.234375 8.957031 L 5.515625 8.957031 Z M 6.609375 28.273438 L 26.417969 28.273438 L 26.417969 10.476562 L 28.789062 10.476562 L 28.789062 7.457031 L 15 0.777344 L 1.210938 7.457031 L 1.210938 10.476562 L 3.582031 10.476562 L 3.582031 28.273438 Z M 23.390625 27.074219 L 6.609375 27.074219 L 6.609375 12.941406 L 23.390625 12.941406 Z M 12.355469 7.996094 C 12.355469 6.535156 13.539062 5.351562 15 5.351562 C 16.460938 5.351562 17.644531 6.535156 17.644531 7.996094 C 17.644531 9.457031 16.460938 10.640625 15 10.640625 C 13.539062 10.640625 12.355469 9.457031 12.355469 7.996094 Z M 19.761719 8.957031 L 19.761719 7.035156 L 24.484375 7.035156 L 24.484375 8.957031 Z M 19.761719 8.957031 " fill-opacity="1" fill-rule="evenodd"/></g><path fill="#5271ff" d="M 12.617188 22.925781 L 9.082031 22.925781 L 9.082031 26.460938 L 12.617188 26.460938 Z M 11.128906 23.523438 C 10.992188 23.523438 10.882812 23.632812 10.882812 23.769531 C 10.882812 23.902344 10.992188 24.011719 11.128906 24.011719 L 11.804688 24.011719 C 11.9375 24.011719 12.050781 23.902344 12.050781 23.769531 C 12.050781 23.632812 11.9375 23.523438 11.804688 23.523438 Z M 11.128906 23.523438 " fill-opacity="1" fill-rule="evenodd"/><path fill="#5271ff" d="M 13.230469 22.925781 L 13.230469 26.460938 L 16.769531 26.460938 L 16.769531 22.925781 Z M 15.277344 23.523438 C 15.140625 23.523438 15.03125 23.632812 15.03125 23.769531 C 15.03125 23.902344 15.140625 24.011719 15.277344 24.011719 L 15.953125 24.011719 C 16.089844 24.011719 16.199219 23.902344 16.199219 23.769531 C 16.199219 23.632812 16.089844 23.523438 15.953125 23.523438 Z M 15.277344 23.523438 " fill-opacity="1" fill-rule="evenodd"/><path fill="#5271ff" d="M 15.304688 18.777344 L 15.304688 22.3125 L 18.84375 22.3125 L 18.84375 18.777344 Z M 17.351562 19.375 C 17.21875 19.375 17.105469 19.484375 17.105469 19.621094 C 17.105469 19.753906 17.21875 19.863281 17.351562 19.863281 L 18.027344 19.863281 C 18.164062 19.863281 18.273438 19.753906 18.273438 19.621094 C 18.273438 19.484375 18.164062 19.375 18.027344 19.375 Z M 17.351562 19.375 " fill-opacity="1" fill-rule="evenodd"/><path fill="#5271ff" d="M 14.691406 18.777344 L 11.15625 18.777344 L 11.15625 22.3125 L 14.691406 22.3125 Z M 13.203125 19.375 C 13.066406 19.375 12.957031 19.484375 12.957031 19.621094 C 12.957031 19.753906 13.066406 19.863281 13.203125 19.863281 L 13.878906 19.863281 C 14.015625 19.863281 14.125 19.753906 14.125 19.621094 C 14.125 19.484375 14.015625 19.375 13.878906 19.375 Z M 13.203125 19.375 " fill-opacity="1" fill-rule="evenodd"/><path fill="#5271ff" d="M 13.230469 14.625 L 13.230469 18.164062 L 16.769531 18.164062 L 16.769531 14.625 Z M 15.277344 15.226562 C 15.140625 15.226562 15.03125 15.335938 15.03125 15.472656 C 15.03125 15.605469 15.140625 15.714844 15.277344 15.714844 L 15.953125 15.714844 C 16.089844 15.714844 16.199219 15.605469 16.199219 15.472656 C 16.199219 15.335938 16.089844 15.226562 15.953125 15.226562 Z M 15.277344 15.226562 " fill-opacity="1" fill-rule="evenodd"/><path fill="#5271ff" d="M 20.917969 22.925781 L 17.378906 22.925781 L 17.378906 26.460938 L 20.917969 26.460938 Z M 19.425781 23.523438 C 19.292969 23.523438 19.183594 23.632812 19.183594 23.769531 C 19.183594 23.902344 19.292969 24.011719 19.425781 24.011719 L 20.101562 24.011719 C 20.238281 24.011719 20.347656 23.902344 20.347656 23.769531 C 20.347656 23.632812 20.238281 23.523438 20.101562 23.523438 Z M 19.425781 23.523438 " fill-opacity="1" fill-rule="evenodd"/><g clip-path="url(#fbcbbb342f)"><path fill="#5271ff" d="M 4.445312 11.964844 L 24.144531 11.964844 L 24.144531 27.726562 L 4.445312 27.726562 Z M 4.445312 11.964844 " fill-opacity="1" fill-rule="nonzero"/></g><g clip-path="url(#ea370957ea)"><path fill="#5271ff" d="M 5.203125 5.515625 L 24.796875 5.515625 L 24.796875 11.964844 L 5.203125 11.964844 Z M 5.203125 5.515625 " fill-opacity="1" fill-rule="nonzero"/></g><g clip-path="url(#7db6b2de9f)"><path fill="#5271ff" d="M 12.675781 3.703125 L 17.324219 3.703125 L 17.324219 7.332031 L 12.675781 7.332031 Z M 12.675781 3.703125 " fill-opacity="1" fill-rule="nonzero"/></g><g clip-path="url(#49ef1a2862)"><g clip-path="url(#98ac9d8a2f)"><g clip-path="url(#899fd7fc24)"><g clip-path="url(#cf231e11e7)"><path fill="#000000" d="M 17.734375 15.632812 C 17.644531 15.546875 17.640625 15.402344 17.726562 15.3125 C 17.726562 15.3125 20.359375 12.539062 20.359375 12.539062 C 20.617188 12.269531 20.605469 11.839844 20.332031 11.582031 L 18.699219 10.03125 C 18.429688 9.777344 18 9.789062 17.742188 10.058594 L 15.113281 12.832031 C 15.027344 12.921875 14.882812 12.925781 14.792969 12.839844 C 14.792969 12.839844 12.019531 10.210938 12.019531 10.210938 C 11.75 9.953125 11.320312 9.964844 11.0625 10.234375 L 9.515625 11.867188 C 9.257812 12.140625 9.269531 12.566406 9.539062 12.824219 L 12.3125 15.457031 C 12.402344 15.542969 12.40625 15.683594 12.320312 15.773438 C 12.320312 15.773438 9.691406 18.546875 9.691406 18.546875 C 9.433594 18.820312 9.445312 19.246094 9.714844 19.503906 L 11.347656 21.054688 C 11.621094 21.3125 12.046875 21.300781 12.304688 21.027344 L 14.9375 18.253906 C 15.023438 18.164062 15.164062 18.160156 15.253906 18.246094 C 15.253906 18.246094 18.027344 20.878906 18.027344 20.878906 C 18.300781 21.132812 18.726562 21.125 18.984375 20.851562 L 20.535156 19.21875 C 20.792969 18.949219 20.78125 18.519531 20.507812 18.261719 Z M 17.734375 15.632812 " fill-opacity="1" fill-rule="evenodd"/></g></g></g></g></svg>