<svg xmlns="http://www.w3.org/2000/svg" xmlns:xlink="http://www.w3.org/1999/xlink" width="15" zoomAndPan="magnify" viewBox="0 0 30 30.000001" height="15" preserveAspectRatio="xMidYMid meet" version="1.0"><defs><clipPath id="dde3df8536"><path d="M 0.484375 0 L 29.515625 0 L 29.515625 29.03125 L 0.484375 29.03125 Z M 0.484375 0 " clip-rule="nonzero"/></clipPath><clipPath id="12310255ee"><path d="M 1.210938 0.726562 L 28.789062 0.726562 L 28.789062 28.304688 L 1.210938 28.304688 Z M 1.210938 0.726562 " clip-rule="nonzero"/></clipPath><clipPath id="17514c17c4"><path d="M 4.445312 11.964844 L 24.144531 11.964844 L 24.144531 27.726562 L 4.445312 27.726562 Z M 4.445312 11.964844 " clip-rule="nonzero"/></clipPath><clipPath id="0351aded01"><path d="M 5.203125 5.515625 L 24.796875 5.515625 L 24.796875 11.964844 L 5.203125 11.964844 Z M 5.203125 5.515625 " clip-rule="nonzero"/></clipPath><clipPath id="9e0e850825"><path d="M 12.675781 3.703125 L 17.324219 3.703125 L 17.324219 7.332031 L 12.675781 7.332031 Z M 12.675781 3.703125 " clip-rule="nonzero"/></clipPath><clipPath id="f8764d44b1"><path d="M 9.195312 14.515625 L 20.804688 14.515625 L 20.804688 18.144531 L 9.195312 18.144531 Z M 9.195312 14.515625 " clip-rule="nonzero"/></clipPath><clipPath id="3750df19c2"><path d="M 13 14.515625 L 14 14.515625 L 14 15 L 13 15 Z M 13 14.515625 " clip-rule="nonzero"/></clipPath><clipPath id="bb6fc6224d"><path d="M 12 14.515625 L 14 14.515625 L 14 15 L 12 15 Z M 12 14.515625 " clip-rule="nonzero"/></clipPath><clipPath id="060c10c438"><path d="M 12 14.515625 L 13 14.515625 L 13 15 L 12 15 Z M 12 14.515625 " clip-rule="nonzero"/></clipPath><clipPath id="f4a6fae527"><path d="M 12 14.515625 L 13 14.515625 L 13 15 L 12 15 Z M 12 14.515625 " clip-rule="nonzero"/></clipPath><clipPath id="47c1a13176"><path d="M 14 14.515625 L 15 14.515625 L 15 15 L 14 15 Z M 14 14.515625 " clip-rule="nonzero"/></clipPath><clipPath id="607b36d91f"><path d="M 14 14.515625 L 15 14.515625 L 15 15 L 14 15 Z M 14 14.515625 " clip-rule="nonzero"/></clipPath><clipPath id="6ec8d688c9"><path d="M 13 14.515625 L 14 14.515625 L 14 15 L 13 15 Z M 13 14.515625 " clip-rule="nonzero"/></clipPath><clipPath id="609af0ce81"><path d="M 10 14.515625 L 11 14.515625 L 11 15 L 10 15 Z M 10 14.515625 " clip-rule="nonzero"/></clipPath><clipPath id="4c75f9bdca"><path d="M 10 14.515625 L 11 14.515625 L 11 15 L 10 15 Z M 10 14.515625 " clip-rule="nonzero"/></clipPath><clipPath id="cdab64c0d1"><path d="M 9.195312 17 L 11 17 L 11 18 L 9.195312 18 Z M 9.195312 17 " clip-rule="nonzero"/></clipPath><clipPath id="8791bc5c74"><path d="M 9.195312 14.515625 L 11 14.515625 L 11 15 L 9.195312 15 Z M 9.195312 14.515625 " clip-rule="nonzero"/></clipPath><clipPath id="f127c09737"><path d="M 11 14.515625 L 12 14.515625 L 12 15 L 11 15 Z M 11 14.515625 " clip-rule="nonzero"/></clipPath><clipPath id="9782f3fceb"><path d="M 11 14.515625 L 12 14.515625 L 12 15 L 11 15 Z M 11 14.515625 " clip-rule="nonzero"/></clipPath><clipPath id="92a68caf9a"><path d="M 11 14.515625 L 13 14.515625 L 13 15 L 11 15 Z M 11 14.515625 " clip-rule="nonzero"/></clipPath><clipPath id="45a94eef21"><path d="M 14 14.515625 L 16 14.515625 L 16 15 L 14 15 Z M 14 14.515625 " clip-rule="nonzero"/></clipPath><clipPath id="157e1f065a"><path d="M 19 14.515625 L 20 14.515625 L 20 15 L 19 15 Z M 19 14.515625 " clip-rule="nonzero"/></clipPath><clipPath id="53b03e6f38"><path d="M 18 14.515625 L 19 14.515625 L 19 15 L 18 15 Z M 18 14.515625 " clip-rule="nonzero"/></clipPath><clipPath id="a09b58e6c6"><path d="M 17 14.515625 L 19 14.515625 L 19 15 L 17 15 Z M 17 14.515625 " clip-rule="nonzero"/></clipPath><clipPath id="94e6b36e7d"><path d="M 17 14.515625 L 18 14.515625 L 18 15 L 17 15 Z M 17 14.515625 " clip-rule="nonzero"/></clipPath><clipPath id="7c33ca1145"><path d="M 19 14.515625 L 20 14.515625 L 20 15 L 19 15 Z M 19 14.515625 " clip-rule="nonzero"/></clipPath><clipPath id="4e07d3461d"><path d="M 18 14.515625 L 19 14.515625 L 19 15 L 18 15 Z M 18 14.515625 " clip-rule="nonzero"/></clipPath><clipPath id="2b16eb1591"><path d="M 16 14.515625 L 17 14.515625 L 17 15 L 16 15 Z M 16 14.515625 " clip-rule="nonzero"/></clipPath><clipPath id="3a0d777e85"><path d="M 15 14.515625 L 16 14.515625 L 16 15 L 15 15 Z M 15 14.515625 " clip-rule="nonzero"/></clipPath><clipPath id="77d3da8b34"><path d="M 15 14.515625 L 16 14.515625 L 16 15 L 15 15 Z M 15 14.515625 " clip-rule="nonzero"/></clipPath><clipPath id="7d7dd0d8c1"><path d="M 16 14.515625 L 17 14.515625 L 17 15 L 16 15 Z M 16 14.515625 " clip-rule="nonzero"/></clipPath><clipPath id="3127290318"><path d="M 17 14.515625 L 18 14.515625 L 18 15 L 17 15 Z M 17 14.515625 " clip-rule="nonzero"/></clipPath><clipPath id="85a6357340"><path d="M 16 14.515625 L 18 14.515625 L 18 15 L 16 15 Z M 16 14.515625 " clip-rule="nonzero"/></clipPath><clipPath id="f3c477e6a5"><path d="M 20 14.515625 L 20.804688 14.515625 L 20.804688 15 L 20 15 Z M 20 14.515625 " clip-rule="nonzero"/></clipPath><clipPath id="75e663c636"><path d="M 20 17 L 20.804688 17 L 20.804688 18 L 20 18 Z M 20 17 " clip-rule="nonzero"/></clipPath><clipPath id="0f0e6c5e7b"><path d="M 19 14.515625 L 20.804688 14.515625 L 20.804688 15 L 19 15 Z M 19 14.515625 " clip-rule="nonzero"/></clipPath><clipPath id="0b4034b653"><path d="M 19 17 L 20.804688 17 L 20.804688 18 L 19 18 Z M 19 17 " clip-rule="nonzero"/></clipPath><clipPath id="42d70235b5"><path d="M 20 17 L 20.804688 17 L 20.804688 18 L 20 18 Z M 20 17 " clip-rule="nonzero"/></clipPath><clipPath id="c63e76d282"><path d="M 9.195312 17 L 10 17 L 10 18 L 9.195312 18 Z M 9.195312 17 " clip-rule="nonzero"/></clipPath><clipPath id="309a1fdbc3"><path d="M 9.195312 14.515625 L 10 14.515625 L 10 15 L 9.195312 15 Z M 9.195312 14.515625 " clip-rule="nonzero"/></clipPath><clipPath id="40680cc6ad"><path d="M 9.195312 17 L 10 17 L 10 18 L 9.195312 18 Z M 9.195312 17 " clip-rule="nonzero"/></clipPath><clipPath id="4af0fbb0d0"><path d="M 9.195312 14.515625 L 10 14.515625 L 10 15 L 9.195312 15 Z M 9.195312 14.515625 " clip-rule="nonzero"/></clipPath></defs><g clip-path="url(#dde3df8536)"><path fill="#ffffff" d="M 0.484375 0 L 29.515625 0 L 29.515625 29.03125 L 0.484375 29.03125 Z M 0.484375 0 " fill-opacity="1" fill-rule="nonzero"/><path fill="#ffffff" d="M 0.484375 0 L 29.515625 0 L 29.515625 29.03125 L 0.484375 29.03125 Z M 0.484375 0 " fill-opacity="1" fill-rule="nonzero"/></g><g clip-path="url(#12310255ee)"><path fill="#5271ff" d="M 5.515625 7.035156 L 10.234375 7.035156 L 10.234375 8.957031 L 5.515625 8.957031 Z M 6.609375 28.273438 L 26.417969 28.273438 L 26.417969 10.476562 L 28.789062 10.476562 L 28.789062 7.457031 L 15 0.777344 L 1.210938 7.457031 L 1.210938 10.476562 L 3.582031 10.476562 L 3.582031 28.273438 Z M 23.390625 27.074219 L 6.609375 27.074219 L 6.609375 12.941406 L 23.390625 12.941406 Z M 12.355469 7.996094 C 12.355469 6.535156 13.539062 5.351562 15 5.351562 C 16.460938 5.351562 17.644531 6.535156 17.644531 7.996094 C 17.644531 9.457031 16.460938 10.640625 15 10.640625 C 13.539062 10.640625 12.355469 9.457031 12.355469 7.996094 Z M 19.761719 8.957031 L 19.761719 7.035156 L 24.484375 7.035156 L 24.484375 8.957031 Z M 19.761719 8.957031 " fill-opacity="1" fill-rule="evenodd"/></g><path fill="#5271ff" d="M 12.617188 22.925781 L 9.082031 22.925781 L 9.082031 26.460938 L 12.617188 26.460938 Z M 11.128906 23.523438 C 10.992188 23.523438 10.882812 23.632812 10.882812 23.769531 C 10.882812 23.902344 10.992188 24.011719 11.128906 24.011719 L 11.804688 24.011719 C 11.9375 24.011719 12.050781 23.902344 12.050781 23.769531 C 12.050781 23.632812 11.9375 23.523438 11.804688 23.523438 Z M 11.128906 23.523438 " fill-opacity="1" fill-rule="evenodd"/><path fill="#5271ff" d="M 13.230469 22.925781 L 13.230469 26.460938 L 16.769531 26.460938 L 16.769531 22.925781 Z M 15.277344 23.523438 C 15.140625 23.523438 15.03125 23.632812 15.03125 23.769531 C 15.03125 23.902344 15.140625 24.011719 15.277344 24.011719 L 15.953125 24.011719 C 16.089844 24.011719 16.199219 23.902344 16.199219 23.769531 C 16.199219 23.632812 16.089844 23.523438 15.953125 23.523438 Z M 15.277344 23.523438 " fill-opacity="1" fill-rule="evenodd"/><path fill="#5271ff" d="M 15.304688 18.777344 L 15.304688 22.3125 L 18.84375 22.3125 L 18.84375 18.777344 Z M 17.351562 19.375 C 17.21875 19.375 17.105469 19.484375 17.105469 19.621094 C 17.105469 19.753906 17.21875 19.863281 17.351562 19.863281 L 18.027344 19.863281 C 18.164062 19.863281 18.273438 19.753906 18.273438 19.621094 C 18.273438 19.484375 18.164062 19.375 18.027344 19.375 Z M 17.351562 19.375 " fill-opacity="1" fill-rule="evenodd"/><path fill="#5271ff" d="M 14.691406 18.777344 L 11.15625 18.777344 L 11.15625 22.3125 L 14.691406 22.3125 Z M 13.203125 19.375 C 13.066406 19.375 12.957031 19.484375 12.957031 19.621094 C 12.957031 19.753906 13.066406 19.863281 13.203125 19.863281 L 13.878906 19.863281 C 14.015625 19.863281 14.125 19.753906 14.125 19.621094 C 14.125 19.484375 14.015625 19.375 13.878906 19.375 Z M 13.203125 19.375 " fill-opacity="1" fill-rule="evenodd"/><path fill="#5271ff" d="M 13.230469 14.625 L 13.230469 18.164062 L 16.769531 18.164062 L 16.769531 14.625 Z M 15.277344 15.226562 C 15.140625 15.226562 15.03125 15.335938 15.03125 15.472656 C 15.03125 15.605469 15.140625 15.714844 15.277344 15.714844 L 15.953125 15.714844 C 16.089844 15.714844 16.199219 15.605469 16.199219 15.472656 C 16.199219 15.335938 16.089844 15.226562 15.953125 15.226562 Z M 15.277344 15.226562 " fill-opacity="1" fill-rule="evenodd"/><path fill="#5271ff" d="M 20.917969 22.925781 L 17.378906 22.925781 L 17.378906 26.460938 L 20.917969 26.460938 Z M 19.425781 23.523438 C 19.292969 23.523438 19.183594 23.632812 19.183594 23.769531 C 19.183594 23.902344 19.292969 24.011719 19.425781 24.011719 L 20.101562 24.011719 C 20.238281 24.011719 20.347656 23.902344 20.347656 23.769531 C 20.347656 23.632812 20.238281 23.523438 20.101562 23.523438 Z M 19.425781 23.523438 " fill-opacity="1" fill-rule="evenodd"/><g clip-path="url(#17514c17c4)"><path fill="#5271ff" d="M 4.445312 11.964844 L 24.144531 11.964844 L 24.144531 27.726562 L 4.445312 27.726562 Z M 4.445312 11.964844 " fill-opacity="1" fill-rule="nonzero"/></g><g clip-path="url(#0351aded01)"><path fill="#5271ff" d="M 5.203125 5.515625 L 24.796875 5.515625 L 24.796875 11.964844 L 5.203125 11.964844 Z M 5.203125 5.515625 " fill-opacity="1" fill-rule="nonzero"/></g><g clip-path="url(#9e0e850825)"><path fill="#5271ff" d="M 12.675781 3.703125 L 17.324219 3.703125 L 17.324219 7.332031 L 12.675781 7.332031 Z M 12.675781 3.703125 " fill-opacity="1" fill-rule="nonzero"/></g><g clip-path="url(#f8764d44b1)"><path fill="#000000" d="M 20.65625 17.867188 L 20.65625 17.808594 L 20.730469 17.808594 L 20.410156 16.28125 L 20.730469 14.777344 L 20.660156 14.777344 L 20.660156 14.71875 L 20.742188 14.71875 L 20.78125 14.515625 L 9.21875 14.515625 L 9.257812 14.71875 L 9.328125 14.71875 L 9.328125 14.777344 L 9.269531 14.777344 L 9.585938 16.28125 L 9.265625 17.808594 L 9.328125 17.808594 L 9.328125 17.867188 L 9.257812 17.867188 L 9.21875 18.050781 L 20.78125 18.050781 L 20.742188 17.867188 Z M 9.714844 17.867188 L 9.484375 17.867188 L 9.484375 17.808594 L 9.714844 17.808594 Z M 9.714844 14.777344 L 9.484375 14.777344 L 9.484375 14.71875 L 9.714844 14.71875 Z M 10.101562 17.867188 L 9.867188 17.867188 L 9.867188 17.808594 L 10.101562 17.808594 Z M 10.101562 14.777344 L 9.867188 14.777344 L 9.867188 14.71875 L 10.101562 14.71875 Z M 10.484375 17.867188 L 10.253906 17.867188 L 10.253906 17.808594 L 10.484375 17.808594 Z M 10.484375 14.777344 L 10.253906 14.777344 L 10.253906 14.71875 L 10.484375 14.71875 Z M 10.871094 17.867188 L 10.636719 17.867188 L 10.636719 17.808594 L 10.871094 17.808594 Z M 10.871094 14.777344 L 10.636719 14.777344 L 10.636719 14.71875 L 10.871094 14.71875 Z M 11.253906 17.867188 L 11.023438 17.867188 L 11.023438 17.808594 L 11.253906 17.808594 Z M 11.253906 14.777344 L 11.023438 14.777344 L 11.023438 14.71875 L 11.253906 14.71875 Z M 11.640625 17.867188 L 11.410156 17.867188 L 11.410156 17.808594 L 11.640625 17.808594 Z M 11.640625 14.777344 L 11.410156 14.777344 L 11.410156 14.71875 L 11.640625 14.71875 Z M 12.027344 17.867188 L 11.792969 17.867188 L 11.792969 17.808594 L 12.027344 17.808594 Z M 12.027344 14.777344 L 11.792969 14.777344 L 11.792969 14.71875 L 12.027344 14.71875 Z M 12.410156 17.867188 L 12.179688 17.867188 L 12.179688 17.808594 L 12.410156 17.808594 Z M 12.410156 14.777344 L 12.179688 14.777344 L 12.179688 14.71875 L 12.410156 14.71875 Z M 12.796875 17.867188 L 12.566406 17.867188 L 12.566406 17.808594 L 12.796875 17.808594 Z M 12.796875 14.777344 L 12.566406 14.777344 L 12.566406 14.71875 L 12.796875 14.71875 Z M 12.949219 17.867188 L 12.949219 17.808594 L 13.183594 17.808594 L 13.183594 17.867188 Z M 12.949219 14.777344 L 12.949219 14.71875 L 13.183594 14.71875 L 13.183594 14.777344 Z M 13.566406 17.867188 L 13.335938 17.867188 L 13.335938 17.808594 L 13.566406 17.808594 Z M 13.566406 14.777344 L 13.335938 14.777344 L 13.335938 14.71875 L 13.566406 14.71875 Z M 13.953125 17.867188 L 13.722656 17.867188 L 13.722656 17.808594 L 13.953125 17.808594 Z M 13.953125 14.777344 L 13.722656 14.777344 L 13.722656 14.71875 L 13.953125 14.71875 Z M 14.339844 17.867188 L 14.109375 17.867188 L 14.109375 17.808594 L 14.339844 17.808594 Z M 14.339844 14.777344 L 14.109375 14.777344 L 14.109375 14.71875 L 14.339844 14.71875 Z M 14.722656 17.867188 L 14.492188 17.867188 L 14.492188 17.808594 L 14.722656 17.808594 Z M 14.722656 14.777344 L 14.492188 14.777344 L 14.492188 14.71875 L 14.722656 14.71875 Z M 15.109375 17.867188 L 14.878906 17.867188 L 14.878906 17.808594 L 15.109375 17.808594 Z M 15.109375 14.777344 L 14.878906 14.777344 L 14.878906 14.71875 L 15.109375 14.71875 Z M 15.492188 17.867188 L 15.261719 17.867188 L 15.261719 17.808594 L 15.492188 17.808594 Z M 15.492188 14.777344 L 15.261719 14.777344 L 15.261719 14.71875 L 15.492188 14.71875 Z M 15.878906 17.867188 L 15.648438 17.867188 L 15.648438 17.808594 L 15.878906 17.808594 Z M 15.878906 14.777344 L 15.648438 14.777344 L 15.648438 14.71875 L 15.878906 14.71875 Z M 16.265625 17.867188 L 16.03125 17.867188 L 16.03125 17.808594 L 16.265625 17.808594 Z M 16.265625 14.777344 L 16.03125 14.777344 L 16.03125 14.71875 L 16.265625 14.71875 Z M 16.648438 17.867188 L 16.417969 17.867188 L 16.417969 17.808594 L 16.648438 17.808594 Z M 16.648438 14.777344 L 16.417969 14.777344 L 16.417969 14.71875 L 16.648438 14.71875 Z M 17.035156 17.867188 L 16.804688 17.867188 L 16.804688 17.808594 L 17.035156 17.808594 Z M 17.035156 14.777344 L 16.804688 14.777344 L 16.804688 14.71875 L 17.035156 14.71875 Z M 17.421875 17.867188 L 17.191406 17.867188 L 17.191406 17.808594 L 17.421875 17.808594 Z M 17.421875 14.777344 L 17.191406 14.777344 L 17.191406 14.71875 L 17.421875 14.71875 Z M 17.804688 17.867188 L 17.574219 17.867188 L 17.574219 17.808594 L 17.804688 17.808594 Z M 17.804688 14.777344 L 17.574219 14.777344 L 17.574219 14.71875 L 17.804688 14.71875 Z M 18.191406 17.867188 L 17.960938 17.867188 L 17.960938 17.808594 L 18.191406 17.808594 Z M 18.191406 14.777344 L 17.960938 14.777344 L 17.960938 14.71875 L 18.191406 14.71875 Z M 18.578125 17.867188 L 18.347656 17.867188 L 18.347656 17.808594 L 18.578125 17.808594 Z M 18.578125 14.777344 L 18.347656 14.777344 L 18.347656 14.71875 L 18.578125 14.71875 Z M 18.964844 17.867188 L 18.730469 17.867188 L 18.730469 17.808594 L 18.964844 17.808594 Z M 18.964844 14.777344 L 18.730469 14.777344 L 18.730469 14.71875 L 18.964844 14.71875 Z M 19.347656 17.867188 L 19.117188 17.867188 L 19.117188 17.808594 L 19.347656 17.808594 Z M 19.347656 14.777344 L 19.117188 14.777344 L 19.117188 14.71875 L 19.347656 14.71875 Z M 19.734375 17.867188 L 19.503906 17.867188 L 19.503906 17.808594 L 19.734375 17.808594 Z M 19.734375 14.777344 L 19.503906 14.777344 L 19.503906 14.71875 L 19.734375 14.71875 Z M 20.273438 14.71875 L 20.503906 14.71875 L 20.503906 14.777344 L 20.273438 14.777344 Z M 20.121094 17.867188 L 19.886719 17.867188 L 19.886719 17.808594 L 20.121094 17.808594 Z M 20.121094 14.777344 L 19.886719 14.777344 L 19.886719 14.71875 L 20.121094 14.71875 Z M 20.503906 17.867188 L 20.273438 17.867188 L 20.273438 17.808594 L 20.503906 17.808594 Z M 20.503906 17.867188 " fill-opacity="1" fill-rule="nonzero"/></g><g clip-path="url(#3750df19c2)"><path fill="#000000" d="M 13.335938 14.71875 L 13.566406 14.71875 L 13.566406 14.773438 L 13.335938 14.773438 Z M 13.335938 14.71875 " fill-opacity="1" fill-rule="nonzero"/></g><g clip-path="url(#bb6fc6224d)"><path fill="#000000" d="M 12.949219 14.71875 L 13.183594 14.71875 L 13.183594 14.773438 L 12.949219 14.773438 Z M 12.949219 14.71875 " fill-opacity="1" fill-rule="nonzero"/></g><g clip-path="url(#060c10c438)"><path fill="#000000" d="M 12.179688 14.71875 L 12.410156 14.71875 L 12.410156 14.773438 L 12.179688 14.773438 Z M 12.179688 14.71875 " fill-opacity="1" fill-rule="nonzero"/></g><path fill="#000000" d="M 12.949219 17.808594 L 13.183594 17.808594 L 13.183594 17.867188 L 12.949219 17.867188 Z M 12.949219 17.808594 " fill-opacity="1" fill-rule="nonzero"/><path fill="#000000" d="M 12.566406 17.808594 L 12.796875 17.808594 L 12.796875 17.867188 L 12.566406 17.867188 Z M 12.566406 17.808594 " fill-opacity="1" fill-rule="nonzero"/><g clip-path="url(#f4a6fae527)"><path fill="#000000" d="M 12.566406 14.71875 L 12.796875 14.71875 L 12.796875 14.773438 L 12.566406 14.773438 Z M 12.566406 14.71875 " fill-opacity="1" fill-rule="nonzero"/></g><path fill="#000000" d="M 13.335938 17.808594 L 13.566406 17.808594 L 13.566406 17.867188 L 13.335938 17.867188 Z M 13.335938 17.808594 " fill-opacity="1" fill-rule="nonzero"/><g clip-path="url(#47c1a13176)"><path fill="#000000" d="M 14.492188 14.71875 L 14.722656 14.71875 L 14.722656 14.773438 L 14.492188 14.773438 Z M 14.492188 14.71875 " fill-opacity="1" fill-rule="nonzero"/></g><path fill="#000000" d="M 14.878906 17.808594 L 15.109375 17.808594 L 15.109375 17.867188 L 14.878906 17.867188 Z M 14.878906 17.808594 " fill-opacity="1" fill-rule="nonzero"/><path fill="#000000" d="M 13.722656 17.808594 L 13.953125 17.808594 L 13.953125 17.867188 L 13.722656 17.867188 Z M 13.722656 17.808594 " fill-opacity="1" fill-rule="nonzero"/><path fill="#000000" d="M 14.492188 17.808594 L 14.722656 17.808594 L 14.722656 17.867188 L 14.492188 17.867188 Z M 14.492188 17.808594 " fill-opacity="1" fill-rule="nonzero"/><g clip-path="url(#607b36d91f)"><path fill="#000000" d="M 14.109375 14.71875 L 14.339844 14.71875 L 14.339844 14.773438 L 14.109375 14.773438 Z M 14.109375 14.71875 " fill-opacity="1" fill-rule="nonzero"/></g><g clip-path="url(#6ec8d688c9)"><path fill="#000000" d="M 13.722656 14.71875 L 13.953125 14.71875 L 13.953125 14.773438 L 13.722656 14.773438 Z M 13.722656 14.71875 " fill-opacity="1" fill-rule="nonzero"/></g><path fill="#000000" d="M 14.109375 17.808594 L 14.339844 17.808594 L 14.339844 17.867188 L 14.109375 17.867188 Z M 14.109375 17.808594 " fill-opacity="1" fill-rule="nonzero"/><path fill="#000000" d="M 12.179688 17.808594 L 12.410156 17.808594 L 12.410156 17.867188 L 12.179688 17.867188 Z M 12.179688 17.808594 " fill-opacity="1" fill-rule="nonzero"/><g clip-path="url(#609af0ce81)"><path fill="#000000" d="M 10.636719 14.71875 L 10.871094 14.71875 L 10.871094 14.773438 L 10.636719 14.773438 Z M 10.636719 14.71875 " fill-opacity="1" fill-rule="nonzero"/></g><path fill="#000000" d="M 10.636719 17.808594 L 10.871094 17.808594 L 10.871094 17.867188 L 10.636719 17.867188 Z M 10.636719 17.808594 " fill-opacity="1" fill-rule="nonzero"/><path fill="#000000" d="M 10.253906 17.808594 L 10.484375 17.808594 L 10.484375 17.867188 L 10.253906 17.867188 Z M 10.253906 17.808594 " fill-opacity="1" fill-rule="nonzero"/><g clip-path="url(#4c75f9bdca)"><path fill="#000000" d="M 10.253906 14.71875 L 10.484375 14.71875 L 10.484375 14.773438 L 10.253906 14.773438 Z M 10.253906 14.71875 " fill-opacity="1" fill-rule="nonzero"/></g><g clip-path="url(#cdab64c0d1)"><path fill="#000000" d="M 9.867188 17.808594 L 10.101562 17.808594 L 10.101562 17.867188 L 9.867188 17.867188 Z M 9.867188 17.808594 " fill-opacity="1" fill-rule="nonzero"/></g><g clip-path="url(#8791bc5c74)"><path fill="#000000" d="M 9.867188 14.71875 L 10.101562 14.71875 L 10.101562 14.773438 L 9.867188 14.773438 Z M 9.867188 14.71875 " fill-opacity="1" fill-rule="nonzero"/></g><g clip-path="url(#f127c09737)"><path fill="#000000" d="M 11.023438 14.71875 L 11.253906 14.71875 L 11.253906 14.773438 L 11.023438 14.773438 Z M 11.023438 14.71875 " fill-opacity="1" fill-rule="nonzero"/></g><path fill="#000000" d="M 11.792969 17.808594 L 12.027344 17.808594 L 12.027344 17.867188 L 11.792969 17.867188 Z M 11.792969 17.808594 " fill-opacity="1" fill-rule="nonzero"/><path fill="#000000" d="M 11.023438 17.808594 L 11.253906 17.808594 L 11.253906 17.867188 L 11.023438 17.867188 Z M 11.023438 17.808594 " fill-opacity="1" fill-rule="nonzero"/><g clip-path="url(#9782f3fceb)"><path fill="#000000" d="M 11.410156 14.71875 L 11.640625 14.71875 L 11.640625 14.773438 L 11.410156 14.773438 Z M 11.410156 14.71875 " fill-opacity="1" fill-rule="nonzero"/></g><g clip-path="url(#92a68caf9a)"><path fill="#000000" d="M 11.792969 14.71875 L 12.027344 14.71875 L 12.027344 14.773438 L 11.792969 14.773438 Z M 11.792969 14.71875 " fill-opacity="1" fill-rule="nonzero"/></g><path fill="#000000" d="M 11.410156 17.808594 L 11.640625 17.808594 L 11.640625 17.867188 L 11.410156 17.867188 Z M 11.410156 17.808594 " fill-opacity="1" fill-rule="nonzero"/><g clip-path="url(#45a94eef21)"><path fill="#000000" d="M 14.878906 14.71875 L 15.109375 14.71875 L 15.109375 14.773438 L 14.878906 14.773438 Z M 14.878906 14.71875 " fill-opacity="1" fill-rule="nonzero"/></g><g clip-path="url(#157e1f065a)"><path fill="#000000" d="M 19.117188 14.71875 L 19.347656 14.71875 L 19.347656 14.773438 L 19.117188 14.773438 Z M 19.117188 14.71875 " fill-opacity="1" fill-rule="nonzero"/></g><path fill="#000000" d="M 18.347656 17.808594 L 18.578125 17.808594 L 18.578125 17.867188 L 18.347656 17.867188 Z M 18.347656 17.808594 " fill-opacity="1" fill-rule="nonzero"/><g clip-path="url(#53b03e6f38)"><path fill="#000000" d="M 18.347656 14.71875 L 18.578125 14.71875 L 18.578125 14.773438 L 18.347656 14.773438 Z M 18.347656 14.71875 " fill-opacity="1" fill-rule="nonzero"/></g><g clip-path="url(#a09b58e6c6)"><path fill="#000000" d="M 17.960938 14.71875 L 18.191406 14.71875 L 18.191406 14.773438 L 17.960938 14.773438 Z M 17.960938 14.71875 " fill-opacity="1" fill-rule="nonzero"/></g><g clip-path="url(#94e6b36e7d)"><path fill="#000000" d="M 17.574219 14.71875 L 17.804688 14.71875 L 17.804688 14.773438 L 17.574219 14.773438 Z M 17.574219 14.71875 " fill-opacity="1" fill-rule="nonzero"/></g><path fill="#000000" d="M 17.960938 17.808594 L 18.191406 17.808594 L 18.191406 17.867188 L 17.960938 17.867188 Z M 17.960938 17.808594 " fill-opacity="1" fill-rule="nonzero"/><path fill="#000000" d="M 19.503906 17.808594 L 19.734375 17.808594 L 19.734375 17.867188 L 19.503906 17.867188 Z M 19.503906 17.808594 " fill-opacity="1" fill-rule="nonzero"/><path fill="#000000" d="M 18.730469 17.808594 L 18.964844 17.808594 L 18.964844 17.867188 L 18.730469 17.867188 Z M 18.730469 17.808594 " fill-opacity="1" fill-rule="nonzero"/><path fill="#000000" d="M 17.574219 17.808594 L 17.804688 17.808594 L 17.804688 17.867188 L 17.574219 17.867188 Z M 17.574219 17.808594 " fill-opacity="1" fill-rule="nonzero"/><g clip-path="url(#7c33ca1145)"><path fill="#000000" d="M 19.503906 14.71875 L 19.734375 14.71875 L 19.734375 14.773438 L 19.503906 14.773438 Z M 19.503906 14.71875 " fill-opacity="1" fill-rule="nonzero"/></g><path fill="#000000" d="M 19.117188 17.808594 L 19.347656 17.808594 L 19.347656 17.867188 L 19.117188 17.867188 Z M 19.117188 17.808594 " fill-opacity="1" fill-rule="nonzero"/><g clip-path="url(#4e07d3461d)"><path fill="#000000" d="M 18.730469 14.71875 L 18.964844 14.71875 L 18.964844 14.773438 L 18.730469 14.773438 Z M 18.730469 14.71875 " fill-opacity="1" fill-rule="nonzero"/></g><g clip-path="url(#2b16eb1591)"><path fill="#000000" d="M 16.417969 14.71875 L 16.648438 14.71875 L 16.648438 14.773438 L 16.417969 14.773438 Z M 16.417969 14.71875 " fill-opacity="1" fill-rule="nonzero"/></g><g clip-path="url(#3a0d777e85)"><path fill="#000000" d="M 15.648438 14.71875 L 15.878906 14.71875 L 15.878906 14.773438 L 15.648438 14.773438 Z M 15.648438 14.71875 " fill-opacity="1" fill-rule="nonzero"/></g><path fill="#000000" d="M 16.03125 17.808594 L 16.265625 17.808594 L 16.265625 17.867188 L 16.03125 17.867188 Z M 16.03125 17.808594 " fill-opacity="1" fill-rule="nonzero"/><g clip-path="url(#77d3da8b34)"><path fill="#000000" d="M 15.265625 14.71875 L 15.496094 14.71875 L 15.496094 14.773438 L 15.265625 14.773438 Z M 15.265625 14.71875 " fill-opacity="1" fill-rule="nonzero"/></g><path fill="#000000" d="M 15.648438 17.808594 L 15.878906 17.808594 L 15.878906 17.867188 L 15.648438 17.867188 Z M 15.648438 17.808594 " fill-opacity="1" fill-rule="nonzero"/><g clip-path="url(#7d7dd0d8c1)"><path fill="#000000" d="M 16.03125 14.71875 L 16.265625 14.71875 L 16.265625 14.773438 L 16.03125 14.773438 Z M 16.03125 14.71875 " fill-opacity="1" fill-rule="nonzero"/></g><g clip-path="url(#3127290318)"><path fill="#000000" d="M 17.191406 14.71875 L 17.421875 14.71875 L 17.421875 14.773438 L 17.191406 14.773438 Z M 17.191406 14.71875 " fill-opacity="1" fill-rule="nonzero"/></g><path fill="#000000" d="M 17.191406 17.808594 L 17.421875 17.808594 L 17.421875 17.867188 L 17.191406 17.867188 Z M 17.191406 17.808594 " fill-opacity="1" fill-rule="nonzero"/><g clip-path="url(#85a6357340)"><path fill="#000000" d="M 16.804688 14.71875 L 17.035156 14.71875 L 17.035156 14.773438 L 16.804688 14.773438 Z M 16.804688 14.71875 " fill-opacity="1" fill-rule="nonzero"/></g><path fill="#000000" d="M 16.804688 17.808594 L 17.035156 17.808594 L 17.035156 17.867188 L 16.804688 17.867188 Z M 16.804688 17.808594 " fill-opacity="1" fill-rule="nonzero"/><path fill="#000000" d="M 15.265625 17.808594 L 15.496094 17.808594 L 15.496094 17.867188 L 15.265625 17.867188 Z M 15.265625 17.808594 " fill-opacity="1" fill-rule="nonzero"/><path fill="#000000" d="M 16.417969 17.808594 L 16.648438 17.808594 L 16.648438 17.867188 L 16.417969 17.867188 Z M 16.417969 17.808594 " fill-opacity="1" fill-rule="nonzero"/><g clip-path="url(#f3c477e6a5)"><path fill="#000000" d="M 20.273438 14.71875 L 20.503906 14.71875 L 20.503906 14.773438 L 20.273438 14.773438 Z M 20.273438 14.71875 " fill-opacity="1" fill-rule="nonzero"/><path fill="#000000" d="M 20.742188 14.71875 L 20.65625 14.71875 L 20.65625 14.777344 L 20.730469 14.777344 Z M 20.742188 14.71875 " fill-opacity="1" fill-rule="nonzero"/></g><g clip-path="url(#75e663c636)"><path fill="#000000" d="M 20.734375 17.808594 L 20.65625 17.808594 L 20.65625 17.867188 L 20.742188 17.867188 Z M 20.734375 17.808594 " fill-opacity="1" fill-rule="nonzero"/></g><g clip-path="url(#0f0e6c5e7b)"><path fill="#000000" d="M 19.886719 14.71875 L 20.121094 14.71875 L 20.121094 14.773438 L 19.886719 14.773438 Z M 19.886719 14.71875 " fill-opacity="1" fill-rule="nonzero"/></g><g clip-path="url(#0b4034b653)"><path fill="#000000" d="M 19.886719 17.808594 L 20.121094 17.808594 L 20.121094 17.867188 L 19.886719 17.867188 Z M 19.886719 17.808594 " fill-opacity="1" fill-rule="nonzero"/></g><g clip-path="url(#42d70235b5)"><path fill="#000000" d="M 20.273438 17.808594 L 20.503906 17.808594 L 20.503906 17.867188 L 20.273438 17.867188 Z M 20.273438 17.808594 " fill-opacity="1" fill-rule="nonzero"/></g><g clip-path="url(#c63e76d282)"><path fill="#000000" d="M 9.257812 17.867188 L 9.328125 17.867188 L 9.328125 17.808594 L 9.265625 17.808594 Z M 9.257812 17.867188 " fill-opacity="1" fill-rule="nonzero"/></g><g clip-path="url(#309a1fdbc3)"><path fill="#000000" d="M 9.269531 14.777344 L 9.328125 14.777344 L 9.328125 14.71875 L 9.257812 14.71875 Z M 9.269531 14.777344 " fill-opacity="1" fill-rule="nonzero"/></g><g clip-path="url(#40680cc6ad)"><path fill="#000000" d="M 9.484375 17.808594 L 9.714844 17.808594 L 9.714844 17.867188 L 9.484375 17.867188 Z M 9.484375 17.808594 " fill-opacity="1" fill-rule="nonzero"/></g><g clip-path="url(#4af0fbb0d0)"><path fill="#000000" d="M 9.484375 14.71875 L 9.714844 14.71875 L 9.714844 14.773438 L 9.484375 14.773438 Z M 9.484375 14.71875 " fill-opacity="1" fill-rule="nonzero"/></g></svg>