<svg xmlns="http://www.w3.org/2000/svg" xmlns:xlink="http://www.w3.org/1999/xlink" width="15" zoomAndPan="magnify" viewBox="0 0 30 30.000001" height="15" preserveAspectRatio="xMidYMid meet" version="1.0"><defs><clipPath id="44f5e30fdc"><path d="M 0.484375 0 L 29.515625 0 L 29.515625 29.03125 L 0.484375 29.03125 Z M 0.484375 0 " clip-rule="nonzero"/></clipPath><clipPath id="08c7372029"><path d="M 1.210938 0.726562 L 28.789062 0.726562 L 28.789062 28.304688 L 1.210938 28.304688 Z M 1.210938 0.726562 " clip-rule="nonzero"/></clipPath><clipPath id="4428349e7a"><path d="M 4.445312 11.964844 L 24.144531 11.964844 L 24.144531 27.726562 L 4.445312 27.726562 Z M 4.445312 11.964844 " clip-rule="nonzero"/></clipPath><clipPath id="d3e4073d27"><path d="M 5.203125 5.515625 L 24.796875 5.515625 L 24.796875 11.964844 L 5.203125 11.964844 Z M 5.203125 5.515625 " clip-rule="nonzero"/></clipPath><clipPath id="e06c97dfce"><path d="M 12.675781 3.703125 L 17.324219 3.703125 L 17.324219 7.332031 L 12.675781 7.332031 Z M 12.675781 3.703125 " clip-rule="nonzero"/></clipPath><clipPath id="e81833f4f2"><path d="M 4.445312 7.332031 L 9.089844 7.332031 L 9.089844 10.960938 L 4.445312 10.960938 Z M 4.445312 7.332031 " clip-rule="nonzero"/></clipPath><clipPath id="5eff915440"><path d="M 10.039062 7.332031 L 20 7.332031 L 20 21 L 10.039062 21 Z M 10.039062 7.332031 " clip-rule="nonzero"/></clipPath><clipPath id="f5ec1d6618"><path d="M 13 21 L 17 21 L 17 24.75 L 13 24.75 Z M 13 21 " clip-rule="nonzero"/></clipPath></defs><g clip-path="url(#44f5e30fdc)"><path fill="#ffffff" d="M 0.484375 0 L 29.515625 0 L 29.515625 29.03125 L 0.484375 29.03125 Z M 0.484375 0 " fill-opacity="1" fill-rule="nonzero"/><path fill="#ffffff" d="M 0.484375 0 L 29.515625 0 L 29.515625 29.03125 L 0.484375 29.03125 Z M 0.484375 0 " fill-opacity="1" fill-rule="nonzero"/></g><g clip-path="url(#08c7372029)"><path fill="#5271ff" d="M 5.515625 7.035156 L 10.234375 7.035156 L 10.234375 8.957031 L 5.515625 8.957031 Z M 6.609375 28.273438 L 26.417969 28.273438 L 26.417969 10.476562 L 28.789062 10.476562 L 28.789062 7.457031 L 15 0.777344 L 1.210938 7.457031 L 1.210938 10.476562 L 3.582031 10.476562 L 3.582031 28.273438 Z M 23.390625 27.074219 L 6.609375 27.074219 L 6.609375 12.941406 L 23.390625 12.941406 Z M 12.355469 7.996094 C 12.355469 6.535156 13.539062 5.351562 15 5.351562 C 16.460938 5.351562 17.644531 6.535156 17.644531 7.996094 C 17.644531 9.457031 16.460938 10.640625 15 10.640625 C 13.539062 10.640625 12.355469 9.457031 12.355469 7.996094 Z M 19.761719 8.957031 L 19.761719 7.035156 L 24.484375 7.035156 L 24.484375 8.957031 Z M 19.761719 8.957031 " fill-opacity="1" fill-rule="evenodd"/></g><path fill="#5271ff" d="M 12.617188 22.925781 L 9.082031 22.925781 L 9.082031 26.460938 L 12.617188 26.460938 Z M 11.128906 23.523438 C 10.992188 23.523438 10.882812 23.632812 10.882812 23.769531 C 10.882812 23.902344 10.992188 24.011719 11.128906 24.011719 L 11.804688 24.011719 C 11.9375 24.011719 12.050781 23.902344 12.050781 23.769531 C 12.050781 23.632812 11.9375 23.523438 11.804688 23.523438 Z M 11.128906 23.523438 " fill-opacity="1" fill-rule="evenodd"/><path fill="#5271ff" d="M 13.230469 22.925781 L 13.230469 26.460938 L 16.769531 26.460938 L 16.769531 22.925781 Z M 15.277344 23.523438 C 15.140625 23.523438 15.03125 23.632812 15.03125 23.769531 C 15.03125 23.902344 15.140625 24.011719 15.277344 24.011719 L 15.953125 24.011719 C 16.089844 24.011719 16.199219 23.902344 16.199219 23.769531 C 16.199219 23.632812 16.089844 23.523438 15.953125 23.523438 Z M 15.277344 23.523438 " fill-opacity="1" fill-rule="evenodd"/><path fill="#5271ff" d="M 15.304688 18.777344 L 15.304688 22.3125 L 18.84375 22.3125 L 18.84375 18.777344 Z M 17.351562 19.375 C 17.21875 19.375 17.105469 19.484375 17.105469 19.621094 C 17.105469 19.753906 17.21875 19.863281 17.351562 19.863281 L 18.027344 19.863281 C 18.164062 19.863281 18.273438 19.753906 18.273438 19.621094 C 18.273438 19.484375 18.164062 19.375 18.027344 19.375 Z M 17.351562 19.375 " fill-opacity="1" fill-rule="evenodd"/><path fill="#5271ff" d="M 14.691406 18.777344 L 11.15625 18.777344 L 11.15625 22.3125 L 14.691406 22.3125 Z M 13.203125 19.375 C 13.066406 19.375 12.957031 19.484375 12.957031 19.621094 C 12.957031 19.753906 13.066406 19.863281 13.203125 19.863281 L 13.878906 19.863281 C 14.015625 19.863281 14.125 19.753906 14.125 19.621094 C 14.125 19.484375 14.015625 19.375 13.878906 19.375 Z M 13.203125 19.375 " fill-opacity="1" fill-rule="evenodd"/><path fill="#5271ff" d="M 13.230469 14.625 L 13.230469 18.164062 L 16.769531 18.164062 L 16.769531 14.625 Z M 15.277344 15.226562 C 15.140625 15.226562 15.03125 15.335938 15.03125 15.472656 C 15.03125 15.605469 15.140625 15.714844 15.277344 15.714844 L 15.953125 15.714844 C 16.089844 15.714844 16.199219 15.605469 16.199219 15.472656 C 16.199219 15.335938 16.089844 15.226562 15.953125 15.226562 Z M 15.277344 15.226562 " fill-opacity="1" fill-rule="evenodd"/><path fill="#5271ff" d="M 20.917969 22.925781 L 17.378906 22.925781 L 17.378906 26.460938 L 20.917969 26.460938 Z M 19.425781 23.523438 C 19.292969 23.523438 19.183594 23.632812 19.183594 23.769531 C 19.183594 23.902344 19.292969 24.011719 19.425781 24.011719 L 20.101562 24.011719 C 20.238281 24.011719 20.347656 23.902344 20.347656 23.769531 C 20.347656 23.632812 20.238281 23.523438 20.101562 23.523438 Z M 19.425781 23.523438 " fill-opacity="1" fill-rule="evenodd"/><g clip-path="url(#4428349e7a)"><path fill="#5271ff" d="M 4.445312 11.964844 L 24.144531 11.964844 L 24.144531 27.726562 L 4.445312 27.726562 Z M 4.445312 11.964844 " fill-opacity="1" fill-rule="nonzero"/></g><g clip-path="url(#d3e4073d27)"><path fill="#5271ff" d="M 5.203125 5.515625 L 24.796875 5.515625 L 24.796875 11.964844 L 5.203125 11.964844 Z M 5.203125 5.515625 " fill-opacity="1" fill-rule="nonzero"/></g><g clip-path="url(#e06c97dfce)"><path fill="#5271ff" d="M 12.675781 3.703125 L 17.324219 3.703125 L 17.324219 7.332031 L 12.675781 7.332031 Z M 12.675781 3.703125 " fill-opacity="1" fill-rule="nonzero"/></g><g clip-path="url(#e81833f4f2)"><path fill="#5271ff" d="M 4.445312 7.332031 L 9.089844 7.332031 L 9.089844 10.960938 L 4.445312 10.960938 Z M 4.445312 7.332031 " fill-opacity="1" fill-rule="nonzero"/></g><g clip-path="url(#5eff915440)"><path fill="#000000" d="M 18.230469 8.234375 C 16.988281 7.433594 15.335938 7.339844 13.941406 7.847656 C 12.542969 8.351562 11.402344 9.40625 10.644531 10.652344 C 10.355469 11.125 10.117188 11.644531 10.078125 12.195312 C 10.039062 12.746094 10.230469 13.335938 10.679688 13.675781 C 11.128906 14.015625 11.84375 14.03125 12.234375 13.628906 C 12.589844 13.257812 12.589844 12.703125 12.691406 12.210938 C 12.917969 11.132812 13.769531 10.195312 14.847656 9.84375 C 15.785156 9.539062 17.023438 9.792969 17.402344 10.679688 C 17.703125 11.386719 17.339844 12.210938 16.800781 12.769531 C 16.257812 13.328125 15.550781 13.707031 14.957031 14.207031 C 13.613281 15.347656 12.898438 17.144531 13.105469 18.863281 C 13.191406 19.582031 13.492188 20.359375 14.160156 20.683594 C 15.203125 21.191406 16.277344 20.328125 16.261719 19.277344 C 16.257812 18.902344 16.074219 18.554688 16.058594 18.175781 C 16.035156 17.558594 16.300781 16.917969 16.625 16.402344 C 17.109375 15.621094 17.800781 14.984375 18.429688 14.304688 C 19.058594 13.628906 19.644531 12.875 19.859375 11.988281 C 20.199219 10.578125 19.46875 9.035156 18.230469 8.234375 Z M 11.402344 13.515625 C 11.347656 13.527344 11.292969 13.507812 11.242188 13.488281 C 10.832031 13.3125 10.546875 12.921875 10.453125 12.5 C 10.394531 12.234375 10.40625 11.957031 10.460938 11.691406 C 10.496094 11.535156 10.621094 11.121094 10.785156 11.035156 C 10.867188 10.992188 10.980469 11.007812 11.046875 11.070312 C 11.160156 11.179688 11.125 11.359375 11.082031 11.507812 C 10.996094 11.828125 10.863281 12.15625 10.902344 12.484375 C 10.941406 12.8125 11.105469 13.140625 11.394531 13.3125 C 11.4375 13.335938 11.480469 13.359375 11.492188 13.402344 C 11.503906 13.453125 11.457031 13.507812 11.402344 13.515625 Z M 13.929688 18.398438 C 13.945312 18.714844 13.992188 19.042969 14.097656 19.34375 C 14.199219 19.636719 14.546875 20.125 14.398438 20.277344 C 14.214844 20.46875 13.808594 19.878906 13.65625 19.566406 C 13.5 19.257812 13.464844 18.90625 13.464844 18.5625 C 13.457031 17.753906 13.621094 16.949219 13.941406 16.203125 C 14 16.0625 14.109375 15.898438 14.269531 15.914062 C 14.394531 15.929688 14.476562 16.066406 14.46875 16.191406 C 14.464844 16.316406 14.398438 16.429688 14.339844 16.539062 C 14.042969 17.113281 13.90625 17.757812 13.929688 18.398438 Z M 13.929688 18.398438 " fill-opacity="1" fill-rule="nonzero"/></g><g clip-path="url(#f5ec1d6618)"><path fill="#000000" d="M 14.851562 21.980469 C 13.96875 22.164062 13.257812 23.585938 13.808594 24.316406 C 14.03125 24.609375 14.429688 24.738281 14.804688 24.738281 C 15.382812 24.734375 15.960938 24.433594 16.238281 23.941406 C 16.753906 23.039062 15.980469 21.746094 14.851562 21.980469 Z M 14.375 24.402344 C 14.359375 24.429688 14.320312 24.433594 14.289062 24.425781 C 14.230469 24.417969 14.179688 24.390625 14.136719 24.355469 C 14.097656 24.320312 14.046875 24.269531 14.03125 24.222656 C 14.023438 24.199219 14.027344 24.167969 14.046875 24.152344 C 14.070312 24.128906 14.109375 24.132812 14.140625 24.148438 C 14.167969 24.164062 14.1875 24.191406 14.210938 24.214844 C 14.242188 24.25 14.277344 24.28125 14.316406 24.308594 C 14.332031 24.320312 14.351562 24.328125 14.363281 24.34375 C 14.375 24.363281 14.382812 24.382812 14.375 24.402344 Z M 14.898438 22.664062 C 14.734375 22.808594 14.546875 22.929688 14.390625 23.085938 C 14.234375 23.238281 14.109375 23.441406 14.113281 23.65625 C 14.113281 23.714844 14.117188 23.789062 14.066406 23.8125 C 14.023438 23.835938 13.96875 23.808594 13.949219 23.769531 C 13.925781 23.730469 13.925781 23.683594 13.925781 23.636719 C 13.945312 23.320312 14.082031 23.011719 14.292969 22.769531 C 14.386719 22.664062 14.84375 22.164062 14.992188 22.410156 C 15.042969 22.492188 14.972656 22.597656 14.898438 22.664062 Z M 14.898438 22.664062 " fill-opacity="1" fill-rule="nonzero"/></g></svg>