<svg xmlns="http://www.w3.org/2000/svg" xmlns:xlink="http://www.w3.org/1999/xlink" width="15" zoomAndPan="magnify" viewBox="0 0 30 30.000001" height="15" preserveAspectRatio="xMidYMid meet" version="1.0"><defs><clipPath id="0a779c39aa"><path d="M 0.484375 0 L 29.515625 0 L 29.515625 29.03125 L 0.484375 29.03125 Z M 0.484375 0 " clip-rule="nonzero"/></clipPath><clipPath id="57240bd17a"><path d="M 1.210938 0.726562 L 28.789062 0.726562 L 28.789062 28.304688 L 1.210938 28.304688 Z M 1.210938 0.726562 " clip-rule="nonzero"/></clipPath></defs><g clip-path="url(#0a779c39aa)"><path fill="#ffffff" d="M 0.484375 0 L 29.515625 0 L 29.515625 29.03125 L 0.484375 29.03125 Z M 0.484375 0 " fill-opacity="1" fill-rule="nonzero"/><path fill="#ffffff" d="M 0.484375 0 L 29.515625 0 L 29.515625 29.03125 L 0.484375 29.03125 Z M 0.484375 0 " fill-opacity="1" fill-rule="nonzero"/></g><g clip-path="url(#57240bd17a)"><path fill="#5271ff" d="M 5.515625 7.035156 L 10.234375 7.035156 L 10.234375 8.957031 L 5.515625 8.957031 Z M 6.609375 28.273438 L 26.417969 28.273438 L 26.417969 10.476562 L 28.789062 10.476562 L 28.789062 7.457031 L 15 0.777344 L 1.210938 7.457031 L 1.210938 10.476562 L 3.582031 10.476562 L 3.582031 28.273438 Z M 23.390625 27.074219 L 6.609375 27.074219 L 6.609375 12.941406 L 23.390625 12.941406 Z M 12.355469 7.996094 C 12.355469 6.535156 13.539062 5.351562 15 5.351562 C 16.460938 5.351562 17.644531 6.535156 17.644531 7.996094 C 17.644531 9.457031 16.460938 10.640625 15 10.640625 C 13.539062 10.640625 12.355469 9.457031 12.355469 7.996094 Z M 19.761719 8.957031 L 19.761719 7.035156 L 24.484375 7.035156 L 24.484375 8.957031 Z M 19.761719 8.957031 " fill-opacity="1" fill-rule="evenodd"/></g><path fill="#5271ff" d="M 12.617188 22.925781 L 9.082031 22.925781 L 9.082031 26.460938 L 12.617188 26.460938 Z M 11.128906 23.523438 C 10.992188 23.523438 10.882812 23.632812 10.882812 23.769531 C 10.882812 23.902344 10.992188 24.011719 11.128906 24.011719 L 11.804688 24.011719 C 11.9375 24.011719 12.050781 23.902344 12.050781 23.769531 C 12.050781 23.632812 11.9375 23.523438 11.804688 23.523438 Z M 11.128906 23.523438 " fill-opacity="1" fill-rule="evenodd"/><path fill="#5271ff" d="M 13.230469 22.925781 L 13.230469 26.460938 L 16.769531 26.460938 L 16.769531 22.925781 Z M 15.277344 23.523438 C 15.140625 23.523438 15.03125 23.632812 15.03125 23.769531 C 15.03125 23.902344 15.140625 24.011719 15.277344 24.011719 L 15.953125 24.011719 C 16.089844 24.011719 16.199219 23.902344 16.199219 23.769531 C 16.199219 23.632812 16.089844 23.523438 15.953125 23.523438 Z M 15.277344 23.523438 " fill-opacity="1" fill-rule="evenodd"/><path fill="#5271ff" d="M 15.304688 18.777344 L 15.304688 22.3125 L 18.84375 22.3125 L 18.84375 18.777344 Z M 17.351562 19.375 C 17.21875 19.375 17.105469 19.484375 17.105469 19.621094 C 17.105469 19.753906 17.21875 19.863281 17.351562 19.863281 L 18.027344 19.863281 C 18.164062 19.863281 18.273438 19.753906 18.273438 19.621094 C 18.273438 19.484375 18.164062 19.375 18.027344 19.375 Z M 17.351562 19.375 " fill-opacity="1" fill-rule="evenodd"/><path fill="#5271ff" d="M 14.691406 18.777344 L 11.15625 18.777344 L 11.15625 22.3125 L 14.691406 22.3125 Z M 13.203125 19.375 C 13.066406 19.375 12.957031 19.484375 12.957031 19.621094 C 12.957031 19.753906 13.066406 19.863281 13.203125 19.863281 L 13.878906 19.863281 C 14.015625 19.863281 14.125 19.753906 14.125 19.621094 C 14.125 19.484375 14.015625 19.375 13.878906 19.375 Z M 13.203125 19.375 " fill-opacity="1" fill-rule="evenodd"/><path fill="#5271ff" d="M 13.230469 14.625 L 13.230469 18.164062 L 16.769531 18.164062 L 16.769531 14.625 Z M 15.277344 15.226562 C 15.140625 15.226562 15.03125 15.335938 15.03125 15.472656 C 15.03125 15.605469 15.140625 15.714844 15.277344 15.714844 L 15.953125 15.714844 C 16.089844 15.714844 16.199219 15.605469 16.199219 15.472656 C 16.199219 15.335938 16.089844 15.226562 15.953125 15.226562 Z M 15.277344 15.226562 " fill-opacity="1" fill-rule="evenodd"/><path fill="#5271ff" d="M 20.917969 22.925781 L 17.378906 22.925781 L 17.378906 26.460938 L 20.917969 26.460938 Z M 19.425781 23.523438 C 19.292969 23.523438 19.183594 23.632812 19.183594 23.769531 C 19.183594 23.902344 19.292969 24.011719 19.425781 24.011719 L 20.101562 24.011719 C 20.238281 24.011719 20.347656 23.902344 20.347656 23.769531 C 20.347656 23.632812 20.238281 23.523438 20.101562 23.523438 Z M 19.425781 23.523438 " fill-opacity="1" fill-rule="evenodd"/></svg>